<mxfile host="app.diagrams.net" modified="2023-05-22T18:38:51.900Z" agent="Mozilla/5.0 (Windows NT 10.0; Win64; x64) AppleWebKit/537.36 (KHTML, like Gecko) Chrome/113.0.0.0 Safari/537.36" etag="3CAALOn6NsofVVERxqWc" version="21.2.9" type="github" pages="7">
  <diagram id="UScC1cD7duom_8nnRo4U" name="aec3po">
    <mxGraphModel dx="2237" dy="1908" grid="1" gridSize="10" guides="1" tooltips="1" connect="1" arrows="1" fold="1" page="1" pageScale="1" pageWidth="827" pageHeight="1169" math="0" shadow="0">
      <root>
        <mxCell id="0" />
        <mxCell id="1" parent="0" />
        <mxCell id="nIFLo1w1Xrx-wlBWvT0a-1" value="&lt;b&gt;c3po&lt;/b&gt;&lt;span style=&quot;background-color: initial;&quot;&gt;: https://w3id.org/lbd/c3po/&lt;/span&gt;&lt;b&gt;&lt;br&gt;&lt;/b&gt;&lt;b style=&quot;--tw-border-spacing-x: 0; --tw-border-spacing-y: 0; --tw-translate-x: 0; --tw-translate-y: 0; --tw-rotate: 0; --tw-skew-x: 0; --tw-skew-y: 0; --tw-scale-x: 1; --tw-scale-y: 1; --tw-pan-x: ; --tw-pan-y: ; --tw-pinch-zoom: ; --tw-scroll-snap-strictness: proximity; --tw-ordinal: ; --tw-slashed-zero: ; --tw-numeric-figure: ; --tw-numeric-spacing: ; --tw-numeric-fraction: ; --tw-ring-inset: ; --tw-ring-offset-width: 0px; --tw-ring-offset-color: #fff; --tw-ring-color: rgb(59 130 246 / 0.5); --tw-ring-offset-shadow: 0 0 #0000; --tw-ring-shadow: 0 0 #0000; --tw-shadow: 0 0 #0000; --tw-shadow-colored: 0 0 #0000; --tw-blur: ; --tw-brightness: ; --tw-contrast: ; --tw-grayscale: ; --tw-hue-rotate: ; --tw-invert: ; --tw-saturate: ; --tw-sepia: ; --tw-drop-shadow: ; --tw-backdrop-blur: ; --tw-backdrop-brightness: ; --tw-backdrop-contrast: ; --tw-backdrop-grayscale: ; --tw-backdrop-hue-rotate: ; --tw-backdrop-invert: ; --tw-backdrop-opacity: ; --tw-backdrop-saturate: ; --tw-backdrop-sepia: ; border-color: var(--border-color); background-color: initial;&quot;&gt;dct:&lt;/b&gt;&amp;nbsp;http://purl.org/dc/terms/" style="shape=note;whiteSpace=wrap;html=1;backgroundOutline=1;darkOpacity=0.05;size=13;align=left;" parent="1" vertex="1">
          <mxGeometry y="-140" width="260" height="40" as="geometry" />
        </mxCell>
        <mxCell id="nIFLo1w1Xrx-wlBWvT0a-2" value="c3po:FeatureOfInterest" style="rounded=0;whiteSpace=wrap;html=1;snapToPoint=1;points=[[0.1,0],[0.2,0],[0.3,0],[0.4,0],[0.5,0],[0.6,0],[0.7,0],[0.8,0],[0.9,0],[0,0.1],[0,0.3],[0,0.5],[0,0.7],[0,0.9],[0.1,1],[0.2,1],[0.3,1],[0.4,1],[0.5,1],[0.6,1],[0.7,1],[0.8,1],[0.9,1],[1,0.1],[1,0.3],[1,0.5],[1,0.7],[1,0.9]];fillColor=#fa6800;fontColor=#000000;strokeColor=#C73500;" parent="1" vertex="1">
          <mxGeometry x="1300" y="950" width="190" height="30" as="geometry" />
        </mxCell>
        <mxCell id="nIFLo1w1Xrx-wlBWvT0a-5" value="c3po:hasValue" style="rounded=0;whiteSpace=wrap;html=1;snapToPoint=1;points=[[0.1,0],[0.2,0],[0.3,0],[0.4,0],[0.5,0],[0.6,0],[0.7,0],[0.8,0],[0.9,0],[0,0.1],[0,0.3],[0,0.5],[0,0.7],[0,0.9],[0.1,1],[0.2,1],[0.3,1],[0.4,1],[0.5,1],[0.6,1],[0.7,1],[0.8,1],[0.9,1],[1,0.1],[1,0.3],[1,0.5],[1,0.7],[1,0.9]];dashed=1;fillColor=#e1d5e7;strokeColor=#9673a6;" parent="1" vertex="1">
          <mxGeometry x="951" y="909.9999999999999" width="136" height="30" as="geometry" />
        </mxCell>
        <mxCell id="nIFLo1w1Xrx-wlBWvT0a-132" style="edgeStyle=orthogonalEdgeStyle;rounded=0;orthogonalLoop=1;jettySize=auto;html=1;exitX=0;exitY=0.5;exitDx=0;exitDy=0;entryX=0.6;entryY=1;entryDx=0;entryDy=0;startArrow=none;startFill=0;endArrow=block;endFill=0;" parent="1" source="nIFLo1w1Xrx-wlBWvT0a-6" target="nIFLo1w1Xrx-wlBWvT0a-22" edge="1">
          <mxGeometry relative="1" as="geometry">
            <Array as="points">
              <mxPoint x="938" y="895" />
            </Array>
          </mxGeometry>
        </mxCell>
        <mxCell id="nIFLo1w1Xrx-wlBWvT0a-133" value="c3po:hasDesign" style="edgeStyle=orthogonalEdgeStyle;rounded=0;orthogonalLoop=1;jettySize=auto;html=1;entryX=1;entryY=0.5;entryDx=0;entryDy=0;startArrow=none;startFill=0;endArrow=classic;endFill=1;exitX=0;exitY=0.5;exitDx=0;exitDy=0;" parent="1" source="nIFLo1w1Xrx-wlBWvT0a-9" target="nIFLo1w1Xrx-wlBWvT0a-6" edge="1">
          <mxGeometry relative="1" as="geometry">
            <mxPoint x="1220" y="920" as="sourcePoint" />
          </mxGeometry>
        </mxCell>
        <mxCell id="nIFLo1w1Xrx-wlBWvT0a-6" value="c3po:PropertyDesign" style="rounded=0;whiteSpace=wrap;html=1;snapToPoint=1;points=[[0.1,0],[0.2,0],[0.3,0],[0.4,0],[0.5,0],[0.6,0],[0.7,0],[0.8,0],[0.9,0],[0,0.1],[0,0.3],[0,0.5],[0,0.7],[0,0.9],[0.1,1],[0.2,1],[0.3,1],[0.4,1],[0.5,1],[0.6,1],[0.7,1],[0.8,1],[0.9,1],[1,0.1],[1,0.3],[1,0.5],[1,0.7],[1,0.9]];fillColor=#e1d5e7;strokeColor=#9673a6;" parent="1" vertex="1">
          <mxGeometry x="951" y="879.9999999999999" width="136" height="30" as="geometry" />
        </mxCell>
        <mxCell id="nIFLo1w1Xrx-wlBWvT0a-7" value="c3po:hasValue" style="rounded=0;whiteSpace=wrap;html=1;snapToPoint=1;points=[[0.1,0],[0.2,0],[0.3,0],[0.4,0],[0.5,0],[0.6,0],[0.7,0],[0.8,0],[0.9,0],[0,0.1],[0,0.3],[0,0.5],[0,0.7],[0,0.9],[0.1,1],[0.2,1],[0.3,1],[0.4,1],[0.5,1],[0.6,1],[0.7,1],[0.8,1],[0.9,1],[1,0.1],[1,0.3],[1,0.5],[1,0.7],[1,0.9]];dashed=1;fillColor=#e1d5e7;strokeColor=#9673a6;" parent="1" vertex="1">
          <mxGeometry x="950" y="570" width="160" height="30" as="geometry" />
        </mxCell>
        <mxCell id="nIFLo1w1Xrx-wlBWvT0a-111" style="edgeStyle=orthogonalEdgeStyle;rounded=0;orthogonalLoop=1;jettySize=auto;html=1;entryX=0.6;entryY=1;entryDx=0;entryDy=0;startArrow=none;startFill=0;endArrow=block;endFill=0;exitX=0;exitY=0.5;exitDx=0;exitDy=0;" parent="1" source="nIFLo1w1Xrx-wlBWvT0a-8" target="nIFLo1w1Xrx-wlBWvT0a-22" edge="1">
          <mxGeometry relative="1" as="geometry">
            <Array as="points">
              <mxPoint x="940" y="555" />
              <mxPoint x="940" y="470" />
            </Array>
          </mxGeometry>
        </mxCell>
        <mxCell id="nIFLo1w1Xrx-wlBWvT0a-8" value="c3po:PropertyKindDesign" style="rounded=0;whiteSpace=wrap;html=1;snapToPoint=1;points=[[0.1,0],[0.2,0],[0.3,0],[0.4,0],[0.5,0],[0.6,0],[0.7,0],[0.8,0],[0.9,0],[0,0.1],[0,0.3],[0,0.5],[0,0.7],[0,0.9],[0.1,1],[0.2,1],[0.3,1],[0.4,1],[0.5,1],[0.6,1],[0.7,1],[0.8,1],[0.9,1],[1,0.1],[1,0.3],[1,0.5],[1,0.7],[1,0.9]];fillColor=#e1d5e7;strokeColor=#9673a6;" parent="1" vertex="1">
          <mxGeometry x="950" y="540" width="160" height="30" as="geometry" />
        </mxCell>
        <mxCell id="nIFLo1w1Xrx-wlBWvT0a-9" value="c3po:Property" style="rounded=0;whiteSpace=wrap;html=1;snapToPoint=1;points=[[0.1,0],[0.2,0],[0.3,0],[0.4,0],[0.5,0],[0.6,0],[0.7,0],[0.8,0],[0.9,0],[0,0.1],[0,0.3],[0,0.5],[0,0.7],[0,0.9],[0.1,1],[0.2,1],[0.3,1],[0.4,1],[0.5,1],[0.6,1],[0.7,1],[0.8,1],[0.9,1],[1,0.1],[1,0.3],[1,0.5],[1,0.7],[1,0.9]];fillColor=#f0a30a;fontColor=#000000;strokeColor=#BD7000;" parent="1" vertex="1">
          <mxGeometry x="1300" y="880" width="190" height="30" as="geometry" />
        </mxCell>
        <mxCell id="_TGrfCJ_9bRbSxPVq6Wt-4" style="edgeStyle=orthogonalEdgeStyle;rounded=0;orthogonalLoop=1;jettySize=auto;html=1;entryX=0.6;entryY=1;entryDx=0;entryDy=0;endArrow=block;endFill=0;" parent="1" source="nIFLo1w1Xrx-wlBWvT0a-10" target="_TGrfCJ_9bRbSxPVq6Wt-2" edge="1">
          <mxGeometry relative="1" as="geometry" />
        </mxCell>
        <mxCell id="nIFLo1w1Xrx-wlBWvT0a-10" value="c3po:Statement" style="rounded=0;whiteSpace=wrap;html=1;snapToPoint=1;points=[[0.1,0],[0.2,0],[0.3,0],[0.4,0],[0.5,0],[0.6,0],[0.7,0],[0.8,0],[0.9,0],[0,0.1],[0,0.3],[0,0.5],[0,0.7],[0,0.9],[0.1,1],[0.2,1],[0.3,1],[0.4,1],[0.5,1],[0.6,1],[0.7,1],[0.8,1],[0.9,1],[1,0.1],[1,0.3],[1,0.5],[1,0.7],[1,0.9]];fillColor=#ffe6cc;strokeColor=#d79b00;" parent="1" vertex="1">
          <mxGeometry x="60" y="310" width="120" height="30" as="geometry" />
        </mxCell>
        <mxCell id="nIFLo1w1Xrx-wlBWvT0a-14" value="" style="endArrow=classic;html=1;entryX=0.5;entryY=1;entryDx=0;entryDy=0;endSize=8;arcSize=0;rounded=0;startArrow=oval;startFill=1;exitX=0.5;exitY=0;exitDx=0;exitDy=0;" parent="1" source="nIFLo1w1Xrx-wlBWvT0a-2" target="nIFLo1w1Xrx-wlBWvT0a-9" edge="1">
          <mxGeometry width="50" height="50" relative="1" as="geometry">
            <mxPoint x="1340" y="545" as="sourcePoint" />
            <mxPoint x="647" y="180" as="targetPoint" />
          </mxGeometry>
        </mxCell>
        <mxCell id="nIFLo1w1Xrx-wlBWvT0a-15" value="&lt;div&gt;(IF) c3po:hasProperty&lt;br&gt;&lt;/div&gt;" style="text;html=1;align=center;verticalAlign=middle;resizable=0;points=[];labelBackgroundColor=#ffffff;" parent="nIFLo1w1Xrx-wlBWvT0a-14" vertex="1" connectable="0">
          <mxGeometry x="-0.1269" relative="1" as="geometry">
            <mxPoint x="5" as="offset" />
          </mxGeometry>
        </mxCell>
        <mxCell id="nIFLo1w1Xrx-wlBWvT0a-17" value="&lt;span style=&quot;color: rgb(0, 0, 0); font-family: Helvetica; font-size: 12px; font-style: normal; font-variant-ligatures: normal; font-variant-caps: normal; font-weight: 400; letter-spacing: normal; orphans: 2; text-align: center; text-indent: 0px; text-transform: none; widows: 2; word-spacing: 0px; -webkit-text-stroke-width: 0px; background-color: rgb(255, 255, 255); text-decoration-thickness: initial; text-decoration-style: initial; text-decoration-color: initial; float: none; display: inline !important;&quot;&gt;c3po:hasPropertyKind&lt;/span&gt;" style="endArrow=classic;html=1;endSize=8;arcSize=0;rounded=0;startArrow=oval;startFill=1;exitX=0.5;exitY=0;exitDx=0;exitDy=0;entryX=0.542;entryY=1;entryDx=0;entryDy=0;entryPerimeter=0;" parent="1" source="nIFLo1w1Xrx-wlBWvT0a-9" target="nIFLo1w1Xrx-wlBWvT0a-16" edge="1">
          <mxGeometry width="50" height="50" relative="1" as="geometry">
            <mxPoint x="1260" y="230" as="sourcePoint" />
            <mxPoint x="1220" y="190" as="targetPoint" />
            <mxPoint as="offset" />
          </mxGeometry>
        </mxCell>
        <mxCell id="nIFLo1w1Xrx-wlBWvT0a-20" value="" style="endArrow=classic;html=1;endSize=8;arcSize=0;rounded=0;startArrow=oval;startFill=1;entryX=0;entryY=0.5;entryDx=0;entryDy=0;exitX=1;exitY=0.5;exitDx=0;exitDy=0;" parent="1" source="nIFLo1w1Xrx-wlBWvT0a-8" target="nIFLo1w1Xrx-wlBWvT0a-16" edge="1">
          <mxGeometry width="50" height="50" relative="1" as="geometry">
            <mxPoint x="1460" y="655" as="sourcePoint" />
            <mxPoint x="1240" y="545" as="targetPoint" />
          </mxGeometry>
        </mxCell>
        <mxCell id="nIFLo1w1Xrx-wlBWvT0a-21" value="&lt;div&gt;c3po:forPropertyKind&lt;br&gt;&lt;/div&gt;" style="text;html=1;align=center;verticalAlign=middle;resizable=0;points=[];labelBackgroundColor=#ffffff;" parent="nIFLo1w1Xrx-wlBWvT0a-20" vertex="1" connectable="0">
          <mxGeometry x="-0.1269" relative="1" as="geometry">
            <mxPoint as="offset" />
          </mxGeometry>
        </mxCell>
        <mxCell id="nIFLo1w1Xrx-wlBWvT0a-16" value="c3po:PropertyKind" style="rounded=0;whiteSpace=wrap;html=1;snapToPoint=1;points=[[0.1,0],[0.2,0],[0.3,0],[0.4,0],[0.5,0],[0.6,0],[0.7,0],[0.8,0],[0.9,0],[0,0.1],[0,0.3],[0,0.5],[0,0.7],[0,0.9],[0.1,1],[0.2,1],[0.3,1],[0.4,1],[0.5,1],[0.6,1],[0.7,1],[0.8,1],[0.9,1],[1,0.1],[1,0.3],[1,0.5],[1,0.7],[1,0.9]];fillColor=#fad7ac;strokeColor=#b46504;" parent="1" vertex="1">
          <mxGeometry x="1290" y="540" width="190" height="30" as="geometry" />
        </mxCell>
        <mxCell id="nIFLo1w1Xrx-wlBWvT0a-25" value="" style="endArrow=classic;html=1;endSize=8;arcSize=0;rounded=0;startArrow=none;startFill=0;entryX=0;entryY=0.5;entryDx=0;entryDy=0;exitX=1;exitY=0.7;exitDx=0;exitDy=0;" parent="1" source="nIFLo1w1Xrx-wlBWvT0a-29" target="nIFLo1w1Xrx-wlBWvT0a-22" edge="1">
          <mxGeometry width="50" height="50" relative="1" as="geometry">
            <mxPoint x="600" y="245" as="sourcePoint" />
            <mxPoint x="840" y="240" as="targetPoint" />
            <Array as="points">
              <mxPoint x="560" y="251" />
              <mxPoint x="720" y="455" />
            </Array>
          </mxGeometry>
        </mxCell>
        <mxCell id="nIFLo1w1Xrx-wlBWvT0a-26" value="&lt;div&gt;c3po:forDesign&lt;br&gt;&lt;/div&gt;" style="text;html=1;align=center;verticalAlign=middle;resizable=0;points=[];labelBackgroundColor=#ffffff;" parent="nIFLo1w1Xrx-wlBWvT0a-25" vertex="1" connectable="0">
          <mxGeometry x="-0.1269" relative="1" as="geometry">
            <mxPoint x="-76" y="-111" as="offset" />
          </mxGeometry>
        </mxCell>
        <mxCell id="nIFLo1w1Xrx-wlBWvT0a-28" value="c3po:ProcessVerifier" style="rounded=0;whiteSpace=wrap;html=1;snapToPoint=1;points=[[0.1,0],[0.2,0],[0.3,0],[0.4,0],[0.5,0],[0.6,0],[0.7,0],[0.8,0],[0.9,0],[0,0.1],[0,0.3],[0,0.5],[0,0.7],[0,0.9],[0.1,1],[0.2,1],[0.3,1],[0.4,1],[0.5,1],[0.6,1],[0.7,1],[0.8,1],[0.9,1],[1,0.1],[1,0.3],[1,0.5],[1,0.7],[1,0.9]];fillColor=#d5e8d4;strokeColor=#82b366;" parent="1" vertex="1">
          <mxGeometry x="620" y="270" width="140" height="30" as="geometry" />
        </mxCell>
        <mxCell id="nIFLo1w1Xrx-wlBWvT0a-29" value="c3po:Check" style="rounded=0;whiteSpace=wrap;html=1;snapToPoint=1;points=[[0.1,0],[0.2,0],[0.3,0],[0.4,0],[0.5,0],[0.6,0],[0.7,0],[0.8,0],[0.9,0],[0,0.1],[0,0.3],[0,0.5],[0,0.7],[0,0.9],[0.1,1],[0.2,1],[0.3,1],[0.4,1],[0.5,1],[0.6,1],[0.7,1],[0.8,1],[0.9,1],[1,0.1],[1,0.3],[1,0.5],[1,0.7],[1,0.9]];fillColor=#fff2cc;strokeColor=#d6b656;" parent="1" vertex="1">
          <mxGeometry x="400" y="230" width="100" height="30" as="geometry" />
        </mxCell>
        <mxCell id="nIFLo1w1Xrx-wlBWvT0a-112" value="c3po:madeBy" style="edgeStyle=orthogonalEdgeStyle;rounded=0;orthogonalLoop=1;jettySize=auto;html=1;entryX=0.5;entryY=0;entryDx=0;entryDy=0;startArrow=none;startFill=0;endArrow=classic;endFill=1;exitX=1;exitY=0.5;exitDx=0;exitDy=0;" parent="1" source="nIFLo1w1Xrx-wlBWvT0a-32" target="nIFLo1w1Xrx-wlBWvT0a-28" edge="1">
          <mxGeometry relative="1" as="geometry">
            <Array as="points">
              <mxPoint x="690" y="145" />
            </Array>
          </mxGeometry>
        </mxCell>
        <mxCell id="nIFLo1w1Xrx-wlBWvT0a-114" value="c3po:checked" style="edgeStyle=orthogonalEdgeStyle;rounded=0;orthogonalLoop=1;jettySize=auto;html=1;startArrow=none;startFill=0;endArrow=classic;endFill=1;" parent="1" source="nIFLo1w1Xrx-wlBWvT0a-32" target="nIFLo1w1Xrx-wlBWvT0a-29" edge="1">
          <mxGeometry x="-0.4283" relative="1" as="geometry">
            <mxPoint as="offset" />
            <Array as="points">
              <mxPoint x="440" y="145" />
            </Array>
          </mxGeometry>
        </mxCell>
        <mxCell id="nIFLo1w1Xrx-wlBWvT0a-32" value="c3po:Checking" style="rounded=0;whiteSpace=wrap;html=1;snapToPoint=1;points=[[0.1,0],[0.2,0],[0.3,0],[0.4,0],[0.5,0],[0.6,0],[0.7,0],[0.8,0],[0.9,0],[0,0.1],[0,0.3],[0,0.5],[0,0.7],[0,0.9],[0.1,1],[0.2,1],[0.3,1],[0.4,1],[0.5,1],[0.6,1],[0.7,1],[0.8,1],[0.9,1],[1,0.1],[1,0.3],[1,0.5],[1,0.7],[1,0.9]];fillColor=#dae8fc;strokeColor=#6c8ebf;" parent="1" vertex="1">
          <mxGeometry x="520" y="130" width="150" height="30" as="geometry" />
        </mxCell>
        <mxCell id="nIFLo1w1Xrx-wlBWvT0a-103" style="edgeStyle=orthogonalEdgeStyle;rounded=0;orthogonalLoop=1;jettySize=auto;html=1;exitX=0.4;exitY=0;exitDx=0;exitDy=0;entryX=0.1;entryY=1;entryDx=0;entryDy=0;startArrow=none;startFill=0;endArrow=block;endFill=0;" parent="1" source="nIFLo1w1Xrx-wlBWvT0a-40" target="nIFLo1w1Xrx-wlBWvT0a-22" edge="1">
          <mxGeometry relative="1" as="geometry">
            <Array as="points">
              <mxPoint x="791" y="505" />
              <mxPoint x="873" y="505" />
            </Array>
          </mxGeometry>
        </mxCell>
        <mxCell id="nIFLo1w1Xrx-wlBWvT0a-40" value="c3po:ClassificationDesign" style="rounded=0;whiteSpace=wrap;html=1;snapToPoint=1;points=[[0.1,0],[0.2,0],[0.3,0],[0.4,0],[0.5,0],[0.6,0],[0.7,0],[0.8,0],[0.9,0],[0,0.1],[0,0.3],[0,0.5],[0,0.7],[0,0.9],[0.1,1],[0.2,1],[0.3,1],[0.4,1],[0.5,1],[0.6,1],[0.7,1],[0.8,1],[0.9,1],[1,0.1],[1,0.3],[1,0.5],[1,0.7],[1,0.9]];fillColor=#e1d5e7;strokeColor=#9673a6;" parent="1" vertex="1">
          <mxGeometry x="715" y="540" width="165" height="30" as="geometry" />
        </mxCell>
        <mxCell id="nIFLo1w1Xrx-wlBWvT0a-41" value="(&lt;span style=&quot;background-color: rgb(255, 255, 255);&quot;&gt;∃&lt;/span&gt;) skos:inScheme: skos:ConceptScheme" style="rounded=0;whiteSpace=wrap;html=1;snapToPoint=1;points=[[0.1,0],[0.2,0],[0.3,0],[0.4,0],[0.5,0],[0.6,0],[0.7,0],[0.8,0],[0.9,0],[0,0.1],[0,0.3],[0,0.5],[0,0.7],[0,0.9],[0.1,1],[0.2,1],[0.3,1],[0.4,1],[0.5,1],[0.6,1],[0.7,1],[0.8,1],[0.9,1],[1,0.1],[1,0.3],[1,0.5],[1,0.7],[1,0.9]];dashed=1;align=left;fillColor=#e1d5e7;strokeColor=#9673a6;" parent="1" vertex="1">
          <mxGeometry x="715" y="570" width="165" height="30" as="geometry" />
        </mxCell>
        <mxCell id="nIFLo1w1Xrx-wlBWvT0a-47" value="" style="endArrow=classic;html=1;endSize=8;arcSize=0;rounded=0;startArrow=oval;startFill=1;exitX=1;exitY=0.9;exitDx=0;exitDy=0;entryX=0.5;entryY=0;entryDx=0;entryDy=0;" parent="1" source="nIFLo1w1Xrx-wlBWvT0a-8" target="nIFLo1w1Xrx-wlBWvT0a-49" edge="1">
          <mxGeometry width="50" height="50" relative="1" as="geometry">
            <mxPoint x="1060" y="565" as="sourcePoint" />
            <mxPoint x="1150" y="695" as="targetPoint" />
            <Array as="points">
              <mxPoint x="1130" y="567" />
            </Array>
          </mxGeometry>
        </mxCell>
        <mxCell id="nIFLo1w1Xrx-wlBWvT0a-48" value="&lt;div&gt;(F) c3po:hasComparisonOperator&lt;br&gt;&lt;/div&gt;" style="text;html=1;align=center;verticalAlign=middle;resizable=0;points=[];labelBackgroundColor=#ffffff;" parent="nIFLo1w1Xrx-wlBWvT0a-47" vertex="1" connectable="0">
          <mxGeometry x="-0.1269" relative="1" as="geometry">
            <mxPoint y="23" as="offset" />
          </mxGeometry>
        </mxCell>
        <mxCell id="nIFLo1w1Xrx-wlBWvT0a-49" value="c3po:ComparisonOperator" style="rounded=0;whiteSpace=wrap;html=1;snapToPoint=1;points=[[0.1,0],[0.2,0],[0.3,0],[0.4,0],[0.5,0],[0.6,0],[0.7,0],[0.8,0],[0.9,0],[0,0.1],[0,0.3],[0,0.5],[0,0.7],[0,0.9],[0.1,1],[0.2,1],[0.3,1],[0.4,1],[0.5,1],[0.6,1],[0.7,1],[0.8,1],[0.9,1],[1,0.1],[1,0.3],[1,0.5],[1,0.7],[1,0.9]];fillColor=#b0e3e6;strokeColor=#0e8088;" parent="1" vertex="1">
          <mxGeometry x="1050" y="650" width="160" height="30" as="geometry" />
        </mxCell>
        <mxCell id="nIFLo1w1Xrx-wlBWvT0a-50" value="&lt;u&gt;c3po:ComparisonOperator-lt&lt;/u&gt;" style="rounded=0;whiteSpace=wrap;html=1;snapToPoint=1;points=[[0.1,0],[0.2,0],[0.3,0],[0.4,0],[0.5,0],[0.6,0],[0.7,0],[0.8,0],[0.9,0],[0,0.1],[0,0.3],[0,0.5],[0,0.7],[0,0.9],[0.1,1],[0.2,1],[0.3,1],[0.4,1],[0.5,1],[0.6,1],[0.7,1],[0.8,1],[0.9,1],[1,0.1],[1,0.3],[1,0.5],[1,0.7],[1,0.9]];fillColor=#b0e3e6;strokeColor=#0e8088;" parent="1" vertex="1">
          <mxGeometry x="1087" y="700" width="173" height="30" as="geometry" />
        </mxCell>
        <mxCell id="nIFLo1w1Xrx-wlBWvT0a-51" value="&lt;u&gt;c3po:ComparisonOperator-le&lt;/u&gt;" style="rounded=0;whiteSpace=wrap;html=1;snapToPoint=1;points=[[0.1,0],[0.2,0],[0.3,0],[0.4,0],[0.5,0],[0.6,0],[0.7,0],[0.8,0],[0.9,0],[0,0.1],[0,0.3],[0,0.5],[0,0.7],[0,0.9],[0.1,1],[0.2,1],[0.3,1],[0.4,1],[0.5,1],[0.6,1],[0.7,1],[0.8,1],[0.9,1],[1,0.1],[1,0.3],[1,0.5],[1,0.7],[1,0.9]];fillColor=#b0e3e6;strokeColor=#0e8088;" parent="1" vertex="1">
          <mxGeometry x="1087" y="730" width="173" height="30" as="geometry" />
        </mxCell>
        <mxCell id="nIFLo1w1Xrx-wlBWvT0a-52" value="&lt;u&gt;c3po:ComparisonOperator-eq&lt;/u&gt;" style="rounded=0;whiteSpace=wrap;html=1;snapToPoint=1;points=[[0.1,0],[0.2,0],[0.3,0],[0.4,0],[0.5,0],[0.6,0],[0.7,0],[0.8,0],[0.9,0],[0,0.1],[0,0.3],[0,0.5],[0,0.7],[0,0.9],[0.1,1],[0.2,1],[0.3,1],[0.4,1],[0.5,1],[0.6,1],[0.7,1],[0.8,1],[0.9,1],[1,0.1],[1,0.3],[1,0.5],[1,0.7],[1,0.9]];fillColor=#b0e3e6;strokeColor=#0e8088;" parent="1" vertex="1">
          <mxGeometry x="1087" y="760" width="173" height="30" as="geometry" />
        </mxCell>
        <mxCell id="nIFLo1w1Xrx-wlBWvT0a-53" value="&lt;u&gt;c3po:ComparisonOperator-ge&lt;/u&gt;" style="rounded=0;whiteSpace=wrap;html=1;snapToPoint=1;points=[[0.1,0],[0.2,0],[0.3,0],[0.4,0],[0.5,0],[0.6,0],[0.7,0],[0.8,0],[0.9,0],[0,0.1],[0,0.3],[0,0.5],[0,0.7],[0,0.9],[0.1,1],[0.2,1],[0.3,1],[0.4,1],[0.5,1],[0.6,1],[0.7,1],[0.8,1],[0.9,1],[1,0.1],[1,0.3],[1,0.5],[1,0.7],[1,0.9]];fillColor=#b0e3e6;strokeColor=#0e8088;" parent="1" vertex="1">
          <mxGeometry x="1087" y="790" width="173" height="30" as="geometry" />
        </mxCell>
        <mxCell id="nIFLo1w1Xrx-wlBWvT0a-54" value="&lt;u&gt;c3po:ComparisonOperator-gt&lt;/u&gt;" style="rounded=0;whiteSpace=wrap;html=1;snapToPoint=1;points=[[0.1,0],[0.2,0],[0.3,0],[0.4,0],[0.5,0],[0.6,0],[0.7,0],[0.8,0],[0.9,0],[0,0.1],[0,0.3],[0,0.5],[0,0.7],[0,0.9],[0.1,1],[0.2,1],[0.3,1],[0.4,1],[0.5,1],[0.6,1],[0.7,1],[0.8,1],[0.9,1],[1,0.1],[1,0.3],[1,0.5],[1,0.7],[1,0.9]];fillColor=#b0e3e6;strokeColor=#0e8088;" parent="1" vertex="1">
          <mxGeometry x="1087" y="820" width="173" height="30" as="geometry" />
        </mxCell>
        <mxCell id="nIFLo1w1Xrx-wlBWvT0a-55" value="" style="endArrow=open;html=1;fontColor=#000099;endFill=0;dashed=1;entryX=0.1;entryY=1;entryDx=0;entryDy=0;endSize=8;exitX=0;exitY=0.5;exitDx=0;exitDy=0;rounded=0;" parent="1" source="nIFLo1w1Xrx-wlBWvT0a-50" target="nIFLo1w1Xrx-wlBWvT0a-49" edge="1">
          <mxGeometry width="50" height="50" relative="1" as="geometry">
            <mxPoint x="990" y="825" as="sourcePoint" />
            <mxPoint x="990" y="745" as="targetPoint" />
            <Array as="points">
              <mxPoint x="1066" y="715" />
            </Array>
          </mxGeometry>
        </mxCell>
        <mxCell id="nIFLo1w1Xrx-wlBWvT0a-56" value="&amp;lt;&amp;lt;rdf:type&amp;gt;&amp;gt;" style="text;html=1;align=center;verticalAlign=middle;resizable=0;points=[];fontColor=#000000;labelBackgroundColor=#ffffff;" parent="nIFLo1w1Xrx-wlBWvT0a-55" vertex="1" connectable="0">
          <mxGeometry x="-0.3277" relative="1" as="geometry">
            <mxPoint x="-18" y="-15" as="offset" />
          </mxGeometry>
        </mxCell>
        <mxCell id="nIFLo1w1Xrx-wlBWvT0a-63" value="c3po:isOperationalizedBy" style="edgeStyle=orthogonalEdgeStyle;rounded=0;orthogonalLoop=1;jettySize=auto;html=1;exitX=0.8;exitY=0;exitDx=0;exitDy=0;entryX=0.1;entryY=0;entryDx=0;entryDy=0;startArrow=oval;startFill=1;endArrow=classic;endFill=1;" parent="1" source="_TGrfCJ_9bRbSxPVq6Wt-2" target="nIFLo1w1Xrx-wlBWvT0a-29" edge="1">
          <mxGeometry relative="1" as="geometry">
            <Array as="points">
              <mxPoint x="222" y="200" />
              <mxPoint x="410" y="200" />
            </Array>
          </mxGeometry>
        </mxCell>
        <mxCell id="nIFLo1w1Xrx-wlBWvT0a-64" value="c3po:operationalizes" style="edgeStyle=orthogonalEdgeStyle;rounded=0;orthogonalLoop=1;jettySize=auto;html=1;startArrow=oval;startFill=1;endArrow=classic;endFill=1;exitX=0.1;exitY=1;exitDx=0;exitDy=0;entryX=0.8;entryY=1;entryDx=0;entryDy=0;" parent="1" source="nIFLo1w1Xrx-wlBWvT0a-29" target="_TGrfCJ_9bRbSxPVq6Wt-2" edge="1">
          <mxGeometry relative="1" as="geometry">
            <mxPoint x="320" y="280" as="sourcePoint" />
            <mxPoint x="140" y="260" as="targetPoint" />
            <Array as="points">
              <mxPoint x="410" y="280" />
              <mxPoint x="222" y="280" />
            </Array>
          </mxGeometry>
        </mxCell>
        <mxCell id="nIFLo1w1Xrx-wlBWvT0a-69" value="" style="endArrow=open;html=1;fontColor=#000099;endFill=0;dashed=1;endSize=8;startArrow=open;startFill=0;startSize=8;arcSize=0;rounded=0;" parent="1" edge="1">
          <mxGeometry width="50" height="50" relative="1" as="geometry">
            <mxPoint x="360" y="210" as="sourcePoint" />
            <mxPoint x="360" y="270" as="targetPoint" />
          </mxGeometry>
        </mxCell>
        <mxCell id="nIFLo1w1Xrx-wlBWvT0a-70" value="&amp;lt;&amp;lt;owl:inverseOf&amp;gt;&amp;gt;" style="text;html=1;align=center;verticalAlign=middle;resizable=0;points=[];fontColor=#000000;labelBackgroundColor=#ffffff;" parent="nIFLo1w1Xrx-wlBWvT0a-69" vertex="1" connectable="0">
          <mxGeometry x="-0.3277" relative="1" as="geometry">
            <mxPoint x="-20" y="8" as="offset" />
          </mxGeometry>
        </mxCell>
        <mxCell id="nIFLo1w1Xrx-wlBWvT0a-76" value="c3po:OrCheck" style="rounded=0;whiteSpace=wrap;html=1;snapToPoint=1;points=[[0.1,0],[0.2,0],[0.3,0],[0.4,0],[0.5,0],[0.6,0],[0.7,0],[0.8,0],[0.9,0],[0,0.1],[0,0.3],[0,0.5],[0,0.7],[0,0.9],[0.1,1],[0.2,1],[0.3,1],[0.4,1],[0.5,1],[0.6,1],[0.7,1],[0.8,1],[0.9,1],[1,0.1],[1,0.3],[1,0.5],[1,0.7],[1,0.9]];fillColor=#ffe6cc;strokeColor=#d79b00;" parent="1" vertex="1">
          <mxGeometry x="180" y="687" width="150" height="30" as="geometry" />
        </mxCell>
        <mxCell id="nIFLo1w1Xrx-wlBWvT0a-77" value="c3po:hasSubCheck (1..N)" style="rounded=0;whiteSpace=wrap;html=1;snapToPoint=1;points=[[0.1,0],[0.2,0],[0.3,0],[0.4,0],[0.5,0],[0.6,0],[0.7,0],[0.8,0],[0.9,0],[0,0.1],[0,0.3],[0,0.5],[0,0.7],[0,0.9],[0.1,1],[0.2,1],[0.3,1],[0.4,1],[0.5,1],[0.6,1],[0.7,1],[0.8,1],[0.9,1],[1,0.1],[1,0.3],[1,0.5],[1,0.7],[1,0.9]];dashed=1;fillColor=#ffe6cc;strokeColor=#d79b00;" parent="1" vertex="1">
          <mxGeometry x="180" y="717" width="150" height="30" as="geometry" />
        </mxCell>
        <mxCell id="nIFLo1w1Xrx-wlBWvT0a-80" value="(some) c3po:forDesign" style="edgeStyle=orthogonalEdgeStyle;rounded=0;orthogonalLoop=1;jettySize=auto;html=1;exitX=1;exitY=0.5;exitDx=0;exitDy=0;entryX=0;entryY=0.5;entryDx=0;entryDy=0;startArrow=none;startFill=0;endArrow=classic;endFill=1;" parent="1" source="nIFLo1w1Xrx-wlBWvT0a-78" target="nIFLo1w1Xrx-wlBWvT0a-40" edge="1">
          <mxGeometry relative="1" as="geometry" />
        </mxCell>
        <mxCell id="nIFLo1w1Xrx-wlBWvT0a-95" style="edgeStyle=orthogonalEdgeStyle;rounded=0;orthogonalLoop=1;jettySize=auto;html=1;exitX=0;exitY=0.5;exitDx=0;exitDy=0;startArrow=none;startFill=0;endArrow=block;endFill=0;" parent="1" source="nIFLo1w1Xrx-wlBWvT0a-78" edge="1">
          <mxGeometry relative="1" as="geometry">
            <mxPoint x="420" y="260" as="targetPoint" />
          </mxGeometry>
        </mxCell>
        <mxCell id="nIFLo1w1Xrx-wlBWvT0a-78" value="c3po:CheckForConcept" style="rounded=0;whiteSpace=wrap;html=1;snapToPoint=1;points=[[0.1,0],[0.2,0],[0.3,0],[0.4,0],[0.5,0],[0.6,0],[0.7,0],[0.8,0],[0.9,0],[0,0.1],[0,0.3],[0,0.5],[0,0.7],[0,0.9],[0.1,1],[0.2,1],[0.3,1],[0.4,1],[0.5,1],[0.6,1],[0.7,1],[0.8,1],[0.9,1],[1,0.1],[1,0.3],[1,0.5],[1,0.7],[1,0.9]];fillColor=#fff2cc;strokeColor=#d6b656;" parent="1" vertex="1">
          <mxGeometry x="440" y="540" width="150" height="30" as="geometry" />
        </mxCell>
        <mxCell id="nIFLo1w1Xrx-wlBWvT0a-94" style="edgeStyle=orthogonalEdgeStyle;rounded=0;orthogonalLoop=1;jettySize=auto;html=1;exitX=0;exitY=0.5;exitDx=0;exitDy=0;startArrow=none;startFill=0;endArrow=block;endFill=0;" parent="1" source="nIFLo1w1Xrx-wlBWvT0a-81" edge="1">
          <mxGeometry relative="1" as="geometry">
            <mxPoint x="420" y="260" as="targetPoint" />
          </mxGeometry>
        </mxCell>
        <mxCell id="nIFLo1w1Xrx-wlBWvT0a-81" value="c3po:CertificateCheck" style="rounded=0;whiteSpace=wrap;html=1;snapToPoint=1;points=[[0.1,0],[0.2,0],[0.3,0],[0.4,0],[0.5,0],[0.6,0],[0.7,0],[0.8,0],[0.9,0],[0,0.1],[0,0.3],[0,0.5],[0,0.7],[0,0.9],[0.1,1],[0.2,1],[0.3,1],[0.4,1],[0.5,1],[0.6,1],[0.7,1],[0.8,1],[0.9,1],[1,0.1],[1,0.3],[1,0.5],[1,0.7],[1,0.9]];fillColor=#fff2cc;strokeColor=#d6b656;" parent="1" vertex="1">
          <mxGeometry x="440" y="600" width="150" height="30" as="geometry" />
        </mxCell>
        <mxCell id="nIFLo1w1Xrx-wlBWvT0a-93" style="edgeStyle=orthogonalEdgeStyle;rounded=0;orthogonalLoop=1;jettySize=auto;html=1;startArrow=none;startFill=0;endArrow=block;endFill=0;" parent="1" edge="1">
          <mxGeometry relative="1" as="geometry">
            <mxPoint x="420" y="260" as="targetPoint" />
            <mxPoint x="420" y="760" as="sourcePoint" />
            <Array as="points">
              <mxPoint x="420" y="760" />
            </Array>
          </mxGeometry>
        </mxCell>
        <mxCell id="nIFLo1w1Xrx-wlBWvT0a-82" value="c3po:ComponentCheck" style="rounded=0;whiteSpace=wrap;html=1;snapToPoint=1;points=[[0.1,0],[0.2,0],[0.3,0],[0.4,0],[0.5,0],[0.6,0],[0.7,0],[0.8,0],[0.9,0],[0,0.1],[0,0.3],[0,0.5],[0,0.7],[0,0.9],[0.1,1],[0.2,1],[0.3,1],[0.4,1],[0.5,1],[0.6,1],[0.7,1],[0.8,1],[0.9,1],[1,0.1],[1,0.3],[1,0.5],[1,0.7],[1,0.9]];fillColor=#fff2cc;strokeColor=#d6b656;" parent="1" vertex="1">
          <mxGeometry x="414" y="760" width="246" height="30" as="geometry" />
        </mxCell>
        <mxCell id="nIFLo1w1Xrx-wlBWvT0a-92" style="edgeStyle=orthogonalEdgeStyle;rounded=0;orthogonalLoop=1;jettySize=auto;html=1;exitX=1;exitY=0.5;exitDx=0;exitDy=0;startArrow=none;startFill=0;endArrow=block;endFill=0;" parent="1" source="nIFLo1w1Xrx-wlBWvT0a-84" edge="1">
          <mxGeometry relative="1" as="geometry">
            <mxPoint x="420" y="260" as="targetPoint" />
            <Array as="points">
              <mxPoint x="510" y="395" />
              <mxPoint x="510" y="360" />
              <mxPoint x="421" y="360" />
            </Array>
          </mxGeometry>
        </mxCell>
        <mxCell id="nIFLo1w1Xrx-wlBWvT0a-84" value="c3po:DeclarativeCheck" style="rounded=0;whiteSpace=wrap;html=1;snapToPoint=1;points=[[0.1,0],[0.2,0],[0.3,0],[0.4,0],[0.5,0],[0.6,0],[0.7,0],[0.8,0],[0.9,0],[0,0.1],[0,0.3],[0,0.5],[0,0.7],[0,0.9],[0.1,1],[0.2,1],[0.3,1],[0.4,1],[0.5,1],[0.6,1],[0.7,1],[0.8,1],[0.9,1],[1,0.1],[1,0.3],[1,0.5],[1,0.7],[1,0.9]];fillColor=#fff2cc;strokeColor=#d6b656;" parent="1" vertex="1">
          <mxGeometry x="457" y="379.5" width="150" height="30" as="geometry" />
        </mxCell>
        <mxCell id="nIFLo1w1Xrx-wlBWvT0a-86" style="edgeStyle=orthogonalEdgeStyle;rounded=0;orthogonalLoop=1;jettySize=auto;html=1;exitX=0.837;exitY=0.046;exitDx=0;exitDy=0;entryX=0.5;entryY=1;entryDx=0;entryDy=0;startArrow=none;startFill=0;endArrow=block;endFill=0;exitPerimeter=0;" parent="1" source="nIFLo1w1Xrx-wlBWvT0a-85" target="nIFLo1w1Xrx-wlBWvT0a-90" edge="1">
          <mxGeometry relative="1" as="geometry">
            <Array as="points">
              <mxPoint x="580" y="481" />
              <mxPoint x="580" y="460" />
              <mxPoint x="532" y="460" />
            </Array>
          </mxGeometry>
        </mxCell>
        <mxCell id="nIFLo1w1Xrx-wlBWvT0a-85" value="c3po:IDSCheck" style="rounded=0;whiteSpace=wrap;html=1;snapToPoint=1;points=[[0.1,0],[0.2,0],[0.3,0],[0.4,0],[0.5,0],[0.6,0],[0.7,0],[0.8,0],[0.9,0],[0,0.1],[0,0.3],[0,0.5],[0,0.7],[0,0.9],[0.1,1],[0.2,1],[0.3,1],[0.4,1],[0.5,1],[0.6,1],[0.7,1],[0.8,1],[0.9,1],[1,0.1],[1,0.3],[1,0.5],[1,0.7],[1,0.9]];fillColor=#fff2cc;strokeColor=#d6b656;" parent="1" vertex="1">
          <mxGeometry x="510" y="480" width="150" height="30" as="geometry" />
        </mxCell>
        <mxCell id="nIFLo1w1Xrx-wlBWvT0a-87" value="c3po:ProceduralCheck" style="rounded=0;whiteSpace=wrap;html=1;snapToPoint=1;points=[[0.1,0],[0.2,0],[0.3,0],[0.4,0],[0.5,0],[0.6,0],[0.7,0],[0.8,0],[0.9,0],[0,0.1],[0,0.3],[0,0.5],[0,0.7],[0,0.9],[0.1,1],[0.2,1],[0.3,1],[0.4,1],[0.5,1],[0.6,1],[0.7,1],[0.8,1],[0.9,1],[1,0.1],[1,0.3],[1,0.5],[1,0.7],[1,0.9]];fillColor=#fff2cc;strokeColor=#d6b656;" parent="1" vertex="1">
          <mxGeometry x="453" y="649" width="150" height="30" as="geometry" />
        </mxCell>
        <mxCell id="nIFLo1w1Xrx-wlBWvT0a-88" value="c3po:hasText" style="rounded=0;whiteSpace=wrap;html=1;snapToPoint=1;points=[[0.1,0],[0.2,0],[0.3,0],[0.4,0],[0.5,0],[0.6,0],[0.7,0],[0.8,0],[0.9,0],[0,0.1],[0,0.3],[0,0.5],[0,0.7],[0,0.9],[0.1,1],[0.2,1],[0.3,1],[0.4,1],[0.5,1],[0.6,1],[0.7,1],[0.8,1],[0.9,1],[1,0.1],[1,0.3],[1,0.5],[1,0.7],[1,0.9]];dashed=1;fillColor=#fff2cc;strokeColor=#d6b656;" parent="1" vertex="1">
          <mxGeometry x="454" y="679" width="147" height="30" as="geometry" />
        </mxCell>
        <mxCell id="nIFLo1w1Xrx-wlBWvT0a-90" value="c3po:hasText" style="rounded=0;whiteSpace=wrap;html=1;snapToPoint=1;points=[[0.1,0],[0.2,0],[0.3,0],[0.4,0],[0.5,0],[0.6,0],[0.7,0],[0.8,0],[0.9,0],[0,0.1],[0,0.3],[0,0.5],[0,0.7],[0,0.9],[0.1,1],[0.2,1],[0.3,1],[0.4,1],[0.5,1],[0.6,1],[0.7,1],[0.8,1],[0.9,1],[1,0.1],[1,0.3],[1,0.5],[1,0.7],[1,0.9]];dashed=1;fillColor=#fff2cc;strokeColor=#d6b656;" parent="1" vertex="1">
          <mxGeometry x="457" y="409.5" width="150" height="30" as="geometry" />
        </mxCell>
        <mxCell id="nIFLo1w1Xrx-wlBWvT0a-91" style="edgeStyle=orthogonalEdgeStyle;rounded=0;orthogonalLoop=1;jettySize=auto;html=1;entryX=0.2;entryY=1;entryDx=0;entryDy=0;startArrow=none;startFill=0;endArrow=block;endFill=0;" parent="1" target="nIFLo1w1Xrx-wlBWvT0a-29" edge="1">
          <mxGeometry relative="1" as="geometry">
            <mxPoint x="450" y="670" as="sourcePoint" />
            <mxPoint x="590" y="705" as="targetPoint" />
            <Array as="points">
              <mxPoint x="444" y="700" />
              <mxPoint x="420" y="700" />
            </Array>
          </mxGeometry>
        </mxCell>
        <mxCell id="nIFLo1w1Xrx-wlBWvT0a-100" style="edgeStyle=orthogonalEdgeStyle;rounded=0;orthogonalLoop=1;jettySize=auto;html=1;exitX=0;exitY=0.5;exitDx=0;exitDy=0;entryX=0.4;entryY=1;entryDx=0;entryDy=0;startArrow=none;startFill=0;endArrow=block;endFill=0;" parent="1" source="nIFLo1w1Xrx-wlBWvT0a-98" target="nIFLo1w1Xrx-wlBWvT0a-28" edge="1">
          <mxGeometry relative="1" as="geometry" />
        </mxCell>
        <mxCell id="nIFLo1w1Xrx-wlBWvT0a-98" value="c3po:Microservice" style="rounded=0;whiteSpace=wrap;html=1;snapToPoint=1;points=[[0.1,0],[0.2,0],[0.3,0],[0.4,0],[0.5,0],[0.6,0],[0.7,0],[0.8,0],[0.9,0],[0,0.1],[0,0.3],[0,0.5],[0,0.7],[0,0.9],[0.1,1],[0.2,1],[0.3,1],[0.4,1],[0.5,1],[0.6,1],[0.7,1],[0.8,1],[0.9,1],[1,0.1],[1,0.3],[1,0.5],[1,0.7],[1,0.9]];fillColor=#d5e8d4;strokeColor=#82b366;" parent="1" vertex="1">
          <mxGeometry x="700" y="320" width="140" height="30" as="geometry" />
        </mxCell>
        <mxCell id="nIFLo1w1Xrx-wlBWvT0a-101" style="edgeStyle=orthogonalEdgeStyle;rounded=0;orthogonalLoop=1;jettySize=auto;html=1;exitX=0;exitY=0.5;exitDx=0;exitDy=0;entryX=0.4;entryY=1;entryDx=0;entryDy=0;startArrow=none;startFill=0;endArrow=block;endFill=0;" parent="1" source="nIFLo1w1Xrx-wlBWvT0a-99" target="nIFLo1w1Xrx-wlBWvT0a-28" edge="1">
          <mxGeometry relative="1" as="geometry" />
        </mxCell>
        <mxCell id="nIFLo1w1Xrx-wlBWvT0a-99" value="c3po:Software" style="rounded=0;whiteSpace=wrap;html=1;snapToPoint=1;points=[[0.1,0],[0.2,0],[0.3,0],[0.4,0],[0.5,0],[0.6,0],[0.7,0],[0.8,0],[0.9,0],[0,0.1],[0,0.3],[0,0.5],[0,0.7],[0,0.9],[0.1,1],[0.2,1],[0.3,1],[0.4,1],[0.5,1],[0.6,1],[0.7,1],[0.8,1],[0.9,1],[1,0.1],[1,0.3],[1,0.5],[1,0.7],[1,0.9]];fillColor=#d5e8d4;strokeColor=#82b366;" parent="1" vertex="1">
          <mxGeometry x="700" y="360" width="140" height="30" as="geometry" />
        </mxCell>
        <mxCell id="nIFLo1w1Xrx-wlBWvT0a-105" value="" style="endArrow=open;html=1;fontColor=#000099;endFill=0;dashed=1;endSize=8;exitX=0;exitY=0.5;exitDx=0;exitDy=0;rounded=0;entryX=0.1;entryY=1;entryDx=0;entryDy=0;" parent="1" source="nIFLo1w1Xrx-wlBWvT0a-51" target="nIFLo1w1Xrx-wlBWvT0a-49" edge="1">
          <mxGeometry width="50" height="50" relative="1" as="geometry">
            <mxPoint x="1097" y="725" as="sourcePoint" />
            <mxPoint x="1070" y="680" as="targetPoint" />
            <Array as="points">
              <mxPoint x="1066" y="745" />
            </Array>
          </mxGeometry>
        </mxCell>
        <mxCell id="nIFLo1w1Xrx-wlBWvT0a-107" value="" style="endArrow=open;html=1;fontColor=#000099;endFill=0;dashed=1;endSize=8;exitX=0;exitY=0.5;exitDx=0;exitDy=0;rounded=0;entryX=0.1;entryY=1;entryDx=0;entryDy=0;" parent="1" source="nIFLo1w1Xrx-wlBWvT0a-54" target="nIFLo1w1Xrx-wlBWvT0a-49" edge="1">
          <mxGeometry width="50" height="50" relative="1" as="geometry">
            <mxPoint x="1060" y="837.5" as="sourcePoint" />
            <mxPoint x="1039" y="772.5" as="targetPoint" />
            <Array as="points">
              <mxPoint x="1066" y="835" />
            </Array>
          </mxGeometry>
        </mxCell>
        <mxCell id="nIFLo1w1Xrx-wlBWvT0a-108" value="" style="endArrow=open;html=1;fontColor=#000099;endFill=0;dashed=1;endSize=8;exitX=0;exitY=0.5;exitDx=0;exitDy=0;rounded=0;entryX=0.1;entryY=1;entryDx=0;entryDy=0;" parent="1" source="nIFLo1w1Xrx-wlBWvT0a-53" target="nIFLo1w1Xrx-wlBWvT0a-49" edge="1">
          <mxGeometry width="50" height="50" relative="1" as="geometry">
            <mxPoint x="1097" y="845" as="sourcePoint" />
            <mxPoint x="1049" y="782.5" as="targetPoint" />
            <Array as="points">
              <mxPoint x="1066" y="805" />
            </Array>
          </mxGeometry>
        </mxCell>
        <mxCell id="nIFLo1w1Xrx-wlBWvT0a-109" value="" style="endArrow=open;html=1;fontColor=#000099;endFill=0;dashed=1;endSize=8;exitX=0;exitY=0.5;exitDx=0;exitDy=0;rounded=0;entryX=0.1;entryY=1;entryDx=0;entryDy=0;" parent="1" source="nIFLo1w1Xrx-wlBWvT0a-52" target="nIFLo1w1Xrx-wlBWvT0a-49" edge="1">
          <mxGeometry width="50" height="50" relative="1" as="geometry">
            <mxPoint x="1097" y="815" as="sourcePoint" />
            <mxPoint x="1059" y="792.5" as="targetPoint" />
            <Array as="points">
              <mxPoint x="1066" y="775" />
            </Array>
          </mxGeometry>
        </mxCell>
        <mxCell id="nIFLo1w1Xrx-wlBWvT0a-22" value="c3po:Design" style="rounded=0;whiteSpace=wrap;html=1;snapToPoint=1;points=[[0.1,0],[0.2,0],[0.3,0],[0.4,0],[0.5,0],[0.6,0],[0.7,0],[0.8,0],[0.9,0],[0,0.1],[0,0.3],[0,0.5],[0,0.7],[0,0.9],[0.1,1],[0.2,1],[0.3,1],[0.4,1],[0.5,1],[0.6,1],[0.7,1],[0.8,1],[0.9,1],[1,0.1],[1,0.3],[1,0.5],[1,0.7],[1,0.9]];fillColor=#e1d5e7;strokeColor=#9673a6;" parent="1" vertex="1">
          <mxGeometry x="860" y="440" width="130" height="30" as="geometry" />
        </mxCell>
        <mxCell id="nIFLo1w1Xrx-wlBWvT0a-115" value="&lt;div&gt;&amp;lt;&amp;lt;owl:ObjectProperty&amp;gt;&amp;gt; c3po:checked&lt;br&gt;&lt;/div&gt;" style="rhombus;whiteSpace=wrap;html=1;" parent="1" vertex="1">
          <mxGeometry x="992.4499999999999" y="142.7" width="180" height="75" as="geometry" />
        </mxCell>
        <mxCell id="nIFLo1w1Xrx-wlBWvT0a-116" value="&lt;div&gt;&amp;lt;&amp;lt;owl:ObjectProperty&amp;gt;&amp;gt; c3po:satisfied&lt;br&gt;&lt;/div&gt;" style="rhombus;whiteSpace=wrap;html=1;" parent="1" vertex="1">
          <mxGeometry x="902.4499999999999" y="250.2" width="180" height="75" as="geometry" />
        </mxCell>
        <mxCell id="nIFLo1w1Xrx-wlBWvT0a-117" value="" style="endArrow=open;html=1;fontColor=#000099;endFill=0;dashed=1;entryX=0.5;entryY=1;entryDx=0;entryDy=0;endSize=8;rounded=0;" parent="1" source="nIFLo1w1Xrx-wlBWvT0a-116" target="nIFLo1w1Xrx-wlBWvT0a-115" edge="1">
          <mxGeometry width="50" height="50" relative="1" as="geometry">
            <mxPoint x="792.4499999999999" y="210.7" as="sourcePoint" />
            <mxPoint x="792.4499999999999" y="140.7" as="targetPoint" />
            <Array as="points">
              <mxPoint x="1082.45" y="252.7" />
            </Array>
          </mxGeometry>
        </mxCell>
        <mxCell id="nIFLo1w1Xrx-wlBWvT0a-119" value="" style="endArrow=open;html=1;fontColor=#000099;endFill=0;dashed=1;entryX=1;entryY=0.1;entryDx=0;entryDy=0;endSize=8;rounded=0;exitX=0;exitY=0;exitDx=0;exitDy=0;" parent="1" source="nIFLo1w1Xrx-wlBWvT0a-115" target="nIFLo1w1Xrx-wlBWvT0a-32" edge="1">
          <mxGeometry width="50" height="50" relative="1" as="geometry">
            <mxPoint x="950" y="117.5" as="sourcePoint" />
            <mxPoint x="910" y="92.5" as="targetPoint" />
            <Array as="points">
              <mxPoint x="990" y="133" />
            </Array>
          </mxGeometry>
        </mxCell>
        <mxCell id="nIFLo1w1Xrx-wlBWvT0a-120" value="&amp;lt;&amp;lt;rdfs:domain&amp;gt;&amp;gt;" style="text;html=1;align=center;verticalAlign=middle;resizable=0;points=[];fontColor=#000000;labelBackgroundColor=#ffffff;" parent="nIFLo1w1Xrx-wlBWvT0a-119" vertex="1" connectable="0">
          <mxGeometry x="-0.3277" relative="1" as="geometry">
            <mxPoint x="-44" as="offset" />
          </mxGeometry>
        </mxCell>
        <mxCell id="nIFLo1w1Xrx-wlBWvT0a-121" value="&lt;div&gt;&amp;lt;&amp;lt;owl:ObjectProperty&amp;gt;&amp;gt; c3po:unsatisfied&lt;br&gt;&lt;/div&gt;" style="rhombus;whiteSpace=wrap;html=1;" parent="1" vertex="1">
          <mxGeometry x="1102.45" y="250.2" width="180" height="75" as="geometry" />
        </mxCell>
        <mxCell id="nIFLo1w1Xrx-wlBWvT0a-122" value="" style="endArrow=open;html=1;fontColor=#000099;endFill=0;dashed=1;endSize=8;rounded=0;exitX=0;exitY=0;exitDx=0;exitDy=0;entryX=0.5;entryY=1;entryDx=0;entryDy=0;" parent="1" source="nIFLo1w1Xrx-wlBWvT0a-121" target="nIFLo1w1Xrx-wlBWvT0a-115" edge="1">
          <mxGeometry width="50" height="50" relative="1" as="geometry">
            <mxPoint x="1049.0017241379312" y="279.5965517241381" as="sourcePoint" />
            <mxPoint x="1082.45" y="222.7" as="targetPoint" />
            <Array as="points">
              <mxPoint x="1082.45" y="252.7" />
            </Array>
          </mxGeometry>
        </mxCell>
        <mxCell id="nIFLo1w1Xrx-wlBWvT0a-123" value="&amp;lt;&amp;lt;rdfs:subPropertyOf&amp;gt;&amp;gt;" style="text;html=1;align=center;verticalAlign=middle;resizable=0;points=[];fontColor=#000000;labelBackgroundColor=#ffffff;" parent="nIFLo1w1Xrx-wlBWvT0a-122" vertex="1" connectable="0">
          <mxGeometry x="-0.3277" relative="1" as="geometry">
            <mxPoint x="-32" y="-18" as="offset" />
          </mxGeometry>
        </mxCell>
        <mxCell id="nIFLo1w1Xrx-wlBWvT0a-124" value="" style="endArrow=classic;html=1;endSize=8;arcSize=0;rounded=0;startArrow=none;startFill=0;exitX=1;exitY=0.3;exitDx=0;exitDy=0;" parent="1" source="nIFLo1w1Xrx-wlBWvT0a-32" edge="1">
          <mxGeometry width="50" height="50" relative="1" as="geometry">
            <mxPoint x="750" y="150" as="sourcePoint" />
            <mxPoint x="880" y="440" as="targetPoint" />
            <Array as="points">
              <mxPoint x="700" y="139" />
              <mxPoint x="880" y="320" />
            </Array>
          </mxGeometry>
        </mxCell>
        <mxCell id="nIFLo1w1Xrx-wlBWvT0a-128" value="" style="endArrow=classic;html=1;endSize=8;arcSize=0;rounded=0;startArrow=none;startFill=0;exitX=1;exitY=0.5;exitDx=0;exitDy=0;entryX=0.149;entryY=-0.023;entryDx=0;entryDy=0;entryPerimeter=0;" parent="1" source="nIFLo1w1Xrx-wlBWvT0a-28" target="nIFLo1w1Xrx-wlBWvT0a-22" edge="1">
          <mxGeometry width="50" height="50" relative="1" as="geometry">
            <mxPoint x="680" y="149" as="sourcePoint" />
            <mxPoint x="870" y="440" as="targetPoint" />
            <Array as="points">
              <mxPoint x="845" y="285" />
              <mxPoint x="880" y="320" />
            </Array>
          </mxGeometry>
        </mxCell>
        <mxCell id="nIFLo1w1Xrx-wlBWvT0a-129" value="&lt;div&gt;c3po:forDesign&lt;br&gt;&lt;/div&gt;" style="text;html=1;align=center;verticalAlign=middle;resizable=0;points=[];labelBackgroundColor=#ffffff;" parent="nIFLo1w1Xrx-wlBWvT0a-128" vertex="1" connectable="0">
          <mxGeometry x="-0.1269" relative="1" as="geometry">
            <mxPoint x="34" y="52" as="offset" />
          </mxGeometry>
        </mxCell>
        <mxCell id="nIFLo1w1Xrx-wlBWvT0a-130" value="(all) c3po:hasDataRequirement: c3po:hasReport:" style="rounded=0;whiteSpace=wrap;html=1;snapToPoint=1;points=[[0.1,0],[0.2,0],[0.3,0],[0.4,0],[0.5,0],[0.6,0],[0.7,0],[0.8,0],[0.9,0],[0,0.1],[0,0.3],[0,0.5],[0,0.7],[0,0.9],[0.1,1],[0.2,1],[0.3,1],[0.4,1],[0.5,1],[0.6,1],[0.7,1],[0.8,1],[0.9,1],[1,0.1],[1,0.3],[1,0.5],[1,0.7],[1,0.9]];fillColor=#A9C4EB;strokeColor=#6c8ebf;" parent="1" vertex="1">
          <mxGeometry x="520" y="160" width="150" height="40" as="geometry" />
        </mxCell>
        <mxCell id="nIFLo1w1Xrx-wlBWvT0a-134" value="c3po:hasDesign" style="edgeStyle=orthogonalEdgeStyle;rounded=0;orthogonalLoop=1;jettySize=auto;html=1;startArrow=none;startFill=0;endArrow=classic;endFill=1;exitX=0;exitY=0.1;exitDx=0;exitDy=0;" parent="1" source="nIFLo1w1Xrx-wlBWvT0a-2" edge="1">
          <mxGeometry x="-0.5631" relative="1" as="geometry">
            <mxPoint x="1300" y="950" as="sourcePoint" />
            <mxPoint x="920" y="470" as="targetPoint" />
            <Array as="points">
              <mxPoint x="920" y="953" />
              <mxPoint x="920" y="470" />
            </Array>
            <mxPoint as="offset" />
          </mxGeometry>
        </mxCell>
        <mxCell id="nIFLo1w1Xrx-wlBWvT0a-135" value="(all) c3po:forDesign: (all) (inverseOf) c3po:hasDesign: c3po:FeatureOfInterest" style="rounded=0;whiteSpace=wrap;html=1;snapToPoint=1;points=[[0.1,0],[0.2,0],[0.3,0],[0.4,0],[0.5,0],[0.6,0],[0.7,0],[0.8,0],[0.9,0],[0,0.1],[0,0.3],[0,0.5],[0,0.7],[0,0.9],[0.1,1],[0.2,1],[0.3,1],[0.4,1],[0.5,1],[0.6,1],[0.7,1],[0.8,1],[0.9,1],[1,0.1],[1,0.3],[1,0.5],[1,0.7],[1,0.9]];fillColor=#fff2cc;strokeColor=#d6b656;" parent="1" vertex="1">
          <mxGeometry x="414" y="790" width="246" height="30" as="geometry" />
        </mxCell>
        <mxCell id="nIFLo1w1Xrx-wlBWvT0a-138" value="" style="triangle;whiteSpace=wrap;html=1;rotation=-90;fillColor=#fad7ac;strokeColor=#b46504;" parent="1" vertex="1">
          <mxGeometry x="1432.5" y="542.5" width="75" height="90" as="geometry" />
        </mxCell>
        <mxCell id="nIFLo1w1Xrx-wlBWvT0a-139" value="SKOS hierarchy" style="text;html=1;strokeColor=none;fillColor=none;align=center;verticalAlign=middle;whiteSpace=wrap;rounded=0;" parent="1" vertex="1">
          <mxGeometry x="1440" y="590" width="60" height="30" as="geometry" />
        </mxCell>
        <mxCell id="nIFLo1w1Xrx-wlBWvT0a-140" value="" style="triangle;whiteSpace=wrap;html=1;rotation=-90;fillColor=#e1d5e7;strokeColor=#9673a6;" parent="1" vertex="1">
          <mxGeometry x="827" y="560" width="80" height="90" as="geometry" />
        </mxCell>
        <mxCell id="nIFLo1w1Xrx-wlBWvT0a-141" value="SKOS hierarchies" style="text;html=1;align=center;verticalAlign=middle;whiteSpace=wrap;rounded=0;strokeColor=none;" parent="1" vertex="1">
          <mxGeometry x="840" y="610" width="60" height="30" as="geometry" />
        </mxCell>
        <mxCell id="nIFLo1w1Xrx-wlBWvT0a-150" style="edgeStyle=orthogonalEdgeStyle;rounded=0;orthogonalLoop=1;jettySize=auto;html=1;exitX=1;exitY=0.5;exitDx=0;exitDy=0;entryX=-0.002;entryY=0.64;entryDx=0;entryDy=0;startArrow=none;startFill=0;endArrow=block;endFill=0;entryPerimeter=0;" parent="1" source="nIFLo1w1Xrx-wlBWvT0a-144" target="nIFLo1w1Xrx-wlBWvT0a-140" edge="1">
          <mxGeometry relative="1" as="geometry" />
        </mxCell>
        <mxCell id="nIFLo1w1Xrx-wlBWvT0a-144" value="c3po:IfcElementType" style="rounded=0;whiteSpace=wrap;html=1;snapToPoint=1;points=[[0.1,0],[0.2,0],[0.3,0],[0.4,0],[0.5,0],[0.6,0],[0.7,0],[0.8,0],[0.9,0],[0,0.1],[0,0.3],[0,0.5],[0,0.7],[0,0.9],[0.1,1],[0.2,1],[0.3,1],[0.4,1],[0.5,1],[0.6,1],[0.7,1],[0.8,1],[0.9,1],[1,0.1],[1,0.3],[1,0.5],[1,0.7],[1,0.9]];fillColor=#e1d5e7;strokeColor=#9673a6;" parent="1" vertex="1">
          <mxGeometry x="722" y="660" width="138" height="30" as="geometry" />
        </mxCell>
        <mxCell id="nIFLo1w1Xrx-wlBWvT0a-151" value="..." style="text;html=1;strokeColor=none;fillColor=none;align=center;verticalAlign=middle;whiteSpace=wrap;rounded=0;fontStyle=1" parent="1" vertex="1">
          <mxGeometry x="847" y="680" width="60" height="30" as="geometry" />
        </mxCell>
        <mxCell id="_TGrfCJ_9bRbSxPVq6Wt-5" style="edgeStyle=orthogonalEdgeStyle;rounded=0;orthogonalLoop=1;jettySize=auto;html=1;exitX=0.6;exitY=0;exitDx=0;exitDy=0;entryX=0.6;entryY=1;entryDx=0;entryDy=0;endArrow=block;endFill=0;" parent="1" source="_TGrfCJ_9bRbSxPVq6Wt-2" edge="1">
          <mxGeometry relative="1" as="geometry">
            <mxPoint x="184" y="160" as="targetPoint" />
          </mxGeometry>
        </mxCell>
        <mxCell id="_TGrfCJ_9bRbSxPVq6Wt-2" value="c3po:DocumentSubdivision" style="rounded=0;whiteSpace=wrap;html=1;snapToPoint=1;points=[[0.1,0],[0.2,0],[0.3,0],[0.4,0],[0.5,0],[0.6,0],[0.7,0],[0.8,0],[0.9,0],[0,0.1],[0,0.3],[0,0.5],[0,0.7],[0,0.9],[0.1,1],[0.2,1],[0.3,1],[0.4,1],[0.5,1],[0.6,1],[0.7,1],[0.8,1],[0.9,1],[1,0.1],[1,0.3],[1,0.5],[1,0.7],[1,0.9]];fillColor=#fff2cc;strokeColor=#d6b656;" parent="1" vertex="1">
          <mxGeometry x="70" y="230" width="190" height="30" as="geometry" />
        </mxCell>
        <mxCell id="_TGrfCJ_9bRbSxPVq6Wt-3" value="c3po:has_part" style="edgeStyle=orthogonalEdgeStyle;rounded=0;orthogonalLoop=1;jettySize=auto;html=1;startArrow=oval;startFill=1;exitX=0.4;exitY=1;exitDx=0;exitDy=0;entryX=0.4;entryY=0;entryDx=0;entryDy=0;" parent="1" target="_TGrfCJ_9bRbSxPVq6Wt-2" edge="1">
          <mxGeometry relative="1" as="geometry">
            <mxPoint x="146" y="160" as="sourcePoint" />
            <mxPoint x="385" y="239.8" as="targetPoint" />
          </mxGeometry>
        </mxCell>
        <mxCell id="_TGrfCJ_9bRbSxPVq6Wt-9" value="c3po:CheckStatement" style="rounded=0;whiteSpace=wrap;html=1;snapToPoint=1;points=[[0.1,0],[0.2,0],[0.3,0],[0.4,0],[0.5,0],[0.6,0],[0.7,0],[0.8,0],[0.9,0],[0,0.1],[0,0.3],[0,0.5],[0,0.7],[0,0.9],[0.1,1],[0.2,1],[0.3,1],[0.4,1],[0.5,1],[0.6,1],[0.7,1],[0.8,1],[0.9,1],[1,0.1],[1,0.3],[1,0.5],[1,0.7],[1,0.9]];fillColor=#ffe6cc;strokeColor=#d79b00;" parent="1" vertex="1">
          <mxGeometry x="134" y="370" width="120" height="30" as="geometry" />
        </mxCell>
        <mxCell id="_TGrfCJ_9bRbSxPVq6Wt-15" value="c3po:forDocument" style="edgeStyle=orthogonalEdgeStyle;rounded=0;orthogonalLoop=1;jettySize=auto;html=1;entryX=1;entryY=0.1;entryDx=0;entryDy=0;endArrow=block;endFill=0;" parent="1" source="_TGrfCJ_9bRbSxPVq6Wt-10" target="h-KyKkrpE38Og0TT7BF3-2" edge="1">
          <mxGeometry relative="1" as="geometry">
            <mxPoint x="260" y="145" as="targetPoint" />
          </mxGeometry>
        </mxCell>
        <mxCell id="_TGrfCJ_9bRbSxPVq6Wt-10" value="c3po:LegalVerifier" style="rounded=0;whiteSpace=wrap;html=1;snapToPoint=1;points=[[0.1,0],[0.2,0],[0.3,0],[0.4,0],[0.5,0],[0.6,0],[0.7,0],[0.8,0],[0.9,0],[0,0.1],[0,0.3],[0,0.5],[0,0.7],[0,0.9],[0.1,1],[0.2,1],[0.3,1],[0.4,1],[0.5,1],[0.6,1],[0.7,1],[0.8,1],[0.9,1],[1,0.1],[1,0.3],[1,0.5],[1,0.7],[1,0.9]];fillColor=#d5e8d4;strokeColor=#82b366;" parent="1" vertex="1">
          <mxGeometry x="314" y="-60" width="100" height="30" as="geometry" />
        </mxCell>
        <mxCell id="_TGrfCJ_9bRbSxPVq6Wt-11" style="edgeStyle=orthogonalEdgeStyle;rounded=0;orthogonalLoop=1;jettySize=auto;html=1;exitX=0;exitY=0.5;exitDx=0;exitDy=0;entryX=0.4;entryY=1;entryDx=0;entryDy=0;startArrow=none;startFill=0;endArrow=block;endFill=0;" parent="1" source="_TGrfCJ_9bRbSxPVq6Wt-12" target="_TGrfCJ_9bRbSxPVq6Wt-10" edge="1">
          <mxGeometry relative="1" as="geometry" />
        </mxCell>
        <mxCell id="_TGrfCJ_9bRbSxPVq6Wt-12" value="c3po:StateVerifier" style="rounded=0;whiteSpace=wrap;html=1;snapToPoint=1;points=[[0.1,0],[0.2,0],[0.3,0],[0.4,0],[0.5,0],[0.6,0],[0.7,0],[0.8,0],[0.9,0],[0,0.1],[0,0.3],[0,0.5],[0,0.7],[0,0.9],[0.1,1],[0.2,1],[0.3,1],[0.4,1],[0.5,1],[0.6,1],[0.7,1],[0.8,1],[0.9,1],[1,0.1],[1,0.3],[1,0.5],[1,0.7],[1,0.9]];fillColor=#d5e8d4;strokeColor=#82b366;" parent="1" vertex="1">
          <mxGeometry x="374" y="-10" width="140" height="30" as="geometry" />
        </mxCell>
        <mxCell id="_TGrfCJ_9bRbSxPVq6Wt-13" style="edgeStyle=orthogonalEdgeStyle;rounded=0;orthogonalLoop=1;jettySize=auto;html=1;exitX=0;exitY=0.5;exitDx=0;exitDy=0;entryX=0.4;entryY=1;entryDx=0;entryDy=0;startArrow=none;startFill=0;endArrow=block;endFill=0;" parent="1" source="_TGrfCJ_9bRbSxPVq6Wt-14" target="_TGrfCJ_9bRbSxPVq6Wt-10" edge="1">
          <mxGeometry relative="1" as="geometry" />
        </mxCell>
        <mxCell id="_TGrfCJ_9bRbSxPVq6Wt-14" value="c3po:PrivateVerifier" style="rounded=0;whiteSpace=wrap;html=1;snapToPoint=1;points=[[0.1,0],[0.2,0],[0.3,0],[0.4,0],[0.5,0],[0.6,0],[0.7,0],[0.8,0],[0.9,0],[0,0.1],[0,0.3],[0,0.5],[0,0.7],[0,0.9],[0.1,1],[0.2,1],[0.3,1],[0.4,1],[0.5,1],[0.6,1],[0.7,1],[0.8,1],[0.9,1],[1,0.1],[1,0.3],[1,0.5],[1,0.7],[1,0.9]];fillColor=#d5e8d4;strokeColor=#82b366;" parent="1" vertex="1">
          <mxGeometry x="374" y="30" width="140" height="30" as="geometry" />
        </mxCell>
        <mxCell id="_TGrfCJ_9bRbSxPVq6Wt-16" value="" style="endArrow=classic;html=1;endSize=8;arcSize=0;rounded=0;startArrow=none;startFill=0;entryX=0;entryY=0.7;entryDx=0;entryDy=0;exitX=1;exitY=0.5;exitDx=0;exitDy=0;" parent="1" source="nIFLo1w1Xrx-wlBWvT0a-10" target="nIFLo1w1Xrx-wlBWvT0a-22" edge="1">
          <mxGeometry width="50" height="50" relative="1" as="geometry">
            <mxPoint x="510" y="261" as="sourcePoint" />
            <mxPoint x="870" y="465" as="targetPoint" />
            <Array as="points">
              <mxPoint x="580" y="325" />
              <mxPoint x="700" y="465" />
            </Array>
          </mxGeometry>
        </mxCell>
        <mxCell id="_TGrfCJ_9bRbSxPVq6Wt-17" value="&lt;div&gt;c3po:forDesign&lt;br&gt;&lt;/div&gt;" style="text;html=1;align=center;verticalAlign=middle;resizable=0;points=[];labelBackgroundColor=#ffffff;" parent="_TGrfCJ_9bRbSxPVq6Wt-16" vertex="1" connectable="0">
          <mxGeometry x="-0.1269" relative="1" as="geometry">
            <mxPoint x="-76" y="-111" as="offset" />
          </mxGeometry>
        </mxCell>
        <mxCell id="_TGrfCJ_9bRbSxPVq6Wt-21" value="(&lt;span style=&quot;background-color: rgb(255, 255, 255);&quot;&gt;∃&lt;/span&gt;) skos:inScheme: skos:ConceptScheme" style="rounded=0;whiteSpace=wrap;html=1;snapToPoint=1;points=[[0.1,0],[0.2,0],[0.3,0],[0.4,0],[0.5,0],[0.6,0],[0.7,0],[0.8,0],[0.9,0],[0,0.1],[0,0.3],[0,0.5],[0,0.7],[0,0.9],[0.1,1],[0.2,1],[0.3,1],[0.4,1],[0.5,1],[0.6,1],[0.7,1],[0.8,1],[0.9,1],[1,0.1],[1,0.3],[1,0.5],[1,0.7],[1,0.9]];dashed=1;align=left;fillColor=#e1d5e7;strokeColor=#9673a6;" parent="1" vertex="1">
          <mxGeometry x="-150" y="370" width="165" height="30" as="geometry" />
        </mxCell>
        <mxCell id="_TGrfCJ_9bRbSxPVq6Wt-22" value="c3po:NamedEntity" style="rounded=0;whiteSpace=wrap;html=1;snapToPoint=1;points=[[0.1,0],[0.2,0],[0.3,0],[0.4,0],[0.5,0],[0.6,0],[0.7,0],[0.8,0],[0.9,0],[0,0.1],[0,0.3],[0,0.5],[0,0.7],[0,0.9],[0.1,1],[0.2,1],[0.3,1],[0.4,1],[0.5,1],[0.6,1],[0.7,1],[0.8,1],[0.9,1],[1,0.1],[1,0.3],[1,0.5],[1,0.7],[1,0.9]];fillColor=#e1d5e7;strokeColor=#9673a6;" parent="1" vertex="1">
          <mxGeometry x="-150" y="340" width="165" height="30" as="geometry" />
        </mxCell>
        <mxCell id="_TGrfCJ_9bRbSxPVq6Wt-23" value="" style="triangle;whiteSpace=wrap;html=1;rotation=-90;fillColor=#e1d5e7;strokeColor=#9673a6;" parent="1" vertex="1">
          <mxGeometry x="-38" y="360" width="80" height="90" as="geometry" />
        </mxCell>
        <mxCell id="_TGrfCJ_9bRbSxPVq6Wt-24" value="SKOS hierarchies" style="text;html=1;align=center;verticalAlign=middle;whiteSpace=wrap;rounded=0;strokeColor=none;" parent="1" vertex="1">
          <mxGeometry x="-25" y="410" width="60" height="30" as="geometry" />
        </mxCell>
        <mxCell id="_TGrfCJ_9bRbSxPVq6Wt-26" value="c3po:BuildingUsageType" style="rounded=0;whiteSpace=wrap;html=1;snapToPoint=1;points=[[0.1,0],[0.2,0],[0.3,0],[0.4,0],[0.5,0],[0.6,0],[0.7,0],[0.8,0],[0.9,0],[0,0.1],[0,0.3],[0,0.5],[0,0.7],[0,0.9],[0.1,1],[0.2,1],[0.3,1],[0.4,1],[0.5,1],[0.6,1],[0.7,1],[0.8,1],[0.9,1],[1,0.1],[1,0.3],[1,0.5],[1,0.7],[1,0.9]];fillColor=#e1d5e7;strokeColor=#9673a6;" parent="1" vertex="1">
          <mxGeometry x="-143" y="460" width="138" height="30" as="geometry" />
        </mxCell>
        <mxCell id="_TGrfCJ_9bRbSxPVq6Wt-28" value="c3po:StructureType" style="rounded=0;whiteSpace=wrap;html=1;snapToPoint=1;points=[[0.1,0],[0.2,0],[0.3,0],[0.4,0],[0.5,0],[0.6,0],[0.7,0],[0.8,0],[0.9,0],[0,0.1],[0,0.3],[0,0.5],[0,0.7],[0,0.9],[0.1,1],[0.2,1],[0.3,1],[0.4,1],[0.5,1],[0.6,1],[0.7,1],[0.8,1],[0.9,1],[1,0.1],[1,0.3],[1,0.5],[1,0.7],[1,0.9]];fillColor=#e1d5e7;strokeColor=#9673a6;" parent="1" vertex="1">
          <mxGeometry x="-143" y="500" width="138" height="30" as="geometry" />
        </mxCell>
        <mxCell id="_TGrfCJ_9bRbSxPVq6Wt-32" value="c3po:has_part" style="edgeStyle=orthogonalEdgeStyle;rounded=0;orthogonalLoop=1;jettySize=auto;html=1;startArrow=oval;startFill=1;exitX=0;exitY=0.7;exitDx=0;exitDy=0;entryX=0.7;entryY=0;entryDx=0;entryDy=0;" parent="1" source="_TGrfCJ_9bRbSxPVq6Wt-2" target="_TGrfCJ_9bRbSxPVq6Wt-22" edge="1">
          <mxGeometry relative="1" as="geometry">
            <mxPoint x="156" y="170" as="sourcePoint" />
            <mxPoint x="156" y="240" as="targetPoint" />
          </mxGeometry>
        </mxCell>
        <mxCell id="_TGrfCJ_9bRbSxPVq6Wt-33" value="c3po:DefinitionStatement" style="rounded=0;whiteSpace=wrap;html=1;snapToPoint=1;points=[[0.1,0],[0.2,0],[0.3,0],[0.4,0],[0.5,0],[0.6,0],[0.7,0],[0.8,0],[0.9,0],[0,0.1],[0,0.3],[0,0.5],[0,0.7],[0,0.9],[0.1,1],[0.2,1],[0.3,1],[0.4,1],[0.5,1],[0.6,1],[0.7,1],[0.8,1],[0.9,1],[1,0.1],[1,0.3],[1,0.5],[1,0.7],[1,0.9]];fillColor=#ffe6cc;strokeColor=#d79b00;" parent="1" vertex="1">
          <mxGeometry x="188" y="470" width="182" height="30" as="geometry" />
        </mxCell>
        <mxCell id="_TGrfCJ_9bRbSxPVq6Wt-34" value="c3po:ChecklistStatement" style="rounded=0;whiteSpace=wrap;html=1;snapToPoint=1;points=[[0.1,0],[0.2,0],[0.3,0],[0.4,0],[0.5,0],[0.6,0],[0.7,0],[0.8,0],[0.9,0],[0,0.1],[0,0.3],[0,0.5],[0,0.7],[0,0.9],[0.1,1],[0.2,1],[0.3,1],[0.4,1],[0.5,1],[0.6,1],[0.7,1],[0.8,1],[0.9,1],[1,0.1],[1,0.3],[1,0.5],[1,0.7],[1,0.9]];fillColor=#ffe6cc;strokeColor=#d79b00;" parent="1" vertex="1">
          <mxGeometry x="134" y="644" width="150" height="30" as="geometry" />
        </mxCell>
        <mxCell id="_TGrfCJ_9bRbSxPVq6Wt-35" value="c3po:CategoryCheckStatement" style="rounded=0;whiteSpace=wrap;html=1;snapToPoint=1;points=[[0.1,0],[0.2,0],[0.3,0],[0.4,0],[0.5,0],[0.6,0],[0.7,0],[0.8,0],[0.9,0],[0,0.1],[0,0.3],[0,0.5],[0,0.7],[0,0.9],[0.1,1],[0.2,1],[0.3,1],[0.4,1],[0.5,1],[0.6,1],[0.7,1],[0.8,1],[0.9,1],[1,0.1],[1,0.3],[1,0.5],[1,0.7],[1,0.9]];fillColor=#ffe6cc;strokeColor=#d79b00;" parent="1" vertex="1">
          <mxGeometry x="188" y="430" width="182" height="30" as="geometry" />
        </mxCell>
        <mxCell id="_TGrfCJ_9bRbSxPVq6Wt-36" value="c3po:CertificateCheckStatement" style="rounded=0;whiteSpace=wrap;html=1;snapToPoint=1;points=[[0.1,0],[0.2,0],[0.3,0],[0.4,0],[0.5,0],[0.6,0],[0.7,0],[0.8,0],[0.9,0],[0,0.1],[0,0.3],[0,0.5],[0,0.7],[0,0.9],[0.1,1],[0.2,1],[0.3,1],[0.4,1],[0.5,1],[0.6,1],[0.7,1],[0.8,1],[0.9,1],[1,0.1],[1,0.3],[1,0.5],[1,0.7],[1,0.9]];fillColor=#ffe6cc;strokeColor=#d79b00;" parent="1" vertex="1">
          <mxGeometry x="188" y="510" width="182" height="30" as="geometry" />
        </mxCell>
        <mxCell id="Ena-B5fO-OJQIhd3wIeo-4" value="c3po:AndCheck" style="rounded=0;whiteSpace=wrap;html=1;snapToPoint=1;points=[[0.1,0],[0.2,0],[0.3,0],[0.4,0],[0.5,0],[0.6,0],[0.7,0],[0.8,0],[0.9,0],[0,0.1],[0,0.3],[0,0.5],[0,0.7],[0,0.9],[0.1,1],[0.2,1],[0.3,1],[0.4,1],[0.5,1],[0.6,1],[0.7,1],[0.8,1],[0.9,1],[1,0.1],[1,0.3],[1,0.5],[1,0.7],[1,0.9]];fillColor=#ffe6cc;strokeColor=#d79b00;" parent="1" vertex="1">
          <mxGeometry x="176" y="759" width="150" height="30" as="geometry" />
        </mxCell>
        <mxCell id="Ena-B5fO-OJQIhd3wIeo-5" value="c3po:hasSubCheck (1..N)" style="rounded=0;whiteSpace=wrap;html=1;snapToPoint=1;points=[[0.1,0],[0.2,0],[0.3,0],[0.4,0],[0.5,0],[0.6,0],[0.7,0],[0.8,0],[0.9,0],[0,0.1],[0,0.3],[0,0.5],[0,0.7],[0,0.9],[0.1,1],[0.2,1],[0.3,1],[0.4,1],[0.5,1],[0.6,1],[0.7,1],[0.8,1],[0.9,1],[1,0.1],[1,0.3],[1,0.5],[1,0.7],[1,0.9]];dashed=1;fillColor=#ffe6cc;strokeColor=#d79b00;" parent="1" vertex="1">
          <mxGeometry x="176" y="789" width="150" height="30" as="geometry" />
        </mxCell>
        <mxCell id="Ena-B5fO-OJQIhd3wIeo-6" style="edgeStyle=orthogonalEdgeStyle;rounded=0;orthogonalLoop=1;jettySize=auto;html=1;startArrow=none;startFill=0;endArrow=block;endFill=0;" parent="1" edge="1">
          <mxGeometry relative="1" as="geometry">
            <mxPoint x="120" y="338" as="targetPoint" />
            <mxPoint x="120" y="650" as="sourcePoint" />
            <Array as="points">
              <mxPoint x="120" y="838" />
            </Array>
          </mxGeometry>
        </mxCell>
        <mxCell id="Ena-B5fO-OJQIhd3wIeo-16" value="" style="edgeStyle=segmentEdgeStyle;endArrow=classic;html=1;curved=0;rounded=0;endSize=8;startSize=8;entryX=0.2;entryY=1;entryDx=0;entryDy=0;exitX=0;exitY=0.5;exitDx=0;exitDy=0;" parent="1" source="_TGrfCJ_9bRbSxPVq6Wt-35" target="_TGrfCJ_9bRbSxPVq6Wt-9" edge="1">
          <mxGeometry width="50" height="50" relative="1" as="geometry">
            <mxPoint x="160" y="500" as="sourcePoint" />
            <mxPoint x="210" y="450" as="targetPoint" />
          </mxGeometry>
        </mxCell>
        <mxCell id="Ena-B5fO-OJQIhd3wIeo-19" value="" style="edgeStyle=segmentEdgeStyle;endArrow=classic;html=1;curved=0;rounded=0;endSize=8;startSize=8;entryX=0.2;entryY=1;entryDx=0;entryDy=0;exitX=0;exitY=0.3;exitDx=0;exitDy=0;" parent="1" source="GtJcTKdZWyMRpuNCWOe9-5" edge="1">
          <mxGeometry width="50" height="50" relative="1" as="geometry">
            <mxPoint x="188.00000000000023" y="527.0000000000002" as="sourcePoint" />
            <mxPoint x="158.00000000000023" y="399" as="targetPoint" />
            <Array as="points">
              <mxPoint x="188" y="600" />
              <mxPoint x="158" y="600" />
            </Array>
          </mxGeometry>
        </mxCell>
        <mxCell id="EuHg-dzVuMaZDzajdJJ5-1" value="" style="endArrow=none;html=1;rounded=0;" parent="1" edge="1">
          <mxGeometry width="50" height="50" relative="1" as="geometry">
            <mxPoint x="120" y="380" as="sourcePoint" />
            <mxPoint x="130" y="380" as="targetPoint" />
          </mxGeometry>
        </mxCell>
        <mxCell id="EuHg-dzVuMaZDzajdJJ5-2" value="c3po:RASE" style="rounded=0;whiteSpace=wrap;html=1;snapToPoint=1;points=[[0.1,0],[0.2,0],[0.3,0],[0.4,0],[0.5,0],[0.6,0],[0.7,0],[0.8,0],[0.9,0],[0,0.1],[0,0.3],[0,0.5],[0,0.7],[0,0.9],[0.1,1],[0.2,1],[0.3,1],[0.4,1],[0.5,1],[0.6,1],[0.7,1],[0.8,1],[0.9,1],[1,0.1],[1,0.3],[1,0.5],[1,0.7],[1,0.9]];fillColor=#d5e8d4;strokeColor=#82b366;" parent="1" vertex="1">
          <mxGeometry x="-78" y="129.7" width="100" height="30" as="geometry" />
        </mxCell>
        <mxCell id="EuHg-dzVuMaZDzajdJJ5-4" value="c3po:Requirement" style="rounded=0;whiteSpace=wrap;html=1;snapToPoint=1;points=[[0.1,0],[0.2,0],[0.3,0],[0.4,0],[0.5,0],[0.6,0],[0.7,0],[0.8,0],[0.9,0],[0,0.1],[0,0.3],[0,0.5],[0,0.7],[0,0.9],[0.1,1],[0.2,1],[0.3,1],[0.4,1],[0.5,1],[0.6,1],[0.7,1],[0.8,1],[0.9,1],[1,0.1],[1,0.3],[1,0.5],[1,0.7],[1,0.9]];fillColor=#1ba1e2;strokeColor=#006EAF;fontColor=#ffffff;" parent="1" vertex="1">
          <mxGeometry x="-10" y="-60" width="100" height="30" as="geometry" />
        </mxCell>
        <mxCell id="EuHg-dzVuMaZDzajdJJ5-6" value="c3po:Selection" style="rounded=0;whiteSpace=wrap;html=1;snapToPoint=1;points=[[0.1,0],[0.2,0],[0.3,0],[0.4,0],[0.5,0],[0.6,0],[0.7,0],[0.8,0],[0.9,0],[0,0.1],[0,0.3],[0,0.5],[0,0.7],[0,0.9],[0.1,1],[0.2,1],[0.3,1],[0.4,1],[0.5,1],[0.6,1],[0.7,1],[0.8,1],[0.9,1],[1,0.1],[1,0.3],[1,0.5],[1,0.7],[1,0.9]];fillColor=#d0cee2;strokeColor=#56517e;" parent="1" vertex="1">
          <mxGeometry x="-10" y="-20" width="100" height="30" as="geometry" />
        </mxCell>
        <mxCell id="EuHg-dzVuMaZDzajdJJ5-7" value="c3po:Applicability" style="rounded=0;whiteSpace=wrap;html=1;snapToPoint=1;points=[[0.1,0],[0.2,0],[0.3,0],[0.4,0],[0.5,0],[0.6,0],[0.7,0],[0.8,0],[0.9,0],[0,0.1],[0,0.3],[0,0.5],[0,0.7],[0,0.9],[0.1,1],[0.2,1],[0.3,1],[0.4,1],[0.5,1],[0.6,1],[0.7,1],[0.8,1],[0.9,1],[1,0.1],[1,0.3],[1,0.5],[1,0.7],[1,0.9]];fillColor=#d5e8d4;strokeColor=#82b366;gradientColor=#97d077;" parent="1" vertex="1">
          <mxGeometry x="-10" y="20" width="100" height="30" as="geometry" />
        </mxCell>
        <mxCell id="EuHg-dzVuMaZDzajdJJ5-8" value="c3po:Exception" style="rounded=0;whiteSpace=wrap;html=1;snapToPoint=1;points=[[0.1,0],[0.2,0],[0.3,0],[0.4,0],[0.5,0],[0.6,0],[0.7,0],[0.8,0],[0.9,0],[0,0.1],[0,0.3],[0,0.5],[0,0.7],[0,0.9],[0.1,1],[0.2,1],[0.3,1],[0.4,1],[0.5,1],[0.6,1],[0.7,1],[0.8,1],[0.9,1],[1,0.1],[1,0.3],[1,0.5],[1,0.7],[1,0.9]];fillColor=#ffff88;strokeColor=#36393d;" parent="1" vertex="1">
          <mxGeometry x="-10" y="58" width="100" height="30" as="geometry" />
        </mxCell>
        <mxCell id="EuHg-dzVuMaZDzajdJJ5-9" value="" style="endArrow=classic;html=1;rounded=0;entryX=0.4;entryY=0;entryDx=0;entryDy=0;" parent="1" target="EuHg-dzVuMaZDzajdJJ5-2" edge="1">
          <mxGeometry width="50" height="50" relative="1" as="geometry">
            <mxPoint x="-40" y="-50" as="sourcePoint" />
            <mxPoint x="-200" y="-30" as="targetPoint" />
          </mxGeometry>
        </mxCell>
        <mxCell id="EuHg-dzVuMaZDzajdJJ5-10" value="" style="endArrow=none;html=1;rounded=0;" parent="1" edge="1">
          <mxGeometry width="50" height="50" relative="1" as="geometry">
            <mxPoint x="-40" y="-10" as="sourcePoint" />
            <mxPoint x="-10" y="-10" as="targetPoint" />
            <Array as="points">
              <mxPoint x="-30" y="-10" />
            </Array>
          </mxGeometry>
        </mxCell>
        <mxCell id="EuHg-dzVuMaZDzajdJJ5-12" value="" style="endArrow=classic;html=1;rounded=0;" parent="1" edge="1">
          <mxGeometry width="50" height="50" relative="1" as="geometry">
            <mxPoint x="-34" y="245" as="sourcePoint" />
            <mxPoint x="-34" y="160" as="targetPoint" />
          </mxGeometry>
        </mxCell>
        <mxCell id="EuHg-dzVuMaZDzajdJJ5-13" value="" style="endArrow=none;html=1;rounded=0;" parent="1" edge="1">
          <mxGeometry width="50" height="50" relative="1" as="geometry">
            <mxPoint x="-40" y="-50" as="sourcePoint" />
            <mxPoint x="-10" y="-50" as="targetPoint" />
            <Array as="points">
              <mxPoint x="-30" y="-50" />
            </Array>
          </mxGeometry>
        </mxCell>
        <mxCell id="EuHg-dzVuMaZDzajdJJ5-14" value="" style="endArrow=none;html=1;rounded=0;" parent="1" edge="1">
          <mxGeometry width="50" height="50" relative="1" as="geometry">
            <mxPoint x="-39" y="35" as="sourcePoint" />
            <mxPoint x="-9" y="35" as="targetPoint" />
            <Array as="points">
              <mxPoint x="-29" y="35" />
            </Array>
          </mxGeometry>
        </mxCell>
        <mxCell id="EuHg-dzVuMaZDzajdJJ5-15" value="" style="endArrow=none;html=1;rounded=0;" parent="1" edge="1">
          <mxGeometry width="50" height="50" relative="1" as="geometry">
            <mxPoint x="-39" y="72" as="sourcePoint" />
            <mxPoint x="-9" y="72" as="targetPoint" />
            <Array as="points">
              <mxPoint x="-29" y="72" />
            </Array>
          </mxGeometry>
        </mxCell>
        <mxCell id="sSspcEWEQRGXVQ1Zgzw1-1" value="c3po:PermittingStage" style="rounded=0;whiteSpace=wrap;html=1;snapToPoint=1;points=[[0.1,0],[0.2,0],[0.3,0],[0.4,0],[0.5,0],[0.6,0],[0.7,0],[0.8,0],[0.9,0],[0,0.1],[0,0.3],[0,0.5],[0,0.7],[0,0.9],[0.1,1],[0.2,1],[0.3,1],[0.4,1],[0.5,1],[0.6,1],[0.7,1],[0.8,1],[0.9,1],[1,0.1],[1,0.3],[1,0.5],[1,0.7],[1,0.9]];fillColor=#e1d5e7;strokeColor=#9673a6;" parent="1" vertex="1">
          <mxGeometry x="-142" y="543" width="138" height="30" as="geometry" />
        </mxCell>
        <mxCell id="sSspcEWEQRGXVQ1Zgzw1-3" value="c3po:Evidence" style="rounded=0;whiteSpace=wrap;html=1;snapToPoint=1;points=[[0.1,0],[0.2,0],[0.3,0],[0.4,0],[0.5,0],[0.6,0],[0.7,0],[0.8,0],[0.9,0],[0,0.1],[0,0.3],[0,0.5],[0,0.7],[0,0.9],[0.1,1],[0.2,1],[0.3,1],[0.4,1],[0.5,1],[0.6,1],[0.7,1],[0.8,1],[0.9,1],[1,0.1],[1,0.3],[1,0.5],[1,0.7],[1,0.9]];fillColor=#FF0000;strokeColor=#9673a6;" parent="1" vertex="1">
          <mxGeometry x="-142" y="590" width="138" height="30" as="geometry" />
        </mxCell>
        <mxCell id="sSspcEWEQRGXVQ1Zgzw1-4" style="edgeStyle=orthogonalEdgeStyle;rounded=0;orthogonalLoop=1;jettySize=auto;html=1;exitX=1;exitY=0.5;exitDx=0;exitDy=0;startArrow=none;startFill=0;endArrow=block;endFill=0;" parent="1" edge="1">
          <mxGeometry relative="1" as="geometry">
            <mxPoint x="15" y="440" as="targetPoint" />
            <mxPoint x="-5" y="610" as="sourcePoint" />
            <Array as="points">
              <mxPoint x="15" y="610" />
            </Array>
          </mxGeometry>
        </mxCell>
        <mxCell id="sSspcEWEQRGXVQ1Zgzw1-5" value="" style="line;strokeWidth=2;html=1;" parent="1" vertex="1">
          <mxGeometry x="-4" y="473" width="20" height="10" as="geometry" />
        </mxCell>
        <mxCell id="sSspcEWEQRGXVQ1Zgzw1-8" value="" style="line;strokeWidth=2;html=1;" parent="1" vertex="1">
          <mxGeometry x="-3" y="555" width="20" height="10" as="geometry" />
        </mxCell>
        <mxCell id="sSspcEWEQRGXVQ1Zgzw1-9" value="" style="line;strokeWidth=2;html=1;" parent="1" vertex="1">
          <mxGeometry x="-5" y="513" width="20" height="10" as="geometry" />
        </mxCell>
        <mxCell id="tM0Y8XdGbdW8dzQ4H5mf-1" value="..." style="text;html=1;strokeColor=none;fillColor=none;align=center;verticalAlign=middle;whiteSpace=wrap;rounded=0;" parent="1" vertex="1">
          <mxGeometry x="204" y="863" width="60" height="30" as="geometry" />
        </mxCell>
        <mxCell id="h-KyKkrpE38Og0TT7BF3-1" value="(all) dct:identifier: dct:issued: &lt;u&gt;dct:references:&lt;/u&gt;" style="rounded=0;whiteSpace=wrap;html=1;snapToPoint=1;points=[[0.1,0],[0.2,0],[0.3,0],[0.4,0],[0.5,0],[0.6,0],[0.7,0],[0.8,0],[0.9,0],[0,0.1],[0,0.3],[0,0.5],[0,0.7],[0,0.9],[0.1,1],[0.2,1],[0.3,1],[0.4,1],[0.5,1],[0.6,1],[0.7,1],[0.8,1],[0.9,1],[1,0.1],[1,0.3],[1,0.5],[1,0.7],[1,0.9]];dashed=1;shadow=0;strokeColor=#999999;fillColor=#FFE6CC;" parent="1" vertex="1">
          <mxGeometry x="92" y="120" width="170" height="48" as="geometry" />
        </mxCell>
        <mxCell id="h-KyKkrpE38Og0TT7BF3-2" value="c3po:Document" style="rounded=0;whiteSpace=wrap;html=1;snapToPoint=1;points=[[0.1,0],[0.2,0],[0.3,0],[0.4,0],[0.5,0],[0.6,0],[0.7,0],[0.8,0],[0.9,0],[0,0.1],[0,0.3],[0,0.5],[0,0.7],[0,0.9],[0.1,1],[0.2,1],[0.3,1],[0.4,1],[0.5,1],[0.6,1],[0.7,1],[0.8,1],[0.9,1],[1,0.1],[1,0.3],[1,0.5],[1,0.7],[1,0.9]];shadow=0;strokeColor=#999999;fillColor=#FFE6CC;" parent="1" vertex="1">
          <mxGeometry x="92" y="90" width="170" height="30" as="geometry" />
        </mxCell>
        <mxCell id="GtJcTKdZWyMRpuNCWOe9-1" value="" style="endArrow=classic;html=1;rounded=0;" parent="1" edge="1">
          <mxGeometry width="50" height="50" relative="1" as="geometry">
            <mxPoint x="157" y="781" as="sourcePoint" />
            <mxPoint x="157" y="671" as="targetPoint" />
          </mxGeometry>
        </mxCell>
        <mxCell id="GtJcTKdZWyMRpuNCWOe9-2" value="" style="endArrow=none;html=1;rounded=0;" parent="1" edge="1">
          <mxGeometry width="50" height="50" relative="1" as="geometry">
            <mxPoint x="158" y="701" as="sourcePoint" />
            <mxPoint x="178" y="701" as="targetPoint" />
          </mxGeometry>
        </mxCell>
        <mxCell id="GtJcTKdZWyMRpuNCWOe9-3" value="" style="endArrow=none;html=1;rounded=0;" parent="1" edge="1">
          <mxGeometry width="50" height="50" relative="1" as="geometry">
            <mxPoint x="158" y="779" as="sourcePoint" />
            <mxPoint x="178" y="779" as="targetPoint" />
          </mxGeometry>
        </mxCell>
        <mxCell id="GtJcTKdZWyMRpuNCWOe9-4" value="c3po:NumericalCheckStatement" style="rounded=0;whiteSpace=wrap;html=1;snapToPoint=1;points=[[0.1,0],[0.2,0],[0.3,0],[0.4,0],[0.5,0],[0.6,0],[0.7,0],[0.8,0],[0.9,0],[0,0.1],[0,0.3],[0,0.5],[0,0.7],[0,0.9],[0.1,1],[0.2,1],[0.3,1],[0.4,1],[0.5,1],[0.6,1],[0.7,1],[0.8,1],[0.9,1],[1,0.1],[1,0.3],[1,0.5],[1,0.7],[1,0.9]];fillColor=#ffe6cc;strokeColor=#d79b00;" parent="1" vertex="1">
          <mxGeometry x="188" y="551" width="182" height="30" as="geometry" />
        </mxCell>
        <mxCell id="GtJcTKdZWyMRpuNCWOe9-5" value="c3po:HumanEvaluatedStatement" style="rounded=0;whiteSpace=wrap;html=1;snapToPoint=1;points=[[0.1,0],[0.2,0],[0.3,0],[0.4,0],[0.5,0],[0.6,0],[0.7,0],[0.8,0],[0.9,0],[0,0.1],[0,0.3],[0,0.5],[0,0.7],[0,0.9],[0.1,1],[0.2,1],[0.3,1],[0.4,1],[0.5,1],[0.6,1],[0.7,1],[0.8,1],[0.9,1],[1,0.1],[1,0.3],[1,0.5],[1,0.7],[1,0.9]];fillColor=#ffe6cc;strokeColor=#d79b00;" parent="1" vertex="1">
          <mxGeometry x="188" y="590" width="182" height="30" as="geometry" />
        </mxCell>
        <mxCell id="GtJcTKdZWyMRpuNCWOe9-6" value="" style="endArrow=none;html=1;rounded=0;" parent="1" edge="1">
          <mxGeometry width="50" height="50" relative="1" as="geometry">
            <mxPoint x="158" y="480" as="sourcePoint" />
            <mxPoint x="188" y="480" as="targetPoint" />
          </mxGeometry>
        </mxCell>
        <mxCell id="GtJcTKdZWyMRpuNCWOe9-7" value="" style="endArrow=none;html=1;rounded=0;" parent="1" edge="1">
          <mxGeometry width="50" height="50" relative="1" as="geometry">
            <mxPoint x="159" y="519" as="sourcePoint" />
            <mxPoint x="189" y="519" as="targetPoint" />
          </mxGeometry>
        </mxCell>
        <mxCell id="GtJcTKdZWyMRpuNCWOe9-8" value="" style="endArrow=none;html=1;rounded=0;" parent="1" edge="1">
          <mxGeometry width="50" height="50" relative="1" as="geometry">
            <mxPoint x="159" y="558" as="sourcePoint" />
            <mxPoint x="189" y="558" as="targetPoint" />
          </mxGeometry>
        </mxCell>
        <mxCell id="GtJcTKdZWyMRpuNCWOe9-9" value="" style="endArrow=none;html=1;rounded=0;" parent="1" edge="1">
          <mxGeometry width="50" height="50" relative="1" as="geometry">
            <mxPoint x="120" y="655" as="sourcePoint" />
            <mxPoint x="134" y="655" as="targetPoint" />
          </mxGeometry>
        </mxCell>
        <mxCell id="F1AGeONah4Ro3YN1YogJ-1" value="c3po:EquationStatement" style="rounded=0;whiteSpace=wrap;html=1;snapToPoint=1;points=[[0.1,0],[0.2,0],[0.3,0],[0.4,0],[0.5,0],[0.6,0],[0.7,0],[0.8,0],[0.9,0],[0,0.1],[0,0.3],[0,0.5],[0,0.7],[0,0.9],[0.1,1],[0.2,1],[0.3,1],[0.4,1],[0.5,1],[0.6,1],[0.7,1],[0.8,1],[0.9,1],[1,0.1],[1,0.3],[1,0.5],[1,0.7],[1,0.9]];fillColor=#ffe6cc;strokeColor=#d79b00;" parent="1" vertex="1">
          <mxGeometry x="134" y="830" width="150" height="30" as="geometry" />
        </mxCell>
        <mxCell id="F1AGeONah4Ro3YN1YogJ-2" value="" style="endArrow=none;html=1;rounded=0;" parent="1" edge="1">
          <mxGeometry width="50" height="50" relative="1" as="geometry">
            <mxPoint x="121" y="838" as="sourcePoint" />
            <mxPoint x="135" y="838" as="targetPoint" />
          </mxGeometry>
        </mxCell>
      </root>
    </mxGraphModel>
  </diagram>
  <diagram id="b7IEKVB53GwhQN-PQSHV" name="evidence">
    <mxGraphModel dx="1034" dy="438" grid="1" gridSize="10" guides="1" tooltips="1" connect="1" arrows="1" fold="1" page="1" pageScale="1" pageWidth="827" pageHeight="1169" math="0" shadow="0">
      <root>
        <mxCell id="0" />
        <mxCell id="1" parent="0" />
        <mxCell id="av_xtBqa6YoBU_iaK5fJ-1" value="&lt;b&gt;c3po&lt;/b&gt;&lt;span style=&quot;background-color: initial;&quot;&gt;: https://w3id.org/lbd/c3po/&lt;/span&gt;&lt;b&gt;&lt;br&gt;&lt;/b&gt;&lt;b style=&quot;background-color: initial;&quot;&gt;dct:&lt;/b&gt;&lt;span style=&quot;background-color: initial;&quot;&gt;&amp;nbsp;&lt;/span&gt;http://purl.org/dc/terms/" style="shape=note;whiteSpace=wrap;html=1;backgroundOutline=1;darkOpacity=0.05;size=13;align=left;" parent="1" vertex="1">
          <mxGeometry x="13" y="10" width="260" height="40" as="geometry" />
        </mxCell>
        <mxCell id="KzebZV1Ldc8EYb3lwiBt-1" value="dct:Image" style="rounded=0;whiteSpace=wrap;html=1;snapToPoint=1;points=[[0.1,0],[0.2,0],[0.3,0],[0.4,0],[0.5,0],[0.6,0],[0.7,0],[0.8,0],[0.9,0],[0,0.1],[0,0.3],[0,0.5],[0,0.7],[0,0.9],[0.1,1],[0.2,1],[0.3,1],[0.4,1],[0.5,1],[0.6,1],[0.7,1],[0.8,1],[0.9,1],[1,0.1],[1,0.3],[1,0.5],[1,0.7],[1,0.9]];fillColor=#fff2cc;strokeColor=#d6b656;" parent="1" vertex="1">
          <mxGeometry x="442" y="172" width="190" height="30" as="geometry" />
        </mxCell>
        <mxCell id="H4RQIIv4kTQWEwVIokH8-1" value="c3po:Evidence" style="rounded=0;whiteSpace=wrap;html=1;snapToPoint=1;points=[[0.1,0],[0.2,0],[0.3,0],[0.4,0],[0.5,0],[0.6,0],[0.7,0],[0.8,0],[0.9,0],[0,0.1],[0,0.3],[0,0.5],[0,0.7],[0,0.9],[0.1,1],[0.2,1],[0.3,1],[0.4,1],[0.5,1],[0.6,1],[0.7,1],[0.8,1],[0.9,1],[1,0.1],[1,0.3],[1,0.5],[1,0.7],[1,0.9]];fillColor=#fff2cc;strokeColor=#d6b656;" parent="1" vertex="1">
          <mxGeometry x="80" y="183" width="190" height="30" as="geometry" />
        </mxCell>
        <mxCell id="H4RQIIv4kTQWEwVIokH8-2" value="dct:format:&amp;nbsp;" style="rounded=0;whiteSpace=wrap;html=1;snapToPoint=1;points=[[0.1,0],[0.2,0],[0.3,0],[0.4,0],[0.5,0],[0.6,0],[0.7,0],[0.8,0],[0.9,0],[0,0.1],[0,0.3],[0,0.5],[0,0.7],[0,0.9],[0.1,1],[0.2,1],[0.3,1],[0.4,1],[0.5,1],[0.6,1],[0.7,1],[0.8,1],[0.9,1],[1,0.1],[1,0.3],[1,0.5],[1,0.7],[1,0.9]];fillColor=#fff2cc;strokeColor=#d6b656;" parent="1" vertex="1">
          <mxGeometry x="80" y="213" width="190" height="30" as="geometry" />
        </mxCell>
        <mxCell id="LMrZw5FJCZfT50acFHdC-1" value="c3po:Medium/dct:Format" style="rounded=0;whiteSpace=wrap;html=1;snapToPoint=1;points=[[0.1,0],[0.2,0],[0.3,0],[0.4,0],[0.5,0],[0.6,0],[0.7,0],[0.8,0],[0.9,0],[0,0.1],[0,0.3],[0,0.5],[0,0.7],[0,0.9],[0.1,1],[0.2,1],[0.3,1],[0.4,1],[0.5,1],[0.6,1],[0.7,1],[0.8,1],[0.9,1],[1,0.1],[1,0.3],[1,0.5],[1,0.7],[1,0.9]];fillColor=#fff2cc;strokeColor=#d6b656;" vertex="1" parent="1">
          <mxGeometry x="402" y="70" width="190" height="30" as="geometry" />
        </mxCell>
        <mxCell id="LMrZw5FJCZfT50acFHdC-2" value="dct:format:&amp;nbsp;" style="rounded=0;whiteSpace=wrap;html=1;snapToPoint=1;points=[[0.1,0],[0.2,0],[0.3,0],[0.4,0],[0.5,0],[0.6,0],[0.7,0],[0.8,0],[0.9,0],[0,0.1],[0,0.3],[0,0.5],[0,0.7],[0,0.9],[0.1,1],[0.2,1],[0.3,1],[0.4,1],[0.5,1],[0.6,1],[0.7,1],[0.8,1],[0.9,1],[1,0.1],[1,0.3],[1,0.5],[1,0.7],[1,0.9]];fillColor=#fff2cc;strokeColor=#d6b656;" vertex="1" parent="1">
          <mxGeometry x="402" y="100" width="190" height="30" as="geometry" />
        </mxCell>
        <mxCell id="LMrZw5FJCZfT50acFHdC-3" value="c3po:Document" style="rounded=0;whiteSpace=wrap;html=1;snapToPoint=1;points=[[0.1,0],[0.2,0],[0.3,0],[0.4,0],[0.5,0],[0.6,0],[0.7,0],[0.8,0],[0.9,0],[0,0.1],[0,0.3],[0,0.5],[0,0.7],[0,0.9],[0.1,1],[0.2,1],[0.3,1],[0.4,1],[0.5,1],[0.6,1],[0.7,1],[0.8,1],[0.9,1],[1,0.1],[1,0.3],[1,0.5],[1,0.7],[1,0.9]];fillColor=#fff2cc;strokeColor=#d6b656;" vertex="1" parent="1">
          <mxGeometry x="442" y="222" width="190" height="30" as="geometry" />
        </mxCell>
        <mxCell id="LMrZw5FJCZfT50acFHdC-5" value="The file format, physical medium, or dimensions of the resource." style="text;html=1;strokeColor=none;fillColor=none;align=center;verticalAlign=middle;whiteSpace=wrap;rounded=0;" vertex="1" parent="1">
          <mxGeometry x="630" y="79" width="190" height="30" as="geometry" />
        </mxCell>
        <mxCell id="LMrZw5FJCZfT50acFHdC-6" value="c3po:Model" style="rounded=0;whiteSpace=wrap;html=1;snapToPoint=1;points=[[0.1,0],[0.2,0],[0.3,0],[0.4,0],[0.5,0],[0.6,0],[0.7,0],[0.8,0],[0.9,0],[0,0.1],[0,0.3],[0,0.5],[0,0.7],[0,0.9],[0.1,1],[0.2,1],[0.3,1],[0.4,1],[0.5,1],[0.6,1],[0.7,1],[0.8,1],[0.9,1],[1,0.1],[1,0.3],[1,0.5],[1,0.7],[1,0.9]];fillColor=#fff2cc;strokeColor=#d6b656;" vertex="1" parent="1">
          <mxGeometry x="442" y="267" width="190" height="30" as="geometry" />
        </mxCell>
        <mxCell id="LMrZw5FJCZfT50acFHdC-7" value="c3po:Drawing/dct:Stilllmage" style="rounded=0;whiteSpace=wrap;html=1;snapToPoint=1;points=[[0.1,0],[0.2,0],[0.3,0],[0.4,0],[0.5,0],[0.6,0],[0.7,0],[0.8,0],[0.9,0],[0,0.1],[0,0.3],[0,0.5],[0,0.7],[0,0.9],[0.1,1],[0.2,1],[0.3,1],[0.4,1],[0.5,1],[0.6,1],[0.7,1],[0.8,1],[0.9,1],[1,0.1],[1,0.3],[1,0.5],[1,0.7],[1,0.9]];fillColor=#fff2cc;strokeColor=#d6b656;" vertex="1" parent="1">
          <mxGeometry x="442" y="320" width="190" height="30" as="geometry" />
        </mxCell>
        <mxCell id="LMrZw5FJCZfT50acFHdC-8" value="c3po:RequiredData" style="rounded=0;whiteSpace=wrap;html=1;snapToPoint=1;points=[[0.1,0],[0.2,0],[0.3,0],[0.4,0],[0.5,0],[0.6,0],[0.7,0],[0.8,0],[0.9,0],[0,0.1],[0,0.3],[0,0.5],[0,0.7],[0,0.9],[0.1,1],[0.2,1],[0.3,1],[0.4,1],[0.5,1],[0.6,1],[0.7,1],[0.8,1],[0.9,1],[1,0.1],[1,0.3],[1,0.5],[1,0.7],[1,0.9]];fillColor=#fff2cc;strokeColor=#d6b656;" vertex="1" parent="1">
          <mxGeometry x="79" y="281" width="190" height="30" as="geometry" />
        </mxCell>
        <mxCell id="LMrZw5FJCZfT50acFHdC-9" value="dct:format:&amp;nbsp;" style="rounded=0;whiteSpace=wrap;html=1;snapToPoint=1;points=[[0.1,0],[0.2,0],[0.3,0],[0.4,0],[0.5,0],[0.6,0],[0.7,0],[0.8,0],[0.9,0],[0,0.1],[0,0.3],[0,0.5],[0,0.7],[0,0.9],[0.1,1],[0.2,1],[0.3,1],[0.4,1],[0.5,1],[0.6,1],[0.7,1],[0.8,1],[0.9,1],[1,0.1],[1,0.3],[1,0.5],[1,0.7],[1,0.9]];fillColor=#fff2cc;strokeColor=#d6b656;" vertex="1" parent="1">
          <mxGeometry x="79" y="311" width="190" height="30" as="geometry" />
        </mxCell>
      </root>
    </mxGraphModel>
  </diagram>
  <diagram id="qFI4sKBfC1UeffPwSFz8" name="permitting">
    <mxGraphModel dx="1034" dy="438" grid="1" gridSize="10" guides="1" tooltips="1" connect="1" arrows="1" fold="1" page="1" pageScale="1" pageWidth="827" pageHeight="1169" math="0" shadow="0">
      <root>
        <mxCell id="0" />
        <mxCell id="1" parent="0" />
      </root>
    </mxGraphModel>
  </diagram>
  <diagram id="aweCfr-4Pm7Sdez_rNL7" name="design">
    <mxGraphModel grid="1" page="1" gridSize="10" guides="1" tooltips="1" connect="1" arrows="1" fold="1" pageScale="1" pageWidth="827" pageHeight="1169" math="0" shadow="0">
      <root>
        <mxCell id="0" />
        <mxCell id="1" parent="0" />
        <mxCell id="qS2Gz_8m5Ndv3Xl6wykH-1" value="c3po:FeatureOfInterest" style="rounded=0;whiteSpace=wrap;html=1;snapToPoint=1;points=[[0.1,0],[0.2,0],[0.3,0],[0.4,0],[0.5,0],[0.6,0],[0.7,0],[0.8,0],[0.9,0],[0,0.1],[0,0.3],[0,0.5],[0,0.7],[0,0.9],[0.1,1],[0.2,1],[0.3,1],[0.4,1],[0.5,1],[0.6,1],[0.7,1],[0.8,1],[0.9,1],[1,0.1],[1,0.3],[1,0.5],[1,0.7],[1,0.9]];fillColor=#fa6800;fontColor=#000000;strokeColor=#C73500;" vertex="1" parent="1">
          <mxGeometry x="1300" y="950" width="190" height="30" as="geometry" />
        </mxCell>
        <mxCell id="qS2Gz_8m5Ndv3Xl6wykH-2" value="c3po:hasValue" style="rounded=0;whiteSpace=wrap;html=1;snapToPoint=1;points=[[0.1,0],[0.2,0],[0.3,0],[0.4,0],[0.5,0],[0.6,0],[0.7,0],[0.8,0],[0.9,0],[0,0.1],[0,0.3],[0,0.5],[0,0.7],[0,0.9],[0.1,1],[0.2,1],[0.3,1],[0.4,1],[0.5,1],[0.6,1],[0.7,1],[0.8,1],[0.9,1],[1,0.1],[1,0.3],[1,0.5],[1,0.7],[1,0.9]];dashed=1;fillColor=#e1d5e7;strokeColor=#9673a6;" vertex="1" parent="1">
          <mxGeometry x="951" y="909.9999999999999" width="136" height="30" as="geometry" />
        </mxCell>
        <mxCell id="qS2Gz_8m5Ndv3Xl6wykH-3" style="edgeStyle=orthogonalEdgeStyle;rounded=0;orthogonalLoop=1;jettySize=auto;html=1;exitX=0;exitY=0.5;exitDx=0;exitDy=0;entryX=0.6;entryY=1;entryDx=0;entryDy=0;startArrow=none;startFill=0;endArrow=block;endFill=0;" edge="1" parent="1" source="qS2Gz_8m5Ndv3Xl6wykH-5" target="qS2Gz_8m5Ndv3Xl6wykH-33">
          <mxGeometry relative="1" as="geometry">
            <Array as="points">
              <mxPoint x="938" y="895" />
            </Array>
          </mxGeometry>
        </mxCell>
        <mxCell id="qS2Gz_8m5Ndv3Xl6wykH-4" value="c3po:hasDesign" style="edgeStyle=orthogonalEdgeStyle;rounded=0;orthogonalLoop=1;jettySize=auto;html=1;entryX=1;entryY=0.5;entryDx=0;entryDy=0;startArrow=none;startFill=0;endArrow=classic;endFill=1;exitX=0;exitY=0.5;exitDx=0;exitDy=0;" edge="1" parent="1" source="qS2Gz_8m5Ndv3Xl6wykH-9" target="qS2Gz_8m5Ndv3Xl6wykH-5">
          <mxGeometry relative="1" as="geometry">
            <mxPoint x="1220" y="920" as="sourcePoint" />
          </mxGeometry>
        </mxCell>
        <mxCell id="qS2Gz_8m5Ndv3Xl6wykH-5" value="c3po:PropertyDesign" style="rounded=0;whiteSpace=wrap;html=1;snapToPoint=1;points=[[0.1,0],[0.2,0],[0.3,0],[0.4,0],[0.5,0],[0.6,0],[0.7,0],[0.8,0],[0.9,0],[0,0.1],[0,0.3],[0,0.5],[0,0.7],[0,0.9],[0.1,1],[0.2,1],[0.3,1],[0.4,1],[0.5,1],[0.6,1],[0.7,1],[0.8,1],[0.9,1],[1,0.1],[1,0.3],[1,0.5],[1,0.7],[1,0.9]];fillColor=#e1d5e7;strokeColor=#9673a6;" vertex="1" parent="1">
          <mxGeometry x="951" y="879.9999999999999" width="136" height="30" as="geometry" />
        </mxCell>
        <mxCell id="qS2Gz_8m5Ndv3Xl6wykH-6" value="c3po:hasValue" style="rounded=0;whiteSpace=wrap;html=1;snapToPoint=1;points=[[0.1,0],[0.2,0],[0.3,0],[0.4,0],[0.5,0],[0.6,0],[0.7,0],[0.8,0],[0.9,0],[0,0.1],[0,0.3],[0,0.5],[0,0.7],[0,0.9],[0.1,1],[0.2,1],[0.3,1],[0.4,1],[0.5,1],[0.6,1],[0.7,1],[0.8,1],[0.9,1],[1,0.1],[1,0.3],[1,0.5],[1,0.7],[1,0.9]];dashed=1;fillColor=#e1d5e7;strokeColor=#9673a6;" vertex="1" parent="1">
          <mxGeometry x="950" y="570" width="160" height="30" as="geometry" />
        </mxCell>
        <mxCell id="qS2Gz_8m5Ndv3Xl6wykH-7" style="edgeStyle=orthogonalEdgeStyle;rounded=0;orthogonalLoop=1;jettySize=auto;html=1;entryX=0.6;entryY=1;entryDx=0;entryDy=0;startArrow=none;startFill=0;endArrow=block;endFill=0;exitX=0;exitY=0.5;exitDx=0;exitDy=0;" edge="1" parent="1" source="qS2Gz_8m5Ndv3Xl6wykH-8" target="qS2Gz_8m5Ndv3Xl6wykH-33">
          <mxGeometry relative="1" as="geometry">
            <Array as="points">
              <mxPoint x="940" y="555" />
              <mxPoint x="940" y="470" />
            </Array>
          </mxGeometry>
        </mxCell>
        <mxCell id="qS2Gz_8m5Ndv3Xl6wykH-8" value="c3po:PropertyKindDesign" style="rounded=0;whiteSpace=wrap;html=1;snapToPoint=1;points=[[0.1,0],[0.2,0],[0.3,0],[0.4,0],[0.5,0],[0.6,0],[0.7,0],[0.8,0],[0.9,0],[0,0.1],[0,0.3],[0,0.5],[0,0.7],[0,0.9],[0.1,1],[0.2,1],[0.3,1],[0.4,1],[0.5,1],[0.6,1],[0.7,1],[0.8,1],[0.9,1],[1,0.1],[1,0.3],[1,0.5],[1,0.7],[1,0.9]];fillColor=#e1d5e7;strokeColor=#9673a6;" vertex="1" parent="1">
          <mxGeometry x="950" y="540" width="160" height="30" as="geometry" />
        </mxCell>
        <mxCell id="qS2Gz_8m5Ndv3Xl6wykH-9" value="c3po:Property" style="rounded=0;whiteSpace=wrap;html=1;snapToPoint=1;points=[[0.1,0],[0.2,0],[0.3,0],[0.4,0],[0.5,0],[0.6,0],[0.7,0],[0.8,0],[0.9,0],[0,0.1],[0,0.3],[0,0.5],[0,0.7],[0,0.9],[0.1,1],[0.2,1],[0.3,1],[0.4,1],[0.5,1],[0.6,1],[0.7,1],[0.8,1],[0.9,1],[1,0.1],[1,0.3],[1,0.5],[1,0.7],[1,0.9]];fillColor=#f0a30a;fontColor=#000000;strokeColor=#BD7000;" vertex="1" parent="1">
          <mxGeometry x="1300" y="880" width="190" height="30" as="geometry" />
        </mxCell>
        <mxCell id="qS2Gz_8m5Ndv3Xl6wykH-10" value="" style="endArrow=classic;html=1;entryX=0.5;entryY=1;entryDx=0;entryDy=0;endSize=8;arcSize=0;rounded=0;startArrow=oval;startFill=1;exitX=0.5;exitY=0;exitDx=0;exitDy=0;" edge="1" parent="1" source="qS2Gz_8m5Ndv3Xl6wykH-1" target="qS2Gz_8m5Ndv3Xl6wykH-9">
          <mxGeometry width="50" height="50" relative="1" as="geometry">
            <mxPoint x="1340" y="545" as="sourcePoint" />
            <mxPoint x="647" y="180" as="targetPoint" />
          </mxGeometry>
        </mxCell>
        <mxCell id="qS2Gz_8m5Ndv3Xl6wykH-11" value="&lt;div&gt;(IF) c3po:hasProperty&lt;br&gt;&lt;/div&gt;" style="text;html=1;align=center;verticalAlign=middle;resizable=0;points=[];labelBackgroundColor=#ffffff;" connectable="0" vertex="1" parent="qS2Gz_8m5Ndv3Xl6wykH-10">
          <mxGeometry x="-0.1269" relative="1" as="geometry">
            <mxPoint x="5" as="offset" />
          </mxGeometry>
        </mxCell>
        <mxCell id="qS2Gz_8m5Ndv3Xl6wykH-12" value="&lt;span style=&quot;color: rgb(0, 0, 0); font-family: Helvetica; font-size: 12px; font-style: normal; font-variant-ligatures: normal; font-variant-caps: normal; font-weight: 400; letter-spacing: normal; orphans: 2; text-align: center; text-indent: 0px; text-transform: none; widows: 2; word-spacing: 0px; -webkit-text-stroke-width: 0px; background-color: rgb(255, 255, 255); text-decoration-thickness: initial; text-decoration-style: initial; text-decoration-color: initial; float: none; display: inline !important;&quot;&gt;c3po:hasPropertyKind&lt;/span&gt;" style="endArrow=classic;html=1;endSize=8;arcSize=0;rounded=0;startArrow=oval;startFill=1;exitX=0.5;exitY=0;exitDx=0;exitDy=0;entryX=0.542;entryY=1;entryDx=0;entryDy=0;entryPerimeter=0;" edge="1" parent="1" source="qS2Gz_8m5Ndv3Xl6wykH-9" target="qS2Gz_8m5Ndv3Xl6wykH-15">
          <mxGeometry width="50" height="50" relative="1" as="geometry">
            <mxPoint x="1260" y="230" as="sourcePoint" />
            <mxPoint x="1220" y="190" as="targetPoint" />
            <mxPoint as="offset" />
          </mxGeometry>
        </mxCell>
        <mxCell id="qS2Gz_8m5Ndv3Xl6wykH-13" value="" style="endArrow=classic;html=1;endSize=8;arcSize=0;rounded=0;startArrow=oval;startFill=1;entryX=0;entryY=0.5;entryDx=0;entryDy=0;exitX=1;exitY=0.5;exitDx=0;exitDy=0;" edge="1" parent="1" source="qS2Gz_8m5Ndv3Xl6wykH-8" target="qS2Gz_8m5Ndv3Xl6wykH-15">
          <mxGeometry width="50" height="50" relative="1" as="geometry">
            <mxPoint x="1460" y="655" as="sourcePoint" />
            <mxPoint x="1240" y="545" as="targetPoint" />
          </mxGeometry>
        </mxCell>
        <mxCell id="qS2Gz_8m5Ndv3Xl6wykH-14" value="&lt;div&gt;c3po:forPropertyKind&lt;br&gt;&lt;/div&gt;" style="text;html=1;align=center;verticalAlign=middle;resizable=0;points=[];labelBackgroundColor=#ffffff;" connectable="0" vertex="1" parent="qS2Gz_8m5Ndv3Xl6wykH-13">
          <mxGeometry x="-0.1269" relative="1" as="geometry">
            <mxPoint as="offset" />
          </mxGeometry>
        </mxCell>
        <mxCell id="qS2Gz_8m5Ndv3Xl6wykH-15" value="c3po:PropertyKind" style="rounded=0;whiteSpace=wrap;html=1;snapToPoint=1;points=[[0.1,0],[0.2,0],[0.3,0],[0.4,0],[0.5,0],[0.6,0],[0.7,0],[0.8,0],[0.9,0],[0,0.1],[0,0.3],[0,0.5],[0,0.7],[0,0.9],[0.1,1],[0.2,1],[0.3,1],[0.4,1],[0.5,1],[0.6,1],[0.7,1],[0.8,1],[0.9,1],[1,0.1],[1,0.3],[1,0.5],[1,0.7],[1,0.9]];fillColor=#fad7ac;strokeColor=#b46504;" vertex="1" parent="1">
          <mxGeometry x="1290" y="540" width="190" height="30" as="geometry" />
        </mxCell>
        <mxCell id="qS2Gz_8m5Ndv3Xl6wykH-16" style="edgeStyle=orthogonalEdgeStyle;rounded=0;orthogonalLoop=1;jettySize=auto;html=1;exitX=0.4;exitY=0;exitDx=0;exitDy=0;entryX=0.1;entryY=1;entryDx=0;entryDy=0;startArrow=none;startFill=0;endArrow=block;endFill=0;" edge="1" parent="1" source="qS2Gz_8m5Ndv3Xl6wykH-17" target="qS2Gz_8m5Ndv3Xl6wykH-33">
          <mxGeometry relative="1" as="geometry">
            <Array as="points">
              <mxPoint x="791" y="505" />
              <mxPoint x="873" y="505" />
            </Array>
          </mxGeometry>
        </mxCell>
        <mxCell id="qS2Gz_8m5Ndv3Xl6wykH-17" value="c3po:ClassificationDesign" style="rounded=0;whiteSpace=wrap;html=1;snapToPoint=1;points=[[0.1,0],[0.2,0],[0.3,0],[0.4,0],[0.5,0],[0.6,0],[0.7,0],[0.8,0],[0.9,0],[0,0.1],[0,0.3],[0,0.5],[0,0.7],[0,0.9],[0.1,1],[0.2,1],[0.3,1],[0.4,1],[0.5,1],[0.6,1],[0.7,1],[0.8,1],[0.9,1],[1,0.1],[1,0.3],[1,0.5],[1,0.7],[1,0.9]];fillColor=#e1d5e7;strokeColor=#9673a6;" vertex="1" parent="1">
          <mxGeometry x="715" y="540" width="165" height="30" as="geometry" />
        </mxCell>
        <mxCell id="qS2Gz_8m5Ndv3Xl6wykH-18" value="(&lt;span style=&quot;background-color: rgb(255, 255, 255);&quot;&gt;∃&lt;/span&gt;) skos:inScheme: skos:ConceptScheme" style="rounded=0;whiteSpace=wrap;html=1;snapToPoint=1;points=[[0.1,0],[0.2,0],[0.3,0],[0.4,0],[0.5,0],[0.6,0],[0.7,0],[0.8,0],[0.9,0],[0,0.1],[0,0.3],[0,0.5],[0,0.7],[0,0.9],[0.1,1],[0.2,1],[0.3,1],[0.4,1],[0.5,1],[0.6,1],[0.7,1],[0.8,1],[0.9,1],[1,0.1],[1,0.3],[1,0.5],[1,0.7],[1,0.9]];dashed=1;align=left;fillColor=#e1d5e7;strokeColor=#9673a6;" vertex="1" parent="1">
          <mxGeometry x="715" y="570" width="165" height="30" as="geometry" />
        </mxCell>
        <mxCell id="qS2Gz_8m5Ndv3Xl6wykH-19" value="" style="endArrow=classic;html=1;endSize=8;arcSize=0;rounded=0;startArrow=oval;startFill=1;exitX=1;exitY=0.9;exitDx=0;exitDy=0;entryX=0.5;entryY=0;entryDx=0;entryDy=0;" edge="1" parent="1" source="qS2Gz_8m5Ndv3Xl6wykH-8" target="qS2Gz_8m5Ndv3Xl6wykH-21">
          <mxGeometry width="50" height="50" relative="1" as="geometry">
            <mxPoint x="1060" y="565" as="sourcePoint" />
            <mxPoint x="1150" y="695" as="targetPoint" />
            <Array as="points">
              <mxPoint x="1130" y="567" />
            </Array>
          </mxGeometry>
        </mxCell>
        <mxCell id="qS2Gz_8m5Ndv3Xl6wykH-20" value="&lt;div&gt;(F) c3po:hasComparisonOperator&lt;br&gt;&lt;/div&gt;" style="text;html=1;align=center;verticalAlign=middle;resizable=0;points=[];labelBackgroundColor=#ffffff;" connectable="0" vertex="1" parent="qS2Gz_8m5Ndv3Xl6wykH-19">
          <mxGeometry x="-0.1269" relative="1" as="geometry">
            <mxPoint y="23" as="offset" />
          </mxGeometry>
        </mxCell>
        <mxCell id="qS2Gz_8m5Ndv3Xl6wykH-21" value="c3po:ComparisonOperator" style="rounded=0;whiteSpace=wrap;html=1;snapToPoint=1;points=[[0.1,0],[0.2,0],[0.3,0],[0.4,0],[0.5,0],[0.6,0],[0.7,0],[0.8,0],[0.9,0],[0,0.1],[0,0.3],[0,0.5],[0,0.7],[0,0.9],[0.1,1],[0.2,1],[0.3,1],[0.4,1],[0.5,1],[0.6,1],[0.7,1],[0.8,1],[0.9,1],[1,0.1],[1,0.3],[1,0.5],[1,0.7],[1,0.9]];fillColor=#b0e3e6;strokeColor=#0e8088;" vertex="1" parent="1">
          <mxGeometry x="1050" y="650" width="160" height="30" as="geometry" />
        </mxCell>
        <mxCell id="qS2Gz_8m5Ndv3Xl6wykH-22" value="&lt;u&gt;c3po:ComparisonOperator-lt&lt;/u&gt;" style="rounded=0;whiteSpace=wrap;html=1;snapToPoint=1;points=[[0.1,0],[0.2,0],[0.3,0],[0.4,0],[0.5,0],[0.6,0],[0.7,0],[0.8,0],[0.9,0],[0,0.1],[0,0.3],[0,0.5],[0,0.7],[0,0.9],[0.1,1],[0.2,1],[0.3,1],[0.4,1],[0.5,1],[0.6,1],[0.7,1],[0.8,1],[0.9,1],[1,0.1],[1,0.3],[1,0.5],[1,0.7],[1,0.9]];fillColor=#b0e3e6;strokeColor=#0e8088;" vertex="1" parent="1">
          <mxGeometry x="1087" y="700" width="173" height="30" as="geometry" />
        </mxCell>
        <mxCell id="qS2Gz_8m5Ndv3Xl6wykH-23" value="&lt;u&gt;c3po:ComparisonOperator-le&lt;/u&gt;" style="rounded=0;whiteSpace=wrap;html=1;snapToPoint=1;points=[[0.1,0],[0.2,0],[0.3,0],[0.4,0],[0.5,0],[0.6,0],[0.7,0],[0.8,0],[0.9,0],[0,0.1],[0,0.3],[0,0.5],[0,0.7],[0,0.9],[0.1,1],[0.2,1],[0.3,1],[0.4,1],[0.5,1],[0.6,1],[0.7,1],[0.8,1],[0.9,1],[1,0.1],[1,0.3],[1,0.5],[1,0.7],[1,0.9]];fillColor=#b0e3e6;strokeColor=#0e8088;" vertex="1" parent="1">
          <mxGeometry x="1087" y="730" width="173" height="30" as="geometry" />
        </mxCell>
        <mxCell id="qS2Gz_8m5Ndv3Xl6wykH-24" value="&lt;u&gt;c3po:ComparisonOperator-eq&lt;/u&gt;" style="rounded=0;whiteSpace=wrap;html=1;snapToPoint=1;points=[[0.1,0],[0.2,0],[0.3,0],[0.4,0],[0.5,0],[0.6,0],[0.7,0],[0.8,0],[0.9,0],[0,0.1],[0,0.3],[0,0.5],[0,0.7],[0,0.9],[0.1,1],[0.2,1],[0.3,1],[0.4,1],[0.5,1],[0.6,1],[0.7,1],[0.8,1],[0.9,1],[1,0.1],[1,0.3],[1,0.5],[1,0.7],[1,0.9]];fillColor=#b0e3e6;strokeColor=#0e8088;" vertex="1" parent="1">
          <mxGeometry x="1087" y="760" width="173" height="30" as="geometry" />
        </mxCell>
        <mxCell id="qS2Gz_8m5Ndv3Xl6wykH-25" value="&lt;u&gt;c3po:ComparisonOperator-ge&lt;/u&gt;" style="rounded=0;whiteSpace=wrap;html=1;snapToPoint=1;points=[[0.1,0],[0.2,0],[0.3,0],[0.4,0],[0.5,0],[0.6,0],[0.7,0],[0.8,0],[0.9,0],[0,0.1],[0,0.3],[0,0.5],[0,0.7],[0,0.9],[0.1,1],[0.2,1],[0.3,1],[0.4,1],[0.5,1],[0.6,1],[0.7,1],[0.8,1],[0.9,1],[1,0.1],[1,0.3],[1,0.5],[1,0.7],[1,0.9]];fillColor=#b0e3e6;strokeColor=#0e8088;" vertex="1" parent="1">
          <mxGeometry x="1087" y="790" width="173" height="30" as="geometry" />
        </mxCell>
        <mxCell id="qS2Gz_8m5Ndv3Xl6wykH-26" value="&lt;u&gt;c3po:ComparisonOperator-gt&lt;/u&gt;" style="rounded=0;whiteSpace=wrap;html=1;snapToPoint=1;points=[[0.1,0],[0.2,0],[0.3,0],[0.4,0],[0.5,0],[0.6,0],[0.7,0],[0.8,0],[0.9,0],[0,0.1],[0,0.3],[0,0.5],[0,0.7],[0,0.9],[0.1,1],[0.2,1],[0.3,1],[0.4,1],[0.5,1],[0.6,1],[0.7,1],[0.8,1],[0.9,1],[1,0.1],[1,0.3],[1,0.5],[1,0.7],[1,0.9]];fillColor=#b0e3e6;strokeColor=#0e8088;" vertex="1" parent="1">
          <mxGeometry x="1087" y="820" width="173" height="30" as="geometry" />
        </mxCell>
        <mxCell id="qS2Gz_8m5Ndv3Xl6wykH-27" value="" style="endArrow=open;html=1;fontColor=#000099;endFill=0;dashed=1;entryX=0.1;entryY=1;entryDx=0;entryDy=0;endSize=8;exitX=0;exitY=0.5;exitDx=0;exitDy=0;rounded=0;" edge="1" parent="1" source="qS2Gz_8m5Ndv3Xl6wykH-22" target="qS2Gz_8m5Ndv3Xl6wykH-21">
          <mxGeometry width="50" height="50" relative="1" as="geometry">
            <mxPoint x="990" y="825" as="sourcePoint" />
            <mxPoint x="990" y="745" as="targetPoint" />
            <Array as="points">
              <mxPoint x="1066" y="715" />
            </Array>
          </mxGeometry>
        </mxCell>
        <mxCell id="qS2Gz_8m5Ndv3Xl6wykH-28" value="&amp;lt;&amp;lt;rdf:type&amp;gt;&amp;gt;" style="text;html=1;align=center;verticalAlign=middle;resizable=0;points=[];fontColor=#000000;labelBackgroundColor=#ffffff;" connectable="0" vertex="1" parent="qS2Gz_8m5Ndv3Xl6wykH-27">
          <mxGeometry x="-0.3277" relative="1" as="geometry">
            <mxPoint x="-18" y="-15" as="offset" />
          </mxGeometry>
        </mxCell>
        <mxCell id="qS2Gz_8m5Ndv3Xl6wykH-29" value="" style="endArrow=open;html=1;fontColor=#000099;endFill=0;dashed=1;endSize=8;exitX=0;exitY=0.5;exitDx=0;exitDy=0;rounded=0;entryX=0.1;entryY=1;entryDx=0;entryDy=0;" edge="1" parent="1" source="qS2Gz_8m5Ndv3Xl6wykH-23" target="qS2Gz_8m5Ndv3Xl6wykH-21">
          <mxGeometry width="50" height="50" relative="1" as="geometry">
            <mxPoint x="1097" y="725" as="sourcePoint" />
            <mxPoint x="1070" y="680" as="targetPoint" />
            <Array as="points">
              <mxPoint x="1066" y="745" />
            </Array>
          </mxGeometry>
        </mxCell>
        <mxCell id="qS2Gz_8m5Ndv3Xl6wykH-30" value="" style="endArrow=open;html=1;fontColor=#000099;endFill=0;dashed=1;endSize=8;exitX=0;exitY=0.5;exitDx=0;exitDy=0;rounded=0;entryX=0.1;entryY=1;entryDx=0;entryDy=0;" edge="1" parent="1" source="qS2Gz_8m5Ndv3Xl6wykH-26" target="qS2Gz_8m5Ndv3Xl6wykH-21">
          <mxGeometry width="50" height="50" relative="1" as="geometry">
            <mxPoint x="1060" y="837.5" as="sourcePoint" />
            <mxPoint x="1039" y="772.5" as="targetPoint" />
            <Array as="points">
              <mxPoint x="1066" y="835" />
            </Array>
          </mxGeometry>
        </mxCell>
        <mxCell id="qS2Gz_8m5Ndv3Xl6wykH-31" value="" style="endArrow=open;html=1;fontColor=#000099;endFill=0;dashed=1;endSize=8;exitX=0;exitY=0.5;exitDx=0;exitDy=0;rounded=0;entryX=0.1;entryY=1;entryDx=0;entryDy=0;" edge="1" parent="1" source="qS2Gz_8m5Ndv3Xl6wykH-25" target="qS2Gz_8m5Ndv3Xl6wykH-21">
          <mxGeometry width="50" height="50" relative="1" as="geometry">
            <mxPoint x="1097" y="845" as="sourcePoint" />
            <mxPoint x="1049" y="782.5" as="targetPoint" />
            <Array as="points">
              <mxPoint x="1066" y="805" />
            </Array>
          </mxGeometry>
        </mxCell>
        <mxCell id="qS2Gz_8m5Ndv3Xl6wykH-32" value="" style="endArrow=open;html=1;fontColor=#000099;endFill=0;dashed=1;endSize=8;exitX=0;exitY=0.5;exitDx=0;exitDy=0;rounded=0;entryX=0.1;entryY=1;entryDx=0;entryDy=0;" edge="1" parent="1" source="qS2Gz_8m5Ndv3Xl6wykH-24" target="qS2Gz_8m5Ndv3Xl6wykH-21">
          <mxGeometry width="50" height="50" relative="1" as="geometry">
            <mxPoint x="1097" y="815" as="sourcePoint" />
            <mxPoint x="1059" y="792.5" as="targetPoint" />
            <Array as="points">
              <mxPoint x="1066" y="775" />
            </Array>
          </mxGeometry>
        </mxCell>
        <mxCell id="qS2Gz_8m5Ndv3Xl6wykH-33" value="c3po:Design" style="rounded=0;whiteSpace=wrap;html=1;snapToPoint=1;points=[[0.1,0],[0.2,0],[0.3,0],[0.4,0],[0.5,0],[0.6,0],[0.7,0],[0.8,0],[0.9,0],[0,0.1],[0,0.3],[0,0.5],[0,0.7],[0,0.9],[0.1,1],[0.2,1],[0.3,1],[0.4,1],[0.5,1],[0.6,1],[0.7,1],[0.8,1],[0.9,1],[1,0.1],[1,0.3],[1,0.5],[1,0.7],[1,0.9]];fillColor=#e1d5e7;strokeColor=#9673a6;" vertex="1" parent="1">
          <mxGeometry x="860" y="440" width="130" height="30" as="geometry" />
        </mxCell>
        <mxCell id="qS2Gz_8m5Ndv3Xl6wykH-34" value="c3po:hasDesign" style="edgeStyle=orthogonalEdgeStyle;rounded=0;orthogonalLoop=1;jettySize=auto;html=1;startArrow=none;startFill=0;endArrow=classic;endFill=1;exitX=0;exitY=0.1;exitDx=0;exitDy=0;" edge="1" parent="1" source="qS2Gz_8m5Ndv3Xl6wykH-1">
          <mxGeometry x="-0.5631" relative="1" as="geometry">
            <mxPoint x="1300" y="950" as="sourcePoint" />
            <mxPoint x="920" y="470" as="targetPoint" />
            <Array as="points">
              <mxPoint x="920" y="953" />
              <mxPoint x="920" y="470" />
            </Array>
            <mxPoint as="offset" />
          </mxGeometry>
        </mxCell>
        <mxCell id="qS2Gz_8m5Ndv3Xl6wykH-35" value="" style="triangle;whiteSpace=wrap;html=1;rotation=-90;fillColor=#fad7ac;strokeColor=#b46504;" vertex="1" parent="1">
          <mxGeometry x="1432.5" y="542.5" width="75" height="90" as="geometry" />
        </mxCell>
        <mxCell id="qS2Gz_8m5Ndv3Xl6wykH-36" value="SKOS hierarchy" style="text;html=1;strokeColor=none;fillColor=none;align=center;verticalAlign=middle;whiteSpace=wrap;rounded=0;" vertex="1" parent="1">
          <mxGeometry x="1440" y="590" width="60" height="30" as="geometry" />
        </mxCell>
        <mxCell id="qS2Gz_8m5Ndv3Xl6wykH-37" value="" style="triangle;whiteSpace=wrap;html=1;rotation=-90;fillColor=#e1d5e7;strokeColor=#9673a6;" vertex="1" parent="1">
          <mxGeometry x="827" y="560" width="80" height="90" as="geometry" />
        </mxCell>
        <mxCell id="qS2Gz_8m5Ndv3Xl6wykH-38" value="SKOS hierarchies" style="text;html=1;align=center;verticalAlign=middle;whiteSpace=wrap;rounded=0;strokeColor=none;" vertex="1" parent="1">
          <mxGeometry x="840" y="610" width="60" height="30" as="geometry" />
        </mxCell>
        <mxCell id="qS2Gz_8m5Ndv3Xl6wykH-39" style="edgeStyle=orthogonalEdgeStyle;rounded=0;orthogonalLoop=1;jettySize=auto;html=1;exitX=1;exitY=0.5;exitDx=0;exitDy=0;entryX=-0.002;entryY=0.64;entryDx=0;entryDy=0;startArrow=none;startFill=0;endArrow=block;endFill=0;entryPerimeter=0;" edge="1" parent="1" source="qS2Gz_8m5Ndv3Xl6wykH-40" target="qS2Gz_8m5Ndv3Xl6wykH-37">
          <mxGeometry relative="1" as="geometry" />
        </mxCell>
        <mxCell id="qS2Gz_8m5Ndv3Xl6wykH-40" value="c3po:IfcElementType" style="rounded=0;whiteSpace=wrap;html=1;snapToPoint=1;points=[[0.1,0],[0.2,0],[0.3,0],[0.4,0],[0.5,0],[0.6,0],[0.7,0],[0.8,0],[0.9,0],[0,0.1],[0,0.3],[0,0.5],[0,0.7],[0,0.9],[0.1,1],[0.2,1],[0.3,1],[0.4,1],[0.5,1],[0.6,1],[0.7,1],[0.8,1],[0.9,1],[1,0.1],[1,0.3],[1,0.5],[1,0.7],[1,0.9]];fillColor=#e1d5e7;strokeColor=#9673a6;" vertex="1" parent="1">
          <mxGeometry x="722" y="660" width="138" height="30" as="geometry" />
        </mxCell>
        <mxCell id="qS2Gz_8m5Ndv3Xl6wykH-41" value="..." style="text;html=1;strokeColor=none;fillColor=none;align=center;verticalAlign=middle;whiteSpace=wrap;rounded=0;fontStyle=1" vertex="1" parent="1">
          <mxGeometry x="847" y="680" width="60" height="30" as="geometry" />
        </mxCell>
      </root>
    </mxGraphModel>
  </diagram>
  <diagram id="jpyzTD455GIsykz2NoYw" name="eli">
    <mxGraphModel dx="1861" dy="438" grid="1" gridSize="10" guides="1" tooltips="1" connect="1" arrows="1" fold="1" page="1" pageScale="1" pageWidth="827" pageHeight="1169" math="0" shadow="0">
      <root>
        <mxCell id="0" />
        <mxCell id="1" parent="0" />
        <mxCell id="55Hq7sejM1btMDG5Ddz4-1" value="c3po:Clause" style="rounded=0;whiteSpace=wrap;html=1;snapToPoint=1;points=[[0.1,0],[0.2,0],[0.3,0],[0.4,0],[0.5,0],[0.6,0],[0.7,0],[0.8,0],[0.9,0],[0,0.1],[0,0.3],[0,0.5],[0,0.7],[0,0.9],[0.1,1],[0.2,1],[0.3,1],[0.4,1],[0.5,1],[0.6,1],[0.7,1],[0.8,1],[0.9,1],[1,0.1],[1,0.3],[1,0.5],[1,0.7],[1,0.9]];fillColor=#ffe6cc;strokeColor=#d79b00;" parent="1" vertex="1">
          <mxGeometry x="-340" y="289.99999999999994" width="120" height="30" as="geometry" />
        </mxCell>
        <mxCell id="55Hq7sejM1btMDG5Ddz4-2" value="eli:LegalResource" style="rounded=0;whiteSpace=wrap;html=1;snapToPoint=1;points=[[0.1,0],[0.2,0],[0.3,0],[0.4,0],[0.5,0],[0.6,0],[0.7,0],[0.8,0],[0.9,0],[0,0.1],[0,0.3],[0,0.5],[0,0.7],[0,0.9],[0.1,1],[0.2,1],[0.3,1],[0.4,1],[0.5,1],[0.6,1],[0.7,1],[0.8,1],[0.9,1],[1,0.1],[1,0.3],[1,0.5],[1,0.7],[1,0.9]];fillColor=#f5f5f5;fontColor=#333333;strokeColor=#666666;" parent="1" vertex="1">
          <mxGeometry x="-290" y="130" width="190" height="30" as="geometry" />
        </mxCell>
        <mxCell id="55Hq7sejM1btMDG5Ddz4-3" value="eli:has_part" style="edgeStyle=orthogonalEdgeStyle;rounded=0;orthogonalLoop=1;jettySize=auto;html=1;startArrow=oval;startFill=1;exitX=0.5;exitY=1;exitDx=0;exitDy=0;entryX=0.5;entryY=0;entryDx=0;entryDy=0;" parent="1" source="55Hq7sejM1btMDG5Ddz4-2" target="55Hq7sejM1btMDG5Ddz4-4" edge="1">
          <mxGeometry relative="1" as="geometry">
            <mxPoint x="-120" y="180" as="targetPoint" />
          </mxGeometry>
        </mxCell>
        <mxCell id="55Hq7sejM1btMDG5Ddz4-4" value="eli:LegalResourceSubdivision" style="rounded=0;whiteSpace=wrap;html=1;snapToPoint=1;points=[[0.1,0],[0.2,0],[0.3,0],[0.4,0],[0.5,0],[0.6,0],[0.7,0],[0.8,0],[0.9,0],[0,0.1],[0,0.3],[0,0.5],[0,0.7],[0,0.9],[0.1,1],[0.2,1],[0.3,1],[0.4,1],[0.5,1],[0.6,1],[0.7,1],[0.8,1],[0.9,1],[1,0.1],[1,0.3],[1,0.5],[1,0.7],[1,0.9]];fillColor=#f5f5f5;fontColor=#333333;strokeColor=#666666;" parent="1" vertex="1">
          <mxGeometry x="-290" y="230" width="190" height="30" as="geometry" />
        </mxCell>
        <mxCell id="55Hq7sejM1btMDG5Ddz4-5" style="edgeStyle=orthogonalEdgeStyle;rounded=0;orthogonalLoop=1;jettySize=auto;html=1;entryX=0.5;entryY=1;entryDx=0;entryDy=0;startArrow=none;startFill=0;endArrow=block;endFill=0;exitX=0;exitY=0.5;exitDx=0;exitDy=0;" parent="1" source="55Hq7sejM1btMDG5Ddz4-1" target="55Hq7sejM1btMDG5Ddz4-4" edge="1">
          <mxGeometry relative="1" as="geometry">
            <mxPoint x="-95" y="319.79999999999995" as="sourcePoint" />
            <mxPoint x="-185" y="274.8" as="targetPoint" />
            <Array as="points">
              <mxPoint x="-195" y="394.79999999999995" />
            </Array>
          </mxGeometry>
        </mxCell>
      </root>
    </mxGraphModel>
  </diagram>
  <diagram id="1feagbQHmoZOHPsf4hwp" name="RASE">
    <mxGraphModel dx="1861" dy="1607" grid="1" gridSize="10" guides="1" tooltips="1" connect="1" arrows="1" fold="1" page="1" pageScale="1" pageWidth="827" pageHeight="1169" math="0" shadow="0">
      <root>
        <mxCell id="0" />
        <mxCell id="1" parent="0" />
        <mxCell id="FAwjFDyiY8KQhnbfNTzw-2" value="c3po:DocumentSubdivision" style="rounded=0;whiteSpace=wrap;html=1;snapToPoint=1;points=[[0.1,0],[0.2,0],[0.3,0],[0.4,0],[0.5,0],[0.6,0],[0.7,0],[0.8,0],[0.9,0],[0,0.1],[0,0.3],[0,0.5],[0,0.7],[0,0.9],[0.1,1],[0.2,1],[0.3,1],[0.4,1],[0.5,1],[0.6,1],[0.7,1],[0.8,1],[0.9,1],[1,0.1],[1,0.3],[1,0.5],[1,0.7],[1,0.9]];fillColor=#fff2cc;strokeColor=#d6b656;" parent="1" vertex="1">
          <mxGeometry x="-380" y="-988" width="190" height="30" as="geometry" />
        </mxCell>
        <mxCell id="FAwjFDyiY8KQhnbfNTzw-4" value="c3po:RASE" style="rounded=0;whiteSpace=wrap;html=1;snapToPoint=1;points=[[0.1,0],[0.2,0],[0.3,0],[0.4,0],[0.5,0],[0.6,0],[0.7,0],[0.8,0],[0.9,0],[0,0.1],[0,0.3],[0,0.5],[0,0.7],[0,0.9],[0.1,1],[0.2,1],[0.3,1],[0.4,1],[0.5,1],[0.6,1],[0.7,1],[0.8,1],[0.9,1],[1,0.1],[1,0.3],[1,0.5],[1,0.7],[1,0.9]];fillColor=#d5e8d4;strokeColor=#82b366;" parent="1" vertex="1">
          <mxGeometry x="-682" y="-1108" width="100" height="30" as="geometry" />
        </mxCell>
        <mxCell id="FAwjFDyiY8KQhnbfNTzw-5" value="c3po:Requirement" style="rounded=0;whiteSpace=wrap;html=1;snapToPoint=1;points=[[0.1,0],[0.2,0],[0.3,0],[0.4,0],[0.5,0],[0.6,0],[0.7,0],[0.8,0],[0.9,0],[0,0.1],[0,0.3],[0,0.5],[0,0.7],[0,0.9],[0.1,1],[0.2,1],[0.3,1],[0.4,1],[0.5,1],[0.6,1],[0.7,1],[0.8,1],[0.9,1],[1,0.1],[1,0.3],[1,0.5],[1,0.7],[1,0.9]];fillColor=#1ba1e2;strokeColor=#006EAF;fontColor=#ffffff;" parent="1" vertex="1">
          <mxGeometry x="-614" y="-1048" width="100" height="30" as="geometry" />
        </mxCell>
        <mxCell id="FAwjFDyiY8KQhnbfNTzw-6" value="c3po:Selection" style="rounded=0;whiteSpace=wrap;html=1;snapToPoint=1;points=[[0.1,0],[0.2,0],[0.3,0],[0.4,0],[0.5,0],[0.6,0],[0.7,0],[0.8,0],[0.9,0],[0,0.1],[0,0.3],[0,0.5],[0,0.7],[0,0.9],[0.1,1],[0.2,1],[0.3,1],[0.4,1],[0.5,1],[0.6,1],[0.7,1],[0.8,1],[0.9,1],[1,0.1],[1,0.3],[1,0.5],[1,0.7],[1,0.9]];fillColor=#d0cee2;strokeColor=#56517e;" parent="1" vertex="1">
          <mxGeometry x="-614" y="-1008" width="100" height="30" as="geometry" />
        </mxCell>
        <mxCell id="FAwjFDyiY8KQhnbfNTzw-7" value="c3po:Applicability" style="rounded=0;whiteSpace=wrap;html=1;snapToPoint=1;points=[[0.1,0],[0.2,0],[0.3,0],[0.4,0],[0.5,0],[0.6,0],[0.7,0],[0.8,0],[0.9,0],[0,0.1],[0,0.3],[0,0.5],[0,0.7],[0,0.9],[0.1,1],[0.2,1],[0.3,1],[0.4,1],[0.5,1],[0.6,1],[0.7,1],[0.8,1],[0.9,1],[1,0.1],[1,0.3],[1,0.5],[1,0.7],[1,0.9]];fillColor=#d5e8d4;strokeColor=#82b366;gradientColor=#97d077;" parent="1" vertex="1">
          <mxGeometry x="-614" y="-968" width="100" height="30" as="geometry" />
        </mxCell>
        <mxCell id="FAwjFDyiY8KQhnbfNTzw-8" value="c3po:Exception" style="rounded=0;whiteSpace=wrap;html=1;snapToPoint=1;points=[[0.1,0],[0.2,0],[0.3,0],[0.4,0],[0.5,0],[0.6,0],[0.7,0],[0.8,0],[0.9,0],[0,0.1],[0,0.3],[0,0.5],[0,0.7],[0,0.9],[0.1,1],[0.2,1],[0.3,1],[0.4,1],[0.5,1],[0.6,1],[0.7,1],[0.8,1],[0.9,1],[1,0.1],[1,0.3],[1,0.5],[1,0.7],[1,0.9]];fillColor=#ffff88;strokeColor=#36393d;" parent="1" vertex="1">
          <mxGeometry x="-614" y="-930" width="100" height="30" as="geometry" />
        </mxCell>
        <mxCell id="FAwjFDyiY8KQhnbfNTzw-9" value="" style="endArrow=classic;html=1;rounded=0;" parent="1" edge="1">
          <mxGeometry width="50" height="50" relative="1" as="geometry">
            <mxPoint x="-644" y="-1038" as="sourcePoint" />
            <mxPoint x="-644" y="-1078" as="targetPoint" />
          </mxGeometry>
        </mxCell>
        <mxCell id="FAwjFDyiY8KQhnbfNTzw-10" value="" style="endArrow=none;html=1;rounded=0;" parent="1" edge="1">
          <mxGeometry width="50" height="50" relative="1" as="geometry">
            <mxPoint x="-644" y="-998" as="sourcePoint" />
            <mxPoint x="-614" y="-998" as="targetPoint" />
            <Array as="points">
              <mxPoint x="-634" y="-998" />
            </Array>
          </mxGeometry>
        </mxCell>
        <mxCell id="FAwjFDyiY8KQhnbfNTzw-11" value="" style="endArrow=classic;html=1;rounded=0;" parent="1" edge="1">
          <mxGeometry width="50" height="50" relative="1" as="geometry">
            <mxPoint x="-644" y="-918" as="sourcePoint" />
            <mxPoint x="-644" y="-1078" as="targetPoint" />
          </mxGeometry>
        </mxCell>
        <mxCell id="FAwjFDyiY8KQhnbfNTzw-12" value="" style="endArrow=none;html=1;rounded=0;" parent="1" edge="1">
          <mxGeometry width="50" height="50" relative="1" as="geometry">
            <mxPoint x="-644" y="-1038" as="sourcePoint" />
            <mxPoint x="-614" y="-1038" as="targetPoint" />
            <Array as="points">
              <mxPoint x="-634" y="-1038" />
            </Array>
          </mxGeometry>
        </mxCell>
        <mxCell id="FAwjFDyiY8KQhnbfNTzw-13" value="" style="endArrow=none;html=1;rounded=0;" parent="1" edge="1">
          <mxGeometry width="50" height="50" relative="1" as="geometry">
            <mxPoint x="-643" y="-953" as="sourcePoint" />
            <mxPoint x="-613" y="-953" as="targetPoint" />
            <Array as="points">
              <mxPoint x="-633" y="-953" />
            </Array>
          </mxGeometry>
        </mxCell>
        <mxCell id="FAwjFDyiY8KQhnbfNTzw-14" value="" style="endArrow=none;html=1;rounded=0;" parent="1" edge="1">
          <mxGeometry width="50" height="50" relative="1" as="geometry">
            <mxPoint x="-643" y="-916" as="sourcePoint" />
            <mxPoint x="-613" y="-916" as="targetPoint" />
            <Array as="points">
              <mxPoint x="-633" y="-916" />
            </Array>
          </mxGeometry>
        </mxCell>
        <mxCell id="Oe6s36Wdul2Rn-oWo-r5-2" value="" style="endArrow=classic;html=1;rounded=0;entryX=1;entryY=0.3;entryDx=0;entryDy=0;" parent="1" target="FAwjFDyiY8KQhnbfNTzw-5" edge="1">
          <mxGeometry x="-1" y="190" relative="1" as="geometry">
            <mxPoint x="-330" y="-990" as="sourcePoint" />
            <mxPoint x="-250" y="-760" as="targetPoint" />
            <Array as="points">
              <mxPoint x="-330" y="-1040" />
            </Array>
            <mxPoint x="130" y="180" as="offset" />
          </mxGeometry>
        </mxCell>
        <mxCell id="Oe6s36Wdul2Rn-oWo-r5-4" value="hasRequirement" style="edgeLabel;html=1;align=center;verticalAlign=middle;resizable=0;points=[];" parent="Oe6s36Wdul2Rn-oWo-r5-2" connectable="0" vertex="1">
          <mxGeometry x="0.1157" y="-2" relative="1" as="geometry">
            <mxPoint x="1" as="offset" />
          </mxGeometry>
        </mxCell>
        <mxCell id="Oe6s36Wdul2Rn-oWo-r5-7" value="hasSelection" style="endArrow=classic;html=1;rounded=0;entryX=1;entryY=0.5;entryDx=0;entryDy=0;exitX=0.1;exitY=0;exitDx=0;exitDy=0;" parent="1" source="FAwjFDyiY8KQhnbfNTzw-2" target="FAwjFDyiY8KQhnbfNTzw-6" edge="1">
          <mxGeometry relative="1" as="geometry">
            <mxPoint x="-410" y="-960" as="sourcePoint" />
            <mxPoint x="-250" y="-900" as="targetPoint" />
            <Array as="points">
              <mxPoint x="-450" y="-993" />
            </Array>
          </mxGeometry>
        </mxCell>
        <mxCell id="Oe6s36Wdul2Rn-oWo-r5-9" value="hasApplicability" style="endArrow=classic;html=1;rounded=0;entryX=1;entryY=0.5;entryDx=0;entryDy=0;exitX=0;exitY=0.9;exitDx=0;exitDy=0;" parent="1" source="FAwjFDyiY8KQhnbfNTzw-2" target="FAwjFDyiY8KQhnbfNTzw-7" edge="1">
          <mxGeometry relative="1" as="geometry">
            <mxPoint x="-350" y="-900" as="sourcePoint" />
            <mxPoint x="-250" y="-900" as="targetPoint" />
          </mxGeometry>
        </mxCell>
        <mxCell id="Oe6s36Wdul2Rn-oWo-r5-11" value="hasException" style="endArrow=classic;html=1;rounded=0;entryX=1;entryY=0.5;entryDx=0;entryDy=0;exitX=0.7;exitY=1;exitDx=0;exitDy=0;" parent="1" source="FAwjFDyiY8KQhnbfNTzw-2" target="FAwjFDyiY8KQhnbfNTzw-8" edge="1">
          <mxGeometry width="50" height="50" relative="1" as="geometry">
            <mxPoint x="-330" y="-880" as="sourcePoint" />
            <mxPoint x="-280" y="-930" as="targetPoint" />
          </mxGeometry>
        </mxCell>
      </root>
    </mxGraphModel>
  </diagram>
  <diagram id="ujmJwDW54Lf6-xwrMl7L" name="aec3po_light">
    <mxGraphModel dx="1861" dy="1607" grid="1" gridSize="10" guides="1" tooltips="1" connect="1" arrows="1" fold="1" page="1" pageScale="1" pageWidth="827" pageHeight="1169" math="0" shadow="0">
      <root>
        <mxCell id="0" />
        <mxCell id="1" parent="0" />
        <mxCell id="6jmo85DI6xjCP64ScIo4-1" value="&lt;b&gt;aec3po&lt;/b&gt;&lt;span style=&quot;background-color: initial;&quot;&gt;: https://w3id.org/lbd/aec3po/&lt;/span&gt;&lt;b&gt;&lt;br&gt;&lt;/b&gt;&lt;b style=&quot;--tw-border-spacing-x: 0; --tw-border-spacing-y: 0; --tw-translate-x: 0; --tw-translate-y: 0; --tw-rotate: 0; --tw-skew-x: 0; --tw-skew-y: 0; --tw-scale-x: 1; --tw-scale-y: 1; --tw-pan-x: ; --tw-pan-y: ; --tw-pinch-zoom: ; --tw-scroll-snap-strictness: proximity; --tw-ordinal: ; --tw-slashed-zero: ; --tw-numeric-figure: ; --tw-numeric-spacing: ; --tw-numeric-fraction: ; --tw-ring-inset: ; --tw-ring-offset-width: 0px; --tw-ring-offset-color: #fff; --tw-ring-color: rgb(59 130 246 / 0.5); --tw-ring-offset-shadow: 0 0 #0000; --tw-ring-shadow: 0 0 #0000; --tw-shadow: 0 0 #0000; --tw-shadow-colored: 0 0 #0000; --tw-blur: ; --tw-brightness: ; --tw-contrast: ; --tw-grayscale: ; --tw-hue-rotate: ; --tw-invert: ; --tw-saturate: ; --tw-sepia: ; --tw-drop-shadow: ; --tw-backdrop-blur: ; --tw-backdrop-brightness: ; --tw-backdrop-contrast: ; --tw-backdrop-grayscale: ; --tw-backdrop-hue-rotate: ; --tw-backdrop-invert: ; --tw-backdrop-opacity: ; --tw-backdrop-saturate: ; --tw-backdrop-sepia: ; border-color: var(--border-color); background-color: initial;&quot;&gt;dct:&lt;/b&gt;&amp;nbsp;http://purl.org/dc/terms/" style="shape=note;whiteSpace=wrap;html=1;backgroundOutline=1;darkOpacity=0.05;size=13;align=left;" vertex="1" parent="1">
          <mxGeometry y="-140" width="260" height="40" as="geometry" />
        </mxCell>
        <mxCell id="6jmo85DI6xjCP64ScIo4-2" value="aec3po:FeatureOfInterest" style="rounded=0;whiteSpace=wrap;html=1;snapToPoint=1;points=[[0.1,0],[0.2,0],[0.3,0],[0.4,0],[0.5,0],[0.6,0],[0.7,0],[0.8,0],[0.9,0],[0,0.1],[0,0.3],[0,0.5],[0,0.7],[0,0.9],[0.1,1],[0.2,1],[0.3,1],[0.4,1],[0.5,1],[0.6,1],[0.7,1],[0.8,1],[0.9,1],[1,0.1],[1,0.3],[1,0.5],[1,0.7],[1,0.9]];fillColor=#fa6800;fontColor=#000000;strokeColor=#C73500;" vertex="1" parent="1">
          <mxGeometry x="1300" y="950" width="190" height="30" as="geometry" />
        </mxCell>
        <mxCell id="6jmo85DI6xjCP64ScIo4-3" value="aec3po:hasValue" style="rounded=0;whiteSpace=wrap;html=1;snapToPoint=1;points=[[0.1,0],[0.2,0],[0.3,0],[0.4,0],[0.5,0],[0.6,0],[0.7,0],[0.8,0],[0.9,0],[0,0.1],[0,0.3],[0,0.5],[0,0.7],[0,0.9],[0.1,1],[0.2,1],[0.3,1],[0.4,1],[0.5,1],[0.6,1],[0.7,1],[0.8,1],[0.9,1],[1,0.1],[1,0.3],[1,0.5],[1,0.7],[1,0.9]];dashed=1;fillColor=#e1d5e7;strokeColor=#9673a6;" vertex="1" parent="1">
          <mxGeometry x="951" y="909.9999999999999" width="136" height="30" as="geometry" />
        </mxCell>
        <mxCell id="6jmo85DI6xjCP64ScIo4-4" style="edgeStyle=orthogonalEdgeStyle;rounded=0;orthogonalLoop=1;jettySize=auto;html=1;exitX=0;exitY=0.5;exitDx=0;exitDy=0;entryX=0.6;entryY=1;entryDx=0;entryDy=0;startArrow=none;startFill=0;endArrow=block;endFill=0;" edge="1" parent="1" source="6jmo85DI6xjCP64ScIo4-6" target="6jmo85DI6xjCP64ScIo4-68">
          <mxGeometry relative="1" as="geometry">
            <Array as="points">
              <mxPoint x="938" y="895" />
            </Array>
          </mxGeometry>
        </mxCell>
        <mxCell id="6jmo85DI6xjCP64ScIo4-5" value="aec3po:hasDesign" style="edgeStyle=orthogonalEdgeStyle;rounded=0;orthogonalLoop=1;jettySize=auto;html=1;entryX=1;entryY=0.5;entryDx=0;entryDy=0;startArrow=none;startFill=0;endArrow=classic;endFill=1;exitX=0;exitY=0.5;exitDx=0;exitDy=0;" edge="1" parent="1" source="6jmo85DI6xjCP64ScIo4-10" target="6jmo85DI6xjCP64ScIo4-6">
          <mxGeometry relative="1" as="geometry">
            <mxPoint x="1220" y="920" as="sourcePoint" />
          </mxGeometry>
        </mxCell>
        <mxCell id="6jmo85DI6xjCP64ScIo4-6" value="aec3po:PropertyDesign" style="rounded=0;whiteSpace=wrap;html=1;snapToPoint=1;points=[[0.1,0],[0.2,0],[0.3,0],[0.4,0],[0.5,0],[0.6,0],[0.7,0],[0.8,0],[0.9,0],[0,0.1],[0,0.3],[0,0.5],[0,0.7],[0,0.9],[0.1,1],[0.2,1],[0.3,1],[0.4,1],[0.5,1],[0.6,1],[0.7,1],[0.8,1],[0.9,1],[1,0.1],[1,0.3],[1,0.5],[1,0.7],[1,0.9]];fillColor=#e1d5e7;strokeColor=#9673a6;" vertex="1" parent="1">
          <mxGeometry x="951" y="879.9999999999999" width="136" height="30" as="geometry" />
        </mxCell>
        <mxCell id="6jmo85DI6xjCP64ScIo4-7" value="aec3po:hasValue" style="rounded=0;whiteSpace=wrap;html=1;snapToPoint=1;points=[[0.1,0],[0.2,0],[0.3,0],[0.4,0],[0.5,0],[0.6,0],[0.7,0],[0.8,0],[0.9,0],[0,0.1],[0,0.3],[0,0.5],[0,0.7],[0,0.9],[0.1,1],[0.2,1],[0.3,1],[0.4,1],[0.5,1],[0.6,1],[0.7,1],[0.8,1],[0.9,1],[1,0.1],[1,0.3],[1,0.5],[1,0.7],[1,0.9]];dashed=1;fillColor=#e1d5e7;strokeColor=#9673a6;" vertex="1" parent="1">
          <mxGeometry x="950" y="570" width="160" height="30" as="geometry" />
        </mxCell>
        <mxCell id="6jmo85DI6xjCP64ScIo4-8" style="edgeStyle=orthogonalEdgeStyle;rounded=0;orthogonalLoop=1;jettySize=auto;html=1;entryX=0.6;entryY=1;entryDx=0;entryDy=0;startArrow=none;startFill=0;endArrow=block;endFill=0;exitX=0;exitY=0.5;exitDx=0;exitDy=0;" edge="1" parent="1" source="6jmo85DI6xjCP64ScIo4-9" target="6jmo85DI6xjCP64ScIo4-68">
          <mxGeometry relative="1" as="geometry">
            <Array as="points">
              <mxPoint x="940" y="555" />
              <mxPoint x="940" y="470" />
            </Array>
          </mxGeometry>
        </mxCell>
        <mxCell id="6jmo85DI6xjCP64ScIo4-9" value="aec3po:PropertyKindDesign" style="rounded=0;whiteSpace=wrap;html=1;snapToPoint=1;points=[[0.1,0],[0.2,0],[0.3,0],[0.4,0],[0.5,0],[0.6,0],[0.7,0],[0.8,0],[0.9,0],[0,0.1],[0,0.3],[0,0.5],[0,0.7],[0,0.9],[0.1,1],[0.2,1],[0.3,1],[0.4,1],[0.5,1],[0.6,1],[0.7,1],[0.8,1],[0.9,1],[1,0.1],[1,0.3],[1,0.5],[1,0.7],[1,0.9]];fillColor=#e1d5e7;strokeColor=#9673a6;" vertex="1" parent="1">
          <mxGeometry x="950" y="540" width="160" height="30" as="geometry" />
        </mxCell>
        <mxCell id="6jmo85DI6xjCP64ScIo4-10" value="aec3po:Property" style="rounded=0;whiteSpace=wrap;html=1;snapToPoint=1;points=[[0.1,0],[0.2,0],[0.3,0],[0.4,0],[0.5,0],[0.6,0],[0.7,0],[0.8,0],[0.9,0],[0,0.1],[0,0.3],[0,0.5],[0,0.7],[0,0.9],[0.1,1],[0.2,1],[0.3,1],[0.4,1],[0.5,1],[0.6,1],[0.7,1],[0.8,1],[0.9,1],[1,0.1],[1,0.3],[1,0.5],[1,0.7],[1,0.9]];fillColor=#f0a30a;fontColor=#000000;strokeColor=#BD7000;" vertex="1" parent="1">
          <mxGeometry x="1300" y="880" width="190" height="30" as="geometry" />
        </mxCell>
        <mxCell id="6jmo85DI6xjCP64ScIo4-11" style="edgeStyle=orthogonalEdgeStyle;rounded=0;orthogonalLoop=1;jettySize=auto;html=1;entryX=0.6;entryY=1;entryDx=0;entryDy=0;endArrow=block;endFill=0;" edge="1" parent="1" source="6jmo85DI6xjCP64ScIo4-12" target="6jmo85DI6xjCP64ScIo4-91">
          <mxGeometry relative="1" as="geometry" />
        </mxCell>
        <mxCell id="6jmo85DI6xjCP64ScIo4-12" value="aec3po:Statement" style="rounded=0;whiteSpace=wrap;html=1;snapToPoint=1;points=[[0.1,0],[0.2,0],[0.3,0],[0.4,0],[0.5,0],[0.6,0],[0.7,0],[0.8,0],[0.9,0],[0,0.1],[0,0.3],[0,0.5],[0,0.7],[0,0.9],[0.1,1],[0.2,1],[0.3,1],[0.4,1],[0.5,1],[0.6,1],[0.7,1],[0.8,1],[0.9,1],[1,0.1],[1,0.3],[1,0.5],[1,0.7],[1,0.9]];fillColor=#ffe6cc;strokeColor=#d79b00;" vertex="1" parent="1">
          <mxGeometry x="60" y="310" width="120" height="30" as="geometry" />
        </mxCell>
        <mxCell id="6jmo85DI6xjCP64ScIo4-13" value="" style="endArrow=classic;html=1;entryX=0.5;entryY=1;entryDx=0;entryDy=0;endSize=8;arcSize=0;rounded=0;startArrow=oval;startFill=1;exitX=0.5;exitY=0;exitDx=0;exitDy=0;" edge="1" parent="1" source="6jmo85DI6xjCP64ScIo4-2" target="6jmo85DI6xjCP64ScIo4-10">
          <mxGeometry width="50" height="50" relative="1" as="geometry">
            <mxPoint x="1340" y="545" as="sourcePoint" />
            <mxPoint x="647" y="180" as="targetPoint" />
          </mxGeometry>
        </mxCell>
        <mxCell id="6jmo85DI6xjCP64ScIo4-14" value="&lt;div&gt;(IF) c3po:hasProperty&lt;br&gt;&lt;/div&gt;" style="text;html=1;align=center;verticalAlign=middle;resizable=0;points=[];labelBackgroundColor=#ffffff;" vertex="1" connectable="0" parent="6jmo85DI6xjCP64ScIo4-13">
          <mxGeometry x="-0.1269" relative="1" as="geometry">
            <mxPoint x="5" as="offset" />
          </mxGeometry>
        </mxCell>
        <mxCell id="6jmo85DI6xjCP64ScIo4-15" value="&lt;span style=&quot;color: rgb(0, 0, 0); font-family: Helvetica; font-size: 12px; font-style: normal; font-variant-ligatures: normal; font-variant-caps: normal; font-weight: 400; letter-spacing: normal; orphans: 2; text-align: center; text-indent: 0px; text-transform: none; widows: 2; word-spacing: 0px; -webkit-text-stroke-width: 0px; background-color: rgb(255, 255, 255); text-decoration-thickness: initial; text-decoration-style: initial; text-decoration-color: initial; float: none; display: inline !important;&quot;&gt;aec3po:hasPropertyKind&lt;/span&gt;" style="endArrow=classic;html=1;endSize=8;arcSize=0;rounded=0;startArrow=oval;startFill=1;exitX=0.5;exitY=0;exitDx=0;exitDy=0;entryX=0.542;entryY=1;entryDx=0;entryDy=0;entryPerimeter=0;" edge="1" parent="1" source="6jmo85DI6xjCP64ScIo4-10" target="6jmo85DI6xjCP64ScIo4-18">
          <mxGeometry width="50" height="50" relative="1" as="geometry">
            <mxPoint x="1260" y="230" as="sourcePoint" />
            <mxPoint x="1220" y="190" as="targetPoint" />
            <mxPoint as="offset" />
          </mxGeometry>
        </mxCell>
        <mxCell id="6jmo85DI6xjCP64ScIo4-16" value="" style="endArrow=classic;html=1;endSize=8;arcSize=0;rounded=0;startArrow=oval;startFill=1;entryX=0;entryY=0.5;entryDx=0;entryDy=0;exitX=1;exitY=0.5;exitDx=0;exitDy=0;" edge="1" parent="1" source="6jmo85DI6xjCP64ScIo4-9" target="6jmo85DI6xjCP64ScIo4-18">
          <mxGeometry width="50" height="50" relative="1" as="geometry">
            <mxPoint x="1460" y="655" as="sourcePoint" />
            <mxPoint x="1240" y="545" as="targetPoint" />
          </mxGeometry>
        </mxCell>
        <mxCell id="6jmo85DI6xjCP64ScIo4-17" value="&lt;div&gt;aec3po:forPropertyKind&lt;br&gt;&lt;/div&gt;" style="text;html=1;align=center;verticalAlign=middle;resizable=0;points=[];labelBackgroundColor=#ffffff;" vertex="1" connectable="0" parent="6jmo85DI6xjCP64ScIo4-16">
          <mxGeometry x="-0.1269" relative="1" as="geometry">
            <mxPoint as="offset" />
          </mxGeometry>
        </mxCell>
        <mxCell id="6jmo85DI6xjCP64ScIo4-18" value="aec3po:PropertyKind" style="rounded=0;whiteSpace=wrap;html=1;snapToPoint=1;points=[[0.1,0],[0.2,0],[0.3,0],[0.4,0],[0.5,0],[0.6,0],[0.7,0],[0.8,0],[0.9,0],[0,0.1],[0,0.3],[0,0.5],[0,0.7],[0,0.9],[0.1,1],[0.2,1],[0.3,1],[0.4,1],[0.5,1],[0.6,1],[0.7,1],[0.8,1],[0.9,1],[1,0.1],[1,0.3],[1,0.5],[1,0.7],[1,0.9]];fillColor=#fad7ac;strokeColor=#b46504;" vertex="1" parent="1">
          <mxGeometry x="1290" y="540" width="190" height="30" as="geometry" />
        </mxCell>
        <mxCell id="6jmo85DI6xjCP64ScIo4-19" value="" style="endArrow=classic;html=1;endSize=8;arcSize=0;rounded=0;startArrow=none;startFill=0;entryX=0;entryY=0.5;entryDx=0;entryDy=0;exitX=1;exitY=0.7;exitDx=0;exitDy=0;" edge="1" parent="1" source="6jmo85DI6xjCP64ScIo4-22" target="6jmo85DI6xjCP64ScIo4-68">
          <mxGeometry width="50" height="50" relative="1" as="geometry">
            <mxPoint x="600" y="245" as="sourcePoint" />
            <mxPoint x="840" y="240" as="targetPoint" />
            <Array as="points">
              <mxPoint x="560" y="251" />
              <mxPoint x="720" y="455" />
            </Array>
          </mxGeometry>
        </mxCell>
        <mxCell id="6jmo85DI6xjCP64ScIo4-20" value="&lt;div&gt;aec3po:forDesign&lt;br&gt;&lt;/div&gt;" style="text;html=1;align=center;verticalAlign=middle;resizable=0;points=[];labelBackgroundColor=#ffffff;" vertex="1" connectable="0" parent="6jmo85DI6xjCP64ScIo4-19">
          <mxGeometry x="-0.1269" relative="1" as="geometry">
            <mxPoint x="-76" y="-111" as="offset" />
          </mxGeometry>
        </mxCell>
        <mxCell id="6jmo85DI6xjCP64ScIo4-21" value="aec3po:ProcessVerifier" style="rounded=0;whiteSpace=wrap;html=1;snapToPoint=1;points=[[0.1,0],[0.2,0],[0.3,0],[0.4,0],[0.5,0],[0.6,0],[0.7,0],[0.8,0],[0.9,0],[0,0.1],[0,0.3],[0,0.5],[0,0.7],[0,0.9],[0.1,1],[0.2,1],[0.3,1],[0.4,1],[0.5,1],[0.6,1],[0.7,1],[0.8,1],[0.9,1],[1,0.1],[1,0.3],[1,0.5],[1,0.7],[1,0.9]];fillColor=#d5e8d4;strokeColor=#82b366;" vertex="1" parent="1">
          <mxGeometry x="620" y="270" width="140" height="30" as="geometry" />
        </mxCell>
        <mxCell id="6jmo85DI6xjCP64ScIo4-22" value="aec3po:Check" style="rounded=0;whiteSpace=wrap;html=1;snapToPoint=1;points=[[0.1,0],[0.2,0],[0.3,0],[0.4,0],[0.5,0],[0.6,0],[0.7,0],[0.8,0],[0.9,0],[0,0.1],[0,0.3],[0,0.5],[0,0.7],[0,0.9],[0.1,1],[0.2,1],[0.3,1],[0.4,1],[0.5,1],[0.6,1],[0.7,1],[0.8,1],[0.9,1],[1,0.1],[1,0.3],[1,0.5],[1,0.7],[1,0.9]];fillColor=#fff2cc;strokeColor=#d6b656;" vertex="1" parent="1">
          <mxGeometry x="400" y="230" width="100" height="30" as="geometry" />
        </mxCell>
        <mxCell id="6jmo85DI6xjCP64ScIo4-23" value="aec3po:madeBy" style="edgeStyle=orthogonalEdgeStyle;rounded=0;orthogonalLoop=1;jettySize=auto;html=1;entryX=0.5;entryY=0;entryDx=0;entryDy=0;startArrow=none;startFill=0;endArrow=classic;endFill=1;exitX=1;exitY=0.5;exitDx=0;exitDy=0;" edge="1" parent="1" source="6jmo85DI6xjCP64ScIo4-25" target="6jmo85DI6xjCP64ScIo4-21">
          <mxGeometry relative="1" as="geometry">
            <Array as="points">
              <mxPoint x="690" y="145" />
            </Array>
          </mxGeometry>
        </mxCell>
        <mxCell id="6jmo85DI6xjCP64ScIo4-24" value="aec3po:checked" style="edgeStyle=orthogonalEdgeStyle;rounded=0;orthogonalLoop=1;jettySize=auto;html=1;startArrow=none;startFill=0;endArrow=classic;endFill=1;" edge="1" parent="1" source="6jmo85DI6xjCP64ScIo4-25" target="6jmo85DI6xjCP64ScIo4-22">
          <mxGeometry x="-0.4283" relative="1" as="geometry">
            <mxPoint as="offset" />
          </mxGeometry>
        </mxCell>
        <mxCell id="6jmo85DI6xjCP64ScIo4-25" value="aec3po:Checking" style="rounded=0;whiteSpace=wrap;html=1;snapToPoint=1;points=[[0.1,0],[0.2,0],[0.3,0],[0.4,0],[0.5,0],[0.6,0],[0.7,0],[0.8,0],[0.9,0],[0,0.1],[0,0.3],[0,0.5],[0,0.7],[0,0.9],[0.1,1],[0.2,1],[0.3,1],[0.4,1],[0.5,1],[0.6,1],[0.7,1],[0.8,1],[0.9,1],[1,0.1],[1,0.3],[1,0.5],[1,0.7],[1,0.9]];fillColor=#dae8fc;strokeColor=#6c8ebf;" vertex="1" parent="1">
          <mxGeometry x="520" y="130" width="150" height="30" as="geometry" />
        </mxCell>
        <mxCell id="6jmo85DI6xjCP64ScIo4-26" style="edgeStyle=orthogonalEdgeStyle;rounded=0;orthogonalLoop=1;jettySize=auto;html=1;exitX=0.4;exitY=0;exitDx=0;exitDy=0;entryX=0.1;entryY=1;entryDx=0;entryDy=0;startArrow=none;startFill=0;endArrow=block;endFill=0;" edge="1" parent="1" source="6jmo85DI6xjCP64ScIo4-27" target="6jmo85DI6xjCP64ScIo4-68">
          <mxGeometry relative="1" as="geometry">
            <Array as="points">
              <mxPoint x="791" y="505" />
              <mxPoint x="873" y="505" />
            </Array>
          </mxGeometry>
        </mxCell>
        <mxCell id="6jmo85DI6xjCP64ScIo4-27" value="aec3po:ClassificationDesign" style="rounded=0;whiteSpace=wrap;html=1;snapToPoint=1;points=[[0.1,0],[0.2,0],[0.3,0],[0.4,0],[0.5,0],[0.6,0],[0.7,0],[0.8,0],[0.9,0],[0,0.1],[0,0.3],[0,0.5],[0,0.7],[0,0.9],[0.1,1],[0.2,1],[0.3,1],[0.4,1],[0.5,1],[0.6,1],[0.7,1],[0.8,1],[0.9,1],[1,0.1],[1,0.3],[1,0.5],[1,0.7],[1,0.9]];fillColor=#e1d5e7;strokeColor=#9673a6;" vertex="1" parent="1">
          <mxGeometry x="715" y="540" width="165" height="30" as="geometry" />
        </mxCell>
        <mxCell id="6jmo85DI6xjCP64ScIo4-28" value="(&lt;span style=&quot;background-color: rgb(255, 255, 255);&quot;&gt;∃&lt;/span&gt;) skos:inScheme: skos:ConceptScheme" style="rounded=0;whiteSpace=wrap;html=1;snapToPoint=1;points=[[0.1,0],[0.2,0],[0.3,0],[0.4,0],[0.5,0],[0.6,0],[0.7,0],[0.8,0],[0.9,0],[0,0.1],[0,0.3],[0,0.5],[0,0.7],[0,0.9],[0.1,1],[0.2,1],[0.3,1],[0.4,1],[0.5,1],[0.6,1],[0.7,1],[0.8,1],[0.9,1],[1,0.1],[1,0.3],[1,0.5],[1,0.7],[1,0.9]];dashed=1;align=left;fillColor=#e1d5e7;strokeColor=#9673a6;" vertex="1" parent="1">
          <mxGeometry x="715" y="570" width="165" height="30" as="geometry" />
        </mxCell>
        <mxCell id="6jmo85DI6xjCP64ScIo4-29" value="" style="endArrow=classic;html=1;endSize=8;arcSize=0;rounded=0;startArrow=oval;startFill=1;exitX=1;exitY=0.9;exitDx=0;exitDy=0;entryX=0.5;entryY=0;entryDx=0;entryDy=0;" edge="1" parent="1" source="6jmo85DI6xjCP64ScIo4-9" target="6jmo85DI6xjCP64ScIo4-31">
          <mxGeometry width="50" height="50" relative="1" as="geometry">
            <mxPoint x="1060" y="565" as="sourcePoint" />
            <mxPoint x="1150" y="695" as="targetPoint" />
            <Array as="points">
              <mxPoint x="1130" y="567" />
            </Array>
          </mxGeometry>
        </mxCell>
        <mxCell id="6jmo85DI6xjCP64ScIo4-30" value="&lt;div&gt;(F) c3po:hasComparisonOperator&lt;br&gt;&lt;/div&gt;" style="text;html=1;align=center;verticalAlign=middle;resizable=0;points=[];labelBackgroundColor=#ffffff;" vertex="1" connectable="0" parent="6jmo85DI6xjCP64ScIo4-29">
          <mxGeometry x="-0.1269" relative="1" as="geometry">
            <mxPoint y="23" as="offset" />
          </mxGeometry>
        </mxCell>
        <mxCell id="6jmo85DI6xjCP64ScIo4-31" value="aec3po:ComparisonOperator" style="rounded=0;whiteSpace=wrap;html=1;snapToPoint=1;points=[[0.1,0],[0.2,0],[0.3,0],[0.4,0],[0.5,0],[0.6,0],[0.7,0],[0.8,0],[0.9,0],[0,0.1],[0,0.3],[0,0.5],[0,0.7],[0,0.9],[0.1,1],[0.2,1],[0.3,1],[0.4,1],[0.5,1],[0.6,1],[0.7,1],[0.8,1],[0.9,1],[1,0.1],[1,0.3],[1,0.5],[1,0.7],[1,0.9]];fillColor=#b0e3e6;strokeColor=#0e8088;" vertex="1" parent="1">
          <mxGeometry x="1050" y="650" width="160" height="30" as="geometry" />
        </mxCell>
        <mxCell id="6jmo85DI6xjCP64ScIo4-32" value="&lt;u&gt;aec3po:ComparisonOperator-lt&lt;/u&gt;" style="rounded=0;whiteSpace=wrap;html=1;snapToPoint=1;points=[[0.1,0],[0.2,0],[0.3,0],[0.4,0],[0.5,0],[0.6,0],[0.7,0],[0.8,0],[0.9,0],[0,0.1],[0,0.3],[0,0.5],[0,0.7],[0,0.9],[0.1,1],[0.2,1],[0.3,1],[0.4,1],[0.5,1],[0.6,1],[0.7,1],[0.8,1],[0.9,1],[1,0.1],[1,0.3],[1,0.5],[1,0.7],[1,0.9]];fillColor=#b0e3e6;strokeColor=#0e8088;" vertex="1" parent="1">
          <mxGeometry x="1087" y="700" width="173" height="30" as="geometry" />
        </mxCell>
        <mxCell id="6jmo85DI6xjCP64ScIo4-33" value="&lt;u&gt;aec3po:ComparisonOperator-le&lt;/u&gt;" style="rounded=0;whiteSpace=wrap;html=1;snapToPoint=1;points=[[0.1,0],[0.2,0],[0.3,0],[0.4,0],[0.5,0],[0.6,0],[0.7,0],[0.8,0],[0.9,0],[0,0.1],[0,0.3],[0,0.5],[0,0.7],[0,0.9],[0.1,1],[0.2,1],[0.3,1],[0.4,1],[0.5,1],[0.6,1],[0.7,1],[0.8,1],[0.9,1],[1,0.1],[1,0.3],[1,0.5],[1,0.7],[1,0.9]];fillColor=#b0e3e6;strokeColor=#0e8088;" vertex="1" parent="1">
          <mxGeometry x="1087" y="730" width="173" height="30" as="geometry" />
        </mxCell>
        <mxCell id="6jmo85DI6xjCP64ScIo4-34" value="&lt;u&gt;aec3po:ComparisonOperator-eq&lt;/u&gt;" style="rounded=0;whiteSpace=wrap;html=1;snapToPoint=1;points=[[0.1,0],[0.2,0],[0.3,0],[0.4,0],[0.5,0],[0.6,0],[0.7,0],[0.8,0],[0.9,0],[0,0.1],[0,0.3],[0,0.5],[0,0.7],[0,0.9],[0.1,1],[0.2,1],[0.3,1],[0.4,1],[0.5,1],[0.6,1],[0.7,1],[0.8,1],[0.9,1],[1,0.1],[1,0.3],[1,0.5],[1,0.7],[1,0.9]];fillColor=#b0e3e6;strokeColor=#0e8088;" vertex="1" parent="1">
          <mxGeometry x="1087" y="760" width="173" height="30" as="geometry" />
        </mxCell>
        <mxCell id="6jmo85DI6xjCP64ScIo4-35" value="&lt;u&gt;aec3po:ComparisonOperator-ge&lt;/u&gt;" style="rounded=0;whiteSpace=wrap;html=1;snapToPoint=1;points=[[0.1,0],[0.2,0],[0.3,0],[0.4,0],[0.5,0],[0.6,0],[0.7,0],[0.8,0],[0.9,0],[0,0.1],[0,0.3],[0,0.5],[0,0.7],[0,0.9],[0.1,1],[0.2,1],[0.3,1],[0.4,1],[0.5,1],[0.6,1],[0.7,1],[0.8,1],[0.9,1],[1,0.1],[1,0.3],[1,0.5],[1,0.7],[1,0.9]];fillColor=#b0e3e6;strokeColor=#0e8088;" vertex="1" parent="1">
          <mxGeometry x="1087" y="790" width="173" height="30" as="geometry" />
        </mxCell>
        <mxCell id="6jmo85DI6xjCP64ScIo4-36" value="&lt;u&gt;aec3po:ComparisonOperator-gt&lt;/u&gt;" style="rounded=0;whiteSpace=wrap;html=1;snapToPoint=1;points=[[0.1,0],[0.2,0],[0.3,0],[0.4,0],[0.5,0],[0.6,0],[0.7,0],[0.8,0],[0.9,0],[0,0.1],[0,0.3],[0,0.5],[0,0.7],[0,0.9],[0.1,1],[0.2,1],[0.3,1],[0.4,1],[0.5,1],[0.6,1],[0.7,1],[0.8,1],[0.9,1],[1,0.1],[1,0.3],[1,0.5],[1,0.7],[1,0.9]];fillColor=#b0e3e6;strokeColor=#0e8088;" vertex="1" parent="1">
          <mxGeometry x="1087" y="820" width="173" height="30" as="geometry" />
        </mxCell>
        <mxCell id="6jmo85DI6xjCP64ScIo4-37" value="" style="endArrow=open;html=1;fontColor=#000099;endFill=0;dashed=1;entryX=0.1;entryY=1;entryDx=0;entryDy=0;endSize=8;exitX=0;exitY=0.5;exitDx=0;exitDy=0;rounded=0;" edge="1" parent="1" source="6jmo85DI6xjCP64ScIo4-32" target="6jmo85DI6xjCP64ScIo4-31">
          <mxGeometry width="50" height="50" relative="1" as="geometry">
            <mxPoint x="990" y="825" as="sourcePoint" />
            <mxPoint x="990" y="745" as="targetPoint" />
            <Array as="points">
              <mxPoint x="1066" y="715" />
            </Array>
          </mxGeometry>
        </mxCell>
        <mxCell id="6jmo85DI6xjCP64ScIo4-38" value="&amp;lt;&amp;lt;rdf:type&amp;gt;&amp;gt;" style="text;html=1;align=center;verticalAlign=middle;resizable=0;points=[];fontColor=#000000;labelBackgroundColor=#ffffff;" vertex="1" connectable="0" parent="6jmo85DI6xjCP64ScIo4-37">
          <mxGeometry x="-0.3277" relative="1" as="geometry">
            <mxPoint x="-18" y="-15" as="offset" />
          </mxGeometry>
        </mxCell>
        <mxCell id="6jmo85DI6xjCP64ScIo4-39" value="aec3po:isOperationalizedBy" style="edgeStyle=orthogonalEdgeStyle;rounded=0;orthogonalLoop=1;jettySize=auto;html=1;exitX=0.8;exitY=0;exitDx=0;exitDy=0;entryX=0.1;entryY=0;entryDx=0;entryDy=0;startArrow=oval;startFill=1;endArrow=classic;endFill=1;" edge="1" parent="1" source="6jmo85DI6xjCP64ScIo4-91" target="6jmo85DI6xjCP64ScIo4-22">
          <mxGeometry relative="1" as="geometry">
            <Array as="points">
              <mxPoint x="222" y="200" />
              <mxPoint x="410" y="200" />
            </Array>
          </mxGeometry>
        </mxCell>
        <mxCell id="6jmo85DI6xjCP64ScIo4-40" value="aec3po:operationalizes" style="edgeStyle=orthogonalEdgeStyle;rounded=0;orthogonalLoop=1;jettySize=auto;html=1;startArrow=oval;startFill=1;endArrow=classic;endFill=1;exitX=0.1;exitY=1;exitDx=0;exitDy=0;entryX=0.8;entryY=1;entryDx=0;entryDy=0;" edge="1" parent="1" source="6jmo85DI6xjCP64ScIo4-22" target="6jmo85DI6xjCP64ScIo4-91">
          <mxGeometry relative="1" as="geometry">
            <mxPoint x="320" y="280" as="sourcePoint" />
            <mxPoint x="140" y="260" as="targetPoint" />
            <Array as="points">
              <mxPoint x="410" y="280" />
              <mxPoint x="222" y="280" />
            </Array>
          </mxGeometry>
        </mxCell>
        <mxCell id="6jmo85DI6xjCP64ScIo4-41" value="" style="endArrow=open;html=1;fontColor=#000099;endFill=0;dashed=1;endSize=8;startArrow=open;startFill=0;startSize=8;arcSize=0;rounded=0;" edge="1" parent="1">
          <mxGeometry width="50" height="50" relative="1" as="geometry">
            <mxPoint x="360" y="210" as="sourcePoint" />
            <mxPoint x="360" y="270" as="targetPoint" />
          </mxGeometry>
        </mxCell>
        <mxCell id="6jmo85DI6xjCP64ScIo4-42" value="&amp;lt;&amp;lt;owl:inverseOf&amp;gt;&amp;gt;" style="text;html=1;align=center;verticalAlign=middle;resizable=0;points=[];fontColor=#000000;labelBackgroundColor=#ffffff;" vertex="1" connectable="0" parent="6jmo85DI6xjCP64ScIo4-41">
          <mxGeometry x="-0.3277" relative="1" as="geometry">
            <mxPoint x="-20" y="8" as="offset" />
          </mxGeometry>
        </mxCell>
        <mxCell id="6jmo85DI6xjCP64ScIo4-43" value="aec3po:OrCheck" style="rounded=0;whiteSpace=wrap;html=1;snapToPoint=1;points=[[0.1,0],[0.2,0],[0.3,0],[0.4,0],[0.5,0],[0.6,0],[0.7,0],[0.8,0],[0.9,0],[0,0.1],[0,0.3],[0,0.5],[0,0.7],[0,0.9],[0.1,1],[0.2,1],[0.3,1],[0.4,1],[0.5,1],[0.6,1],[0.7,1],[0.8,1],[0.9,1],[1,0.1],[1,0.3],[1,0.5],[1,0.7],[1,0.9]];fillColor=#ffe6cc;strokeColor=#d79b00;" vertex="1" parent="1">
          <mxGeometry x="180" y="687" width="150" height="30" as="geometry" />
        </mxCell>
        <mxCell id="6jmo85DI6xjCP64ScIo4-44" value="aec3po:hasSubCheck (1..N)" style="rounded=0;whiteSpace=wrap;html=1;snapToPoint=1;points=[[0.1,0],[0.2,0],[0.3,0],[0.4,0],[0.5,0],[0.6,0],[0.7,0],[0.8,0],[0.9,0],[0,0.1],[0,0.3],[0,0.5],[0,0.7],[0,0.9],[0.1,1],[0.2,1],[0.3,1],[0.4,1],[0.5,1],[0.6,1],[0.7,1],[0.8,1],[0.9,1],[1,0.1],[1,0.3],[1,0.5],[1,0.7],[1,0.9]];dashed=1;fillColor=#ffe6cc;strokeColor=#d79b00;" vertex="1" parent="1">
          <mxGeometry x="180" y="717" width="150" height="30" as="geometry" />
        </mxCell>
        <mxCell id="6jmo85DI6xjCP64ScIo4-45" value="(some) c3po:forDesign" style="edgeStyle=orthogonalEdgeStyle;rounded=0;orthogonalLoop=1;jettySize=auto;html=1;exitX=1;exitY=0.5;exitDx=0;exitDy=0;entryX=0;entryY=0.5;entryDx=0;entryDy=0;startArrow=none;startFill=0;endArrow=classic;endFill=1;" edge="1" parent="1" source="6jmo85DI6xjCP64ScIo4-47" target="6jmo85DI6xjCP64ScIo4-27">
          <mxGeometry relative="1" as="geometry" />
        </mxCell>
        <mxCell id="6jmo85DI6xjCP64ScIo4-46" style="edgeStyle=orthogonalEdgeStyle;rounded=0;orthogonalLoop=1;jettySize=auto;html=1;exitX=0;exitY=0.5;exitDx=0;exitDy=0;startArrow=none;startFill=0;endArrow=block;endFill=0;" edge="1" parent="1" source="6jmo85DI6xjCP64ScIo4-47">
          <mxGeometry relative="1" as="geometry">
            <mxPoint x="420" y="260" as="targetPoint" />
          </mxGeometry>
        </mxCell>
        <mxCell id="6jmo85DI6xjCP64ScIo4-47" value="aec3po:CheckForConcept" style="rounded=0;whiteSpace=wrap;html=1;snapToPoint=1;points=[[0.1,0],[0.2,0],[0.3,0],[0.4,0],[0.5,0],[0.6,0],[0.7,0],[0.8,0],[0.9,0],[0,0.1],[0,0.3],[0,0.5],[0,0.7],[0,0.9],[0.1,1],[0.2,1],[0.3,1],[0.4,1],[0.5,1],[0.6,1],[0.7,1],[0.8,1],[0.9,1],[1,0.1],[1,0.3],[1,0.5],[1,0.7],[1,0.9]];fillColor=#fff2cc;strokeColor=#d6b656;" vertex="1" parent="1">
          <mxGeometry x="440" y="540" width="150" height="30" as="geometry" />
        </mxCell>
        <mxCell id="6jmo85DI6xjCP64ScIo4-48" style="edgeStyle=orthogonalEdgeStyle;rounded=0;orthogonalLoop=1;jettySize=auto;html=1;exitX=0;exitY=0.5;exitDx=0;exitDy=0;startArrow=none;startFill=0;endArrow=block;endFill=0;" edge="1" parent="1" source="6jmo85DI6xjCP64ScIo4-49">
          <mxGeometry relative="1" as="geometry">
            <mxPoint x="420" y="260" as="targetPoint" />
          </mxGeometry>
        </mxCell>
        <mxCell id="6jmo85DI6xjCP64ScIo4-49" value="aec3po:CertificateCheck" style="rounded=0;whiteSpace=wrap;html=1;snapToPoint=1;points=[[0.1,0],[0.2,0],[0.3,0],[0.4,0],[0.5,0],[0.6,0],[0.7,0],[0.8,0],[0.9,0],[0,0.1],[0,0.3],[0,0.5],[0,0.7],[0,0.9],[0.1,1],[0.2,1],[0.3,1],[0.4,1],[0.5,1],[0.6,1],[0.7,1],[0.8,1],[0.9,1],[1,0.1],[1,0.3],[1,0.5],[1,0.7],[1,0.9]];fillColor=#fff2cc;strokeColor=#d6b656;" vertex="1" parent="1">
          <mxGeometry x="440" y="600" width="150" height="30" as="geometry" />
        </mxCell>
        <mxCell id="6jmo85DI6xjCP64ScIo4-50" style="edgeStyle=orthogonalEdgeStyle;rounded=0;orthogonalLoop=1;jettySize=auto;html=1;startArrow=none;startFill=0;endArrow=block;endFill=0;" edge="1" parent="1">
          <mxGeometry relative="1" as="geometry">
            <mxPoint x="420" y="260" as="targetPoint" />
            <mxPoint x="420" y="760" as="sourcePoint" />
            <Array as="points">
              <mxPoint x="420" y="760" />
            </Array>
          </mxGeometry>
        </mxCell>
        <mxCell id="6jmo85DI6xjCP64ScIo4-51" value="aec3po:ComponentCheck" style="rounded=0;whiteSpace=wrap;html=1;snapToPoint=1;points=[[0.1,0],[0.2,0],[0.3,0],[0.4,0],[0.5,0],[0.6,0],[0.7,0],[0.8,0],[0.9,0],[0,0.1],[0,0.3],[0,0.5],[0,0.7],[0,0.9],[0.1,1],[0.2,1],[0.3,1],[0.4,1],[0.5,1],[0.6,1],[0.7,1],[0.8,1],[0.9,1],[1,0.1],[1,0.3],[1,0.5],[1,0.7],[1,0.9]];fillColor=#fff2cc;strokeColor=#d6b656;" vertex="1" parent="1">
          <mxGeometry x="414" y="760" width="246" height="30" as="geometry" />
        </mxCell>
        <mxCell id="6jmo85DI6xjCP64ScIo4-52" style="edgeStyle=orthogonalEdgeStyle;rounded=0;orthogonalLoop=1;jettySize=auto;html=1;exitX=1;exitY=0.5;exitDx=0;exitDy=0;startArrow=none;startFill=0;endArrow=block;endFill=0;" edge="1" parent="1" source="6jmo85DI6xjCP64ScIo4-53">
          <mxGeometry relative="1" as="geometry">
            <mxPoint x="420" y="260" as="targetPoint" />
            <Array as="points">
              <mxPoint x="510" y="395" />
              <mxPoint x="510" y="360" />
              <mxPoint x="421" y="360" />
            </Array>
          </mxGeometry>
        </mxCell>
        <mxCell id="6jmo85DI6xjCP64ScIo4-53" value="aec3po:DeclarativeCheck" style="rounded=0;whiteSpace=wrap;html=1;snapToPoint=1;points=[[0.1,0],[0.2,0],[0.3,0],[0.4,0],[0.5,0],[0.6,0],[0.7,0],[0.8,0],[0.9,0],[0,0.1],[0,0.3],[0,0.5],[0,0.7],[0,0.9],[0.1,1],[0.2,1],[0.3,1],[0.4,1],[0.5,1],[0.6,1],[0.7,1],[0.8,1],[0.9,1],[1,0.1],[1,0.3],[1,0.5],[1,0.7],[1,0.9]];fillColor=#fff2cc;strokeColor=#d6b656;" vertex="1" parent="1">
          <mxGeometry x="457" y="379.5" width="150" height="30" as="geometry" />
        </mxCell>
        <mxCell id="6jmo85DI6xjCP64ScIo4-54" style="edgeStyle=orthogonalEdgeStyle;rounded=0;orthogonalLoop=1;jettySize=auto;html=1;exitX=0.837;exitY=0.046;exitDx=0;exitDy=0;entryX=0.5;entryY=1;entryDx=0;entryDy=0;startArrow=none;startFill=0;endArrow=block;endFill=0;exitPerimeter=0;" edge="1" parent="1" source="6jmo85DI6xjCP64ScIo4-55" target="6jmo85DI6xjCP64ScIo4-58">
          <mxGeometry relative="1" as="geometry">
            <Array as="points">
              <mxPoint x="580" y="481" />
              <mxPoint x="580" y="460" />
              <mxPoint x="532" y="460" />
            </Array>
          </mxGeometry>
        </mxCell>
        <mxCell id="6jmo85DI6xjCP64ScIo4-55" value="aec3po:IDSCheck" style="rounded=0;whiteSpace=wrap;html=1;snapToPoint=1;points=[[0.1,0],[0.2,0],[0.3,0],[0.4,0],[0.5,0],[0.6,0],[0.7,0],[0.8,0],[0.9,0],[0,0.1],[0,0.3],[0,0.5],[0,0.7],[0,0.9],[0.1,1],[0.2,1],[0.3,1],[0.4,1],[0.5,1],[0.6,1],[0.7,1],[0.8,1],[0.9,1],[1,0.1],[1,0.3],[1,0.5],[1,0.7],[1,0.9]];fillColor=#fff2cc;strokeColor=#d6b656;" vertex="1" parent="1">
          <mxGeometry x="510" y="480" width="150" height="30" as="geometry" />
        </mxCell>
        <mxCell id="6jmo85DI6xjCP64ScIo4-56" value="aec3po:ProceduralCheck" style="rounded=0;whiteSpace=wrap;html=1;snapToPoint=1;points=[[0.1,0],[0.2,0],[0.3,0],[0.4,0],[0.5,0],[0.6,0],[0.7,0],[0.8,0],[0.9,0],[0,0.1],[0,0.3],[0,0.5],[0,0.7],[0,0.9],[0.1,1],[0.2,1],[0.3,1],[0.4,1],[0.5,1],[0.6,1],[0.7,1],[0.8,1],[0.9,1],[1,0.1],[1,0.3],[1,0.5],[1,0.7],[1,0.9]];fillColor=#fff2cc;strokeColor=#d6b656;" vertex="1" parent="1">
          <mxGeometry x="453" y="649" width="150" height="30" as="geometry" />
        </mxCell>
        <mxCell id="6jmo85DI6xjCP64ScIo4-57" value="aec3po:hasText" style="rounded=0;whiteSpace=wrap;html=1;snapToPoint=1;points=[[0.1,0],[0.2,0],[0.3,0],[0.4,0],[0.5,0],[0.6,0],[0.7,0],[0.8,0],[0.9,0],[0,0.1],[0,0.3],[0,0.5],[0,0.7],[0,0.9],[0.1,1],[0.2,1],[0.3,1],[0.4,1],[0.5,1],[0.6,1],[0.7,1],[0.8,1],[0.9,1],[1,0.1],[1,0.3],[1,0.5],[1,0.7],[1,0.9]];dashed=1;fillColor=#fff2cc;strokeColor=#d6b656;" vertex="1" parent="1">
          <mxGeometry x="454" y="679" width="147" height="30" as="geometry" />
        </mxCell>
        <mxCell id="6jmo85DI6xjCP64ScIo4-58" value="aec3po:hasText" style="rounded=0;whiteSpace=wrap;html=1;snapToPoint=1;points=[[0.1,0],[0.2,0],[0.3,0],[0.4,0],[0.5,0],[0.6,0],[0.7,0],[0.8,0],[0.9,0],[0,0.1],[0,0.3],[0,0.5],[0,0.7],[0,0.9],[0.1,1],[0.2,1],[0.3,1],[0.4,1],[0.5,1],[0.6,1],[0.7,1],[0.8,1],[0.9,1],[1,0.1],[1,0.3],[1,0.5],[1,0.7],[1,0.9]];dashed=1;fillColor=#fff2cc;strokeColor=#d6b656;" vertex="1" parent="1">
          <mxGeometry x="457" y="409.5" width="150" height="30" as="geometry" />
        </mxCell>
        <mxCell id="6jmo85DI6xjCP64ScIo4-59" style="edgeStyle=orthogonalEdgeStyle;rounded=0;orthogonalLoop=1;jettySize=auto;html=1;entryX=0.2;entryY=1;entryDx=0;entryDy=0;startArrow=none;startFill=0;endArrow=block;endFill=0;" edge="1" parent="1" target="6jmo85DI6xjCP64ScIo4-22">
          <mxGeometry relative="1" as="geometry">
            <mxPoint x="450" y="670" as="sourcePoint" />
            <mxPoint x="590" y="705" as="targetPoint" />
            <Array as="points">
              <mxPoint x="444" y="700" />
              <mxPoint x="420" y="700" />
            </Array>
          </mxGeometry>
        </mxCell>
        <mxCell id="6jmo85DI6xjCP64ScIo4-60" style="edgeStyle=orthogonalEdgeStyle;rounded=0;orthogonalLoop=1;jettySize=auto;html=1;exitX=0;exitY=0.5;exitDx=0;exitDy=0;entryX=0.4;entryY=1;entryDx=0;entryDy=0;startArrow=none;startFill=0;endArrow=block;endFill=0;" edge="1" parent="1" source="6jmo85DI6xjCP64ScIo4-61" target="6jmo85DI6xjCP64ScIo4-21">
          <mxGeometry relative="1" as="geometry" />
        </mxCell>
        <mxCell id="6jmo85DI6xjCP64ScIo4-61" value="aec3po:Microservice" style="rounded=0;whiteSpace=wrap;html=1;snapToPoint=1;points=[[0.1,0],[0.2,0],[0.3,0],[0.4,0],[0.5,0],[0.6,0],[0.7,0],[0.8,0],[0.9,0],[0,0.1],[0,0.3],[0,0.5],[0,0.7],[0,0.9],[0.1,1],[0.2,1],[0.3,1],[0.4,1],[0.5,1],[0.6,1],[0.7,1],[0.8,1],[0.9,1],[1,0.1],[1,0.3],[1,0.5],[1,0.7],[1,0.9]];fillColor=#d5e8d4;strokeColor=#82b366;" vertex="1" parent="1">
          <mxGeometry x="700" y="320" width="140" height="30" as="geometry" />
        </mxCell>
        <mxCell id="6jmo85DI6xjCP64ScIo4-62" style="edgeStyle=orthogonalEdgeStyle;rounded=0;orthogonalLoop=1;jettySize=auto;html=1;exitX=0;exitY=0.5;exitDx=0;exitDy=0;entryX=0.4;entryY=1;entryDx=0;entryDy=0;startArrow=none;startFill=0;endArrow=block;endFill=0;" edge="1" parent="1" source="6jmo85DI6xjCP64ScIo4-63" target="6jmo85DI6xjCP64ScIo4-21">
          <mxGeometry relative="1" as="geometry" />
        </mxCell>
        <mxCell id="6jmo85DI6xjCP64ScIo4-63" value="aec3po:Software" style="rounded=0;whiteSpace=wrap;html=1;snapToPoint=1;points=[[0.1,0],[0.2,0],[0.3,0],[0.4,0],[0.5,0],[0.6,0],[0.7,0],[0.8,0],[0.9,0],[0,0.1],[0,0.3],[0,0.5],[0,0.7],[0,0.9],[0.1,1],[0.2,1],[0.3,1],[0.4,1],[0.5,1],[0.6,1],[0.7,1],[0.8,1],[0.9,1],[1,0.1],[1,0.3],[1,0.5],[1,0.7],[1,0.9]];fillColor=#d5e8d4;strokeColor=#82b366;" vertex="1" parent="1">
          <mxGeometry x="700" y="360" width="140" height="30" as="geometry" />
        </mxCell>
        <mxCell id="6jmo85DI6xjCP64ScIo4-64" value="" style="endArrow=open;html=1;fontColor=#000099;endFill=0;dashed=1;endSize=8;exitX=0;exitY=0.5;exitDx=0;exitDy=0;rounded=0;entryX=0.1;entryY=1;entryDx=0;entryDy=0;" edge="1" parent="1" source="6jmo85DI6xjCP64ScIo4-33" target="6jmo85DI6xjCP64ScIo4-31">
          <mxGeometry width="50" height="50" relative="1" as="geometry">
            <mxPoint x="1097" y="725" as="sourcePoint" />
            <mxPoint x="1070" y="680" as="targetPoint" />
            <Array as="points">
              <mxPoint x="1066" y="745" />
            </Array>
          </mxGeometry>
        </mxCell>
        <mxCell id="6jmo85DI6xjCP64ScIo4-65" value="" style="endArrow=open;html=1;fontColor=#000099;endFill=0;dashed=1;endSize=8;exitX=0;exitY=0.5;exitDx=0;exitDy=0;rounded=0;entryX=0.1;entryY=1;entryDx=0;entryDy=0;" edge="1" parent="1" source="6jmo85DI6xjCP64ScIo4-36" target="6jmo85DI6xjCP64ScIo4-31">
          <mxGeometry width="50" height="50" relative="1" as="geometry">
            <mxPoint x="1060" y="837.5" as="sourcePoint" />
            <mxPoint x="1039" y="772.5" as="targetPoint" />
            <Array as="points">
              <mxPoint x="1066" y="835" />
            </Array>
          </mxGeometry>
        </mxCell>
        <mxCell id="6jmo85DI6xjCP64ScIo4-66" value="" style="endArrow=open;html=1;fontColor=#000099;endFill=0;dashed=1;endSize=8;exitX=0;exitY=0.5;exitDx=0;exitDy=0;rounded=0;entryX=0.1;entryY=1;entryDx=0;entryDy=0;" edge="1" parent="1" source="6jmo85DI6xjCP64ScIo4-35" target="6jmo85DI6xjCP64ScIo4-31">
          <mxGeometry width="50" height="50" relative="1" as="geometry">
            <mxPoint x="1097" y="845" as="sourcePoint" />
            <mxPoint x="1049" y="782.5" as="targetPoint" />
            <Array as="points">
              <mxPoint x="1066" y="805" />
            </Array>
          </mxGeometry>
        </mxCell>
        <mxCell id="6jmo85DI6xjCP64ScIo4-67" value="" style="endArrow=open;html=1;fontColor=#000099;endFill=0;dashed=1;endSize=8;exitX=0;exitY=0.5;exitDx=0;exitDy=0;rounded=0;entryX=0.1;entryY=1;entryDx=0;entryDy=0;" edge="1" parent="1" source="6jmo85DI6xjCP64ScIo4-34" target="6jmo85DI6xjCP64ScIo4-31">
          <mxGeometry width="50" height="50" relative="1" as="geometry">
            <mxPoint x="1097" y="815" as="sourcePoint" />
            <mxPoint x="1059" y="792.5" as="targetPoint" />
            <Array as="points">
              <mxPoint x="1066" y="775" />
            </Array>
          </mxGeometry>
        </mxCell>
        <mxCell id="6jmo85DI6xjCP64ScIo4-68" value="aec3po:Design" style="rounded=0;whiteSpace=wrap;html=1;snapToPoint=1;points=[[0.1,0],[0.2,0],[0.3,0],[0.4,0],[0.5,0],[0.6,0],[0.7,0],[0.8,0],[0.9,0],[0,0.1],[0,0.3],[0,0.5],[0,0.7],[0,0.9],[0.1,1],[0.2,1],[0.3,1],[0.4,1],[0.5,1],[0.6,1],[0.7,1],[0.8,1],[0.9,1],[1,0.1],[1,0.3],[1,0.5],[1,0.7],[1,0.9]];fillColor=#e1d5e7;strokeColor=#9673a6;" vertex="1" parent="1">
          <mxGeometry x="860" y="440" width="130" height="30" as="geometry" />
        </mxCell>
        <mxCell id="6jmo85DI6xjCP64ScIo4-69" value="&lt;div&gt;&amp;lt;&amp;lt;owl:ObjectProperty&amp;gt;&amp;gt; c3po:checked&lt;br&gt;&lt;/div&gt;" style="rhombus;whiteSpace=wrap;html=1;" vertex="1" parent="1">
          <mxGeometry x="992.4499999999999" y="142.7" width="180" height="75" as="geometry" />
        </mxCell>
        <mxCell id="6jmo85DI6xjCP64ScIo4-70" value="&lt;div&gt;&amp;lt;&amp;lt;owl:ObjectProperty&amp;gt;&amp;gt; c3po:satisfied&lt;br&gt;&lt;/div&gt;" style="rhombus;whiteSpace=wrap;html=1;" vertex="1" parent="1">
          <mxGeometry x="902.4499999999999" y="250.2" width="180" height="75" as="geometry" />
        </mxCell>
        <mxCell id="6jmo85DI6xjCP64ScIo4-71" value="" style="endArrow=open;html=1;fontColor=#000099;endFill=0;dashed=1;entryX=0.5;entryY=1;entryDx=0;entryDy=0;endSize=8;rounded=0;" edge="1" parent="1" source="6jmo85DI6xjCP64ScIo4-70" target="6jmo85DI6xjCP64ScIo4-69">
          <mxGeometry width="50" height="50" relative="1" as="geometry">
            <mxPoint x="792.4499999999999" y="210.7" as="sourcePoint" />
            <mxPoint x="792.4499999999999" y="140.7" as="targetPoint" />
            <Array as="points">
              <mxPoint x="1082.45" y="252.7" />
            </Array>
          </mxGeometry>
        </mxCell>
        <mxCell id="6jmo85DI6xjCP64ScIo4-72" value="" style="endArrow=open;html=1;fontColor=#000099;endFill=0;dashed=1;entryX=1;entryY=0.1;entryDx=0;entryDy=0;endSize=8;rounded=0;exitX=0;exitY=0;exitDx=0;exitDy=0;" edge="1" parent="1" source="6jmo85DI6xjCP64ScIo4-69" target="6jmo85DI6xjCP64ScIo4-25">
          <mxGeometry width="50" height="50" relative="1" as="geometry">
            <mxPoint x="950" y="117.5" as="sourcePoint" />
            <mxPoint x="910" y="92.5" as="targetPoint" />
            <Array as="points">
              <mxPoint x="990" y="133" />
            </Array>
          </mxGeometry>
        </mxCell>
        <mxCell id="6jmo85DI6xjCP64ScIo4-73" value="&amp;lt;&amp;lt;rdfs:domain&amp;gt;&amp;gt;" style="text;html=1;align=center;verticalAlign=middle;resizable=0;points=[];fontColor=#000000;labelBackgroundColor=#ffffff;" vertex="1" connectable="0" parent="6jmo85DI6xjCP64ScIo4-72">
          <mxGeometry x="-0.3277" relative="1" as="geometry">
            <mxPoint x="-44" as="offset" />
          </mxGeometry>
        </mxCell>
        <mxCell id="6jmo85DI6xjCP64ScIo4-74" value="&lt;div&gt;&amp;lt;&amp;lt;owl:ObjectProperty&amp;gt;&amp;gt; c3po:unsatisfied&lt;br&gt;&lt;/div&gt;" style="rhombus;whiteSpace=wrap;html=1;" vertex="1" parent="1">
          <mxGeometry x="1102.45" y="250.2" width="180" height="75" as="geometry" />
        </mxCell>
        <mxCell id="6jmo85DI6xjCP64ScIo4-75" value="" style="endArrow=open;html=1;fontColor=#000099;endFill=0;dashed=1;endSize=8;rounded=0;exitX=0;exitY=0;exitDx=0;exitDy=0;entryX=0.5;entryY=1;entryDx=0;entryDy=0;" edge="1" parent="1" source="6jmo85DI6xjCP64ScIo4-74" target="6jmo85DI6xjCP64ScIo4-69">
          <mxGeometry width="50" height="50" relative="1" as="geometry">
            <mxPoint x="1049.0017241379312" y="279.5965517241381" as="sourcePoint" />
            <mxPoint x="1082.45" y="222.7" as="targetPoint" />
            <Array as="points">
              <mxPoint x="1082.45" y="252.7" />
            </Array>
          </mxGeometry>
        </mxCell>
        <mxCell id="6jmo85DI6xjCP64ScIo4-76" value="&amp;lt;&amp;lt;rdfs:subPropertyOf&amp;gt;&amp;gt;" style="text;html=1;align=center;verticalAlign=middle;resizable=0;points=[];fontColor=#000000;labelBackgroundColor=#ffffff;" vertex="1" connectable="0" parent="6jmo85DI6xjCP64ScIo4-75">
          <mxGeometry x="-0.3277" relative="1" as="geometry">
            <mxPoint x="-32" y="-18" as="offset" />
          </mxGeometry>
        </mxCell>
        <mxCell id="6jmo85DI6xjCP64ScIo4-77" value="" style="endArrow=classic;html=1;endSize=8;arcSize=0;rounded=0;startArrow=none;startFill=0;exitX=1;exitY=0.3;exitDx=0;exitDy=0;" edge="1" parent="1" source="6jmo85DI6xjCP64ScIo4-25">
          <mxGeometry width="50" height="50" relative="1" as="geometry">
            <mxPoint x="750" y="150" as="sourcePoint" />
            <mxPoint x="880" y="440" as="targetPoint" />
            <Array as="points">
              <mxPoint x="700" y="139" />
              <mxPoint x="880" y="320" />
            </Array>
          </mxGeometry>
        </mxCell>
        <mxCell id="6jmo85DI6xjCP64ScIo4-78" value="" style="endArrow=classic;html=1;endSize=8;arcSize=0;rounded=0;startArrow=none;startFill=0;exitX=1;exitY=0.5;exitDx=0;exitDy=0;entryX=0.149;entryY=-0.023;entryDx=0;entryDy=0;entryPerimeter=0;" edge="1" parent="1" source="6jmo85DI6xjCP64ScIo4-21" target="6jmo85DI6xjCP64ScIo4-68">
          <mxGeometry width="50" height="50" relative="1" as="geometry">
            <mxPoint x="680" y="149" as="sourcePoint" />
            <mxPoint x="870" y="440" as="targetPoint" />
            <Array as="points">
              <mxPoint x="845" y="285" />
              <mxPoint x="880" y="320" />
            </Array>
          </mxGeometry>
        </mxCell>
        <mxCell id="6jmo85DI6xjCP64ScIo4-79" value="&lt;div&gt;aec3po:forDesign&lt;br&gt;&lt;/div&gt;" style="text;html=1;align=center;verticalAlign=middle;resizable=0;points=[];labelBackgroundColor=#ffffff;" vertex="1" connectable="0" parent="6jmo85DI6xjCP64ScIo4-78">
          <mxGeometry x="-0.1269" relative="1" as="geometry">
            <mxPoint x="34" y="52" as="offset" />
          </mxGeometry>
        </mxCell>
        <mxCell id="6jmo85DI6xjCP64ScIo4-80" value="aec3po:hasDataRequirement" style="rounded=0;whiteSpace=wrap;html=1;snapToPoint=1;points=[[0.1,0],[0.2,0],[0.3,0],[0.4,0],[0.5,0],[0.6,0],[0.7,0],[0.8,0],[0.9,0],[0,0.1],[0,0.3],[0,0.5],[0,0.7],[0,0.9],[0.1,1],[0.2,1],[0.3,1],[0.4,1],[0.5,1],[0.6,1],[0.7,1],[0.8,1],[0.9,1],[1,0.1],[1,0.3],[1,0.5],[1,0.7],[1,0.9]];fillColor=#A9C4EB;strokeColor=#6c8ebf;" vertex="1" parent="1">
          <mxGeometry x="520" y="160" width="150" height="30" as="geometry" />
        </mxCell>
        <mxCell id="6jmo85DI6xjCP64ScIo4-81" value="aec3po:hasDesign" style="edgeStyle=orthogonalEdgeStyle;rounded=0;orthogonalLoop=1;jettySize=auto;html=1;startArrow=none;startFill=0;endArrow=classic;endFill=1;exitX=0;exitY=0.1;exitDx=0;exitDy=0;" edge="1" parent="1" source="6jmo85DI6xjCP64ScIo4-2">
          <mxGeometry x="-0.5631" relative="1" as="geometry">
            <mxPoint x="1300" y="950" as="sourcePoint" />
            <mxPoint x="920" y="470" as="targetPoint" />
            <Array as="points">
              <mxPoint x="920" y="953" />
              <mxPoint x="920" y="470" />
            </Array>
            <mxPoint as="offset" />
          </mxGeometry>
        </mxCell>
        <mxCell id="6jmo85DI6xjCP64ScIo4-82" value="(all) c3po:forDesign: (all) (inverseOf) c3po:hasDesign: c3po:FeatureOfInterest" style="rounded=0;whiteSpace=wrap;html=1;snapToPoint=1;points=[[0.1,0],[0.2,0],[0.3,0],[0.4,0],[0.5,0],[0.6,0],[0.7,0],[0.8,0],[0.9,0],[0,0.1],[0,0.3],[0,0.5],[0,0.7],[0,0.9],[0.1,1],[0.2,1],[0.3,1],[0.4,1],[0.5,1],[0.6,1],[0.7,1],[0.8,1],[0.9,1],[1,0.1],[1,0.3],[1,0.5],[1,0.7],[1,0.9]];fillColor=#fff2cc;strokeColor=#d6b656;" vertex="1" parent="1">
          <mxGeometry x="414" y="790" width="246" height="30" as="geometry" />
        </mxCell>
        <mxCell id="6jmo85DI6xjCP64ScIo4-83" value="" style="triangle;whiteSpace=wrap;html=1;rotation=-90;fillColor=#fad7ac;strokeColor=#b46504;" vertex="1" parent="1">
          <mxGeometry x="1432.5" y="542.5" width="75" height="90" as="geometry" />
        </mxCell>
        <mxCell id="6jmo85DI6xjCP64ScIo4-84" value="SKOS hierarchy" style="text;html=1;strokeColor=none;fillColor=none;align=center;verticalAlign=middle;whiteSpace=wrap;rounded=0;" vertex="1" parent="1">
          <mxGeometry x="1440" y="590" width="60" height="30" as="geometry" />
        </mxCell>
        <mxCell id="6jmo85DI6xjCP64ScIo4-85" value="" style="triangle;whiteSpace=wrap;html=1;rotation=-90;fillColor=#e1d5e7;strokeColor=#9673a6;" vertex="1" parent="1">
          <mxGeometry x="827" y="560" width="80" height="90" as="geometry" />
        </mxCell>
        <mxCell id="6jmo85DI6xjCP64ScIo4-86" value="SKOS hierarchies" style="text;html=1;align=center;verticalAlign=middle;whiteSpace=wrap;rounded=0;strokeColor=none;" vertex="1" parent="1">
          <mxGeometry x="840" y="610" width="60" height="30" as="geometry" />
        </mxCell>
        <mxCell id="6jmo85DI6xjCP64ScIo4-87" style="edgeStyle=orthogonalEdgeStyle;rounded=0;orthogonalLoop=1;jettySize=auto;html=1;exitX=1;exitY=0.5;exitDx=0;exitDy=0;entryX=-0.002;entryY=0.64;entryDx=0;entryDy=0;startArrow=none;startFill=0;endArrow=block;endFill=0;entryPerimeter=0;" edge="1" parent="1" source="6jmo85DI6xjCP64ScIo4-88" target="6jmo85DI6xjCP64ScIo4-85">
          <mxGeometry relative="1" as="geometry" />
        </mxCell>
        <mxCell id="6jmo85DI6xjCP64ScIo4-88" value="aec3po:IfcElementType" style="rounded=0;whiteSpace=wrap;html=1;snapToPoint=1;points=[[0.1,0],[0.2,0],[0.3,0],[0.4,0],[0.5,0],[0.6,0],[0.7,0],[0.8,0],[0.9,0],[0,0.1],[0,0.3],[0,0.5],[0,0.7],[0,0.9],[0.1,1],[0.2,1],[0.3,1],[0.4,1],[0.5,1],[0.6,1],[0.7,1],[0.8,1],[0.9,1],[1,0.1],[1,0.3],[1,0.5],[1,0.7],[1,0.9]];fillColor=#e1d5e7;strokeColor=#9673a6;" vertex="1" parent="1">
          <mxGeometry x="722" y="660" width="138" height="30" as="geometry" />
        </mxCell>
        <mxCell id="6jmo85DI6xjCP64ScIo4-89" value="..." style="text;html=1;strokeColor=none;fillColor=none;align=center;verticalAlign=middle;whiteSpace=wrap;rounded=0;fontStyle=1" vertex="1" parent="1">
          <mxGeometry x="847" y="680" width="60" height="30" as="geometry" />
        </mxCell>
        <mxCell id="6jmo85DI6xjCP64ScIo4-90" style="edgeStyle=orthogonalEdgeStyle;rounded=0;orthogonalLoop=1;jettySize=auto;html=1;exitX=0.6;exitY=0;exitDx=0;exitDy=0;entryX=0.6;entryY=1;entryDx=0;entryDy=0;endArrow=block;endFill=0;" edge="1" parent="1" source="6jmo85DI6xjCP64ScIo4-91">
          <mxGeometry relative="1" as="geometry">
            <mxPoint x="184" y="160" as="targetPoint" />
          </mxGeometry>
        </mxCell>
        <mxCell id="6jmo85DI6xjCP64ScIo4-91" value="aec3po:DocumentSubdivision" style="rounded=0;whiteSpace=wrap;html=1;snapToPoint=1;points=[[0.1,0],[0.2,0],[0.3,0],[0.4,0],[0.5,0],[0.6,0],[0.7,0],[0.8,0],[0.9,0],[0,0.1],[0,0.3],[0,0.5],[0,0.7],[0,0.9],[0.1,1],[0.2,1],[0.3,1],[0.4,1],[0.5,1],[0.6,1],[0.7,1],[0.8,1],[0.9,1],[1,0.1],[1,0.3],[1,0.5],[1,0.7],[1,0.9]];fillColor=#fff2cc;strokeColor=#d6b656;" vertex="1" parent="1">
          <mxGeometry x="70" y="230" width="190" height="30" as="geometry" />
        </mxCell>
        <mxCell id="6jmo85DI6xjCP64ScIo4-92" value="aec3po:has_part" style="edgeStyle=orthogonalEdgeStyle;rounded=0;orthogonalLoop=1;jettySize=auto;html=1;startArrow=oval;startFill=1;exitX=0.4;exitY=1;exitDx=0;exitDy=0;entryX=0.4;entryY=0;entryDx=0;entryDy=0;" edge="1" parent="1" target="6jmo85DI6xjCP64ScIo4-91">
          <mxGeometry relative="1" as="geometry">
            <mxPoint x="146" y="160" as="sourcePoint" />
            <mxPoint x="385" y="239.8" as="targetPoint" />
          </mxGeometry>
        </mxCell>
        <mxCell id="6jmo85DI6xjCP64ScIo4-93" value="aec3po:CheckStatement" style="rounded=0;whiteSpace=wrap;html=1;snapToPoint=1;points=[[0.1,0],[0.2,0],[0.3,0],[0.4,0],[0.5,0],[0.6,0],[0.7,0],[0.8,0],[0.9,0],[0,0.1],[0,0.3],[0,0.5],[0,0.7],[0,0.9],[0.1,1],[0.2,1],[0.3,1],[0.4,1],[0.5,1],[0.6,1],[0.7,1],[0.8,1],[0.9,1],[1,0.1],[1,0.3],[1,0.5],[1,0.7],[1,0.9]];fillColor=#ffe6cc;strokeColor=#d79b00;" vertex="1" parent="1">
          <mxGeometry x="134" y="370" width="120" height="30" as="geometry" />
        </mxCell>
        <mxCell id="6jmo85DI6xjCP64ScIo4-100" value="" style="endArrow=classic;html=1;endSize=8;arcSize=0;rounded=0;startArrow=none;startFill=0;entryX=0;entryY=0.7;entryDx=0;entryDy=0;exitX=1;exitY=0.5;exitDx=0;exitDy=0;" edge="1" parent="1" source="6jmo85DI6xjCP64ScIo4-12" target="6jmo85DI6xjCP64ScIo4-68">
          <mxGeometry width="50" height="50" relative="1" as="geometry">
            <mxPoint x="510" y="261" as="sourcePoint" />
            <mxPoint x="870" y="465" as="targetPoint" />
            <Array as="points">
              <mxPoint x="580" y="325" />
              <mxPoint x="700" y="465" />
            </Array>
          </mxGeometry>
        </mxCell>
        <mxCell id="6jmo85DI6xjCP64ScIo4-101" value="&lt;div&gt;aec3po:forDesign&lt;br&gt;&lt;/div&gt;" style="text;html=1;align=center;verticalAlign=middle;resizable=0;points=[];labelBackgroundColor=#ffffff;" vertex="1" connectable="0" parent="6jmo85DI6xjCP64ScIo4-100">
          <mxGeometry x="-0.1269" relative="1" as="geometry">
            <mxPoint x="-76" y="-111" as="offset" />
          </mxGeometry>
        </mxCell>
        <mxCell id="6jmo85DI6xjCP64ScIo4-102" value="(&lt;span style=&quot;background-color: rgb(255, 255, 255);&quot;&gt;∃&lt;/span&gt;) skos:inScheme: skos:ConceptScheme" style="rounded=0;whiteSpace=wrap;html=1;snapToPoint=1;points=[[0.1,0],[0.2,0],[0.3,0],[0.4,0],[0.5,0],[0.6,0],[0.7,0],[0.8,0],[0.9,0],[0,0.1],[0,0.3],[0,0.5],[0,0.7],[0,0.9],[0.1,1],[0.2,1],[0.3,1],[0.4,1],[0.5,1],[0.6,1],[0.7,1],[0.8,1],[0.9,1],[1,0.1],[1,0.3],[1,0.5],[1,0.7],[1,0.9]];dashed=1;align=left;fillColor=#e1d5e7;strokeColor=#9673a6;" vertex="1" parent="1">
          <mxGeometry x="-150" y="370" width="165" height="30" as="geometry" />
        </mxCell>
        <mxCell id="6jmo85DI6xjCP64ScIo4-103" value="aec3po:NamedEntity" style="rounded=0;whiteSpace=wrap;html=1;snapToPoint=1;points=[[0.1,0],[0.2,0],[0.3,0],[0.4,0],[0.5,0],[0.6,0],[0.7,0],[0.8,0],[0.9,0],[0,0.1],[0,0.3],[0,0.5],[0,0.7],[0,0.9],[0.1,1],[0.2,1],[0.3,1],[0.4,1],[0.5,1],[0.6,1],[0.7,1],[0.8,1],[0.9,1],[1,0.1],[1,0.3],[1,0.5],[1,0.7],[1,0.9]];fillColor=#e1d5e7;strokeColor=#9673a6;" vertex="1" parent="1">
          <mxGeometry x="-150" y="340" width="165" height="30" as="geometry" />
        </mxCell>
        <mxCell id="6jmo85DI6xjCP64ScIo4-104" value="" style="triangle;whiteSpace=wrap;html=1;rotation=-90;fillColor=#e1d5e7;strokeColor=#9673a6;" vertex="1" parent="1">
          <mxGeometry x="-38" y="360" width="80" height="90" as="geometry" />
        </mxCell>
        <mxCell id="6jmo85DI6xjCP64ScIo4-105" value="SKOS hierarchies" style="text;html=1;align=center;verticalAlign=middle;whiteSpace=wrap;rounded=0;strokeColor=none;" vertex="1" parent="1">
          <mxGeometry x="-25" y="410" width="60" height="30" as="geometry" />
        </mxCell>
        <mxCell id="6jmo85DI6xjCP64ScIo4-106" value="aec3po:BuildingUsageType" style="rounded=0;whiteSpace=wrap;html=1;snapToPoint=1;points=[[0.1,0],[0.2,0],[0.3,0],[0.4,0],[0.5,0],[0.6,0],[0.7,0],[0.8,0],[0.9,0],[0,0.1],[0,0.3],[0,0.5],[0,0.7],[0,0.9],[0.1,1],[0.2,1],[0.3,1],[0.4,1],[0.5,1],[0.6,1],[0.7,1],[0.8,1],[0.9,1],[1,0.1],[1,0.3],[1,0.5],[1,0.7],[1,0.9]];fillColor=#e1d5e7;strokeColor=#9673a6;" vertex="1" parent="1">
          <mxGeometry x="-143" y="460" width="138" height="30" as="geometry" />
        </mxCell>
        <mxCell id="6jmo85DI6xjCP64ScIo4-107" value="aec3po:StructureType" style="rounded=0;whiteSpace=wrap;html=1;snapToPoint=1;points=[[0.1,0],[0.2,0],[0.3,0],[0.4,0],[0.5,0],[0.6,0],[0.7,0],[0.8,0],[0.9,0],[0,0.1],[0,0.3],[0,0.5],[0,0.7],[0,0.9],[0.1,1],[0.2,1],[0.3,1],[0.4,1],[0.5,1],[0.6,1],[0.7,1],[0.8,1],[0.9,1],[1,0.1],[1,0.3],[1,0.5],[1,0.7],[1,0.9]];fillColor=#e1d5e7;strokeColor=#9673a6;" vertex="1" parent="1">
          <mxGeometry x="-143" y="500" width="138" height="30" as="geometry" />
        </mxCell>
        <mxCell id="6jmo85DI6xjCP64ScIo4-108" value="aec3po:has_part" style="edgeStyle=orthogonalEdgeStyle;rounded=0;orthogonalLoop=1;jettySize=auto;html=1;startArrow=oval;startFill=1;exitX=0;exitY=0.7;exitDx=0;exitDy=0;entryX=0.7;entryY=0;entryDx=0;entryDy=0;" edge="1" parent="1" source="6jmo85DI6xjCP64ScIo4-91" target="6jmo85DI6xjCP64ScIo4-103">
          <mxGeometry relative="1" as="geometry">
            <mxPoint x="156" y="170" as="sourcePoint" />
            <mxPoint x="156" y="240" as="targetPoint" />
          </mxGeometry>
        </mxCell>
        <mxCell id="6jmo85DI6xjCP64ScIo4-109" value="aec3po:DefinitionStatement" style="rounded=0;whiteSpace=wrap;html=1;snapToPoint=1;points=[[0.1,0],[0.2,0],[0.3,0],[0.4,0],[0.5,0],[0.6,0],[0.7,0],[0.8,0],[0.9,0],[0,0.1],[0,0.3],[0,0.5],[0,0.7],[0,0.9],[0.1,1],[0.2,1],[0.3,1],[0.4,1],[0.5,1],[0.6,1],[0.7,1],[0.8,1],[0.9,1],[1,0.1],[1,0.3],[1,0.5],[1,0.7],[1,0.9]];fillColor=#ffe6cc;strokeColor=#d79b00;" vertex="1" parent="1">
          <mxGeometry x="188" y="470" width="182" height="30" as="geometry" />
        </mxCell>
        <mxCell id="6jmo85DI6xjCP64ScIo4-110" value="aec3po:ChecklistStatement" style="rounded=0;whiteSpace=wrap;html=1;snapToPoint=1;points=[[0.1,0],[0.2,0],[0.3,0],[0.4,0],[0.5,0],[0.6,0],[0.7,0],[0.8,0],[0.9,0],[0,0.1],[0,0.3],[0,0.5],[0,0.7],[0,0.9],[0.1,1],[0.2,1],[0.3,1],[0.4,1],[0.5,1],[0.6,1],[0.7,1],[0.8,1],[0.9,1],[1,0.1],[1,0.3],[1,0.5],[1,0.7],[1,0.9]];fillColor=#ffe6cc;strokeColor=#d79b00;" vertex="1" parent="1">
          <mxGeometry x="134" y="644" width="150" height="30" as="geometry" />
        </mxCell>
        <mxCell id="6jmo85DI6xjCP64ScIo4-111" value="aec3po:CategoryCheckStatement" style="rounded=0;whiteSpace=wrap;html=1;snapToPoint=1;points=[[0.1,0],[0.2,0],[0.3,0],[0.4,0],[0.5,0],[0.6,0],[0.7,0],[0.8,0],[0.9,0],[0,0.1],[0,0.3],[0,0.5],[0,0.7],[0,0.9],[0.1,1],[0.2,1],[0.3,1],[0.4,1],[0.5,1],[0.6,1],[0.7,1],[0.8,1],[0.9,1],[1,0.1],[1,0.3],[1,0.5],[1,0.7],[1,0.9]];fillColor=#ffe6cc;strokeColor=#d79b00;" vertex="1" parent="1">
          <mxGeometry x="188" y="430" width="182" height="30" as="geometry" />
        </mxCell>
        <mxCell id="6jmo85DI6xjCP64ScIo4-112" value="aec3po:CertificateCheckStatement" style="rounded=0;whiteSpace=wrap;html=1;snapToPoint=1;points=[[0.1,0],[0.2,0],[0.3,0],[0.4,0],[0.5,0],[0.6,0],[0.7,0],[0.8,0],[0.9,0],[0,0.1],[0,0.3],[0,0.5],[0,0.7],[0,0.9],[0.1,1],[0.2,1],[0.3,1],[0.4,1],[0.5,1],[0.6,1],[0.7,1],[0.8,1],[0.9,1],[1,0.1],[1,0.3],[1,0.5],[1,0.7],[1,0.9]];fillColor=#ffe6cc;strokeColor=#d79b00;" vertex="1" parent="1">
          <mxGeometry x="188" y="510" width="182" height="30" as="geometry" />
        </mxCell>
        <mxCell id="6jmo85DI6xjCP64ScIo4-113" value="aec3po:AndCheck" style="rounded=0;whiteSpace=wrap;html=1;snapToPoint=1;points=[[0.1,0],[0.2,0],[0.3,0],[0.4,0],[0.5,0],[0.6,0],[0.7,0],[0.8,0],[0.9,0],[0,0.1],[0,0.3],[0,0.5],[0,0.7],[0,0.9],[0.1,1],[0.2,1],[0.3,1],[0.4,1],[0.5,1],[0.6,1],[0.7,1],[0.8,1],[0.9,1],[1,0.1],[1,0.3],[1,0.5],[1,0.7],[1,0.9]];fillColor=#ffe6cc;strokeColor=#d79b00;" vertex="1" parent="1">
          <mxGeometry x="176" y="759" width="150" height="30" as="geometry" />
        </mxCell>
        <mxCell id="6jmo85DI6xjCP64ScIo4-114" value="aec3po:hasSubCheck (1..N)" style="rounded=0;whiteSpace=wrap;html=1;snapToPoint=1;points=[[0.1,0],[0.2,0],[0.3,0],[0.4,0],[0.5,0],[0.6,0],[0.7,0],[0.8,0],[0.9,0],[0,0.1],[0,0.3],[0,0.5],[0,0.7],[0,0.9],[0.1,1],[0.2,1],[0.3,1],[0.4,1],[0.5,1],[0.6,1],[0.7,1],[0.8,1],[0.9,1],[1,0.1],[1,0.3],[1,0.5],[1,0.7],[1,0.9]];dashed=1;fillColor=#ffe6cc;strokeColor=#d79b00;" vertex="1" parent="1">
          <mxGeometry x="176" y="789" width="150" height="30" as="geometry" />
        </mxCell>
        <mxCell id="6jmo85DI6xjCP64ScIo4-115" style="edgeStyle=orthogonalEdgeStyle;rounded=0;orthogonalLoop=1;jettySize=auto;html=1;startArrow=none;startFill=0;endArrow=block;endFill=0;" edge="1" parent="1">
          <mxGeometry relative="1" as="geometry">
            <mxPoint x="120" y="338" as="targetPoint" />
            <mxPoint x="120" y="650" as="sourcePoint" />
            <Array as="points">
              <mxPoint x="120" y="838" />
            </Array>
          </mxGeometry>
        </mxCell>
        <mxCell id="6jmo85DI6xjCP64ScIo4-116" value="" style="edgeStyle=segmentEdgeStyle;endArrow=classic;html=1;curved=0;rounded=0;endSize=8;startSize=8;entryX=0.2;entryY=1;entryDx=0;entryDy=0;exitX=0;exitY=0.5;exitDx=0;exitDy=0;" edge="1" parent="1" source="6jmo85DI6xjCP64ScIo4-111" target="6jmo85DI6xjCP64ScIo4-93">
          <mxGeometry width="50" height="50" relative="1" as="geometry">
            <mxPoint x="160" y="500" as="sourcePoint" />
            <mxPoint x="210" y="450" as="targetPoint" />
          </mxGeometry>
        </mxCell>
        <mxCell id="6jmo85DI6xjCP64ScIo4-117" value="" style="edgeStyle=segmentEdgeStyle;endArrow=classic;html=1;curved=0;rounded=0;endSize=8;startSize=8;entryX=0.2;entryY=1;entryDx=0;entryDy=0;exitX=0;exitY=0.3;exitDx=0;exitDy=0;" edge="1" parent="1" source="6jmo85DI6xjCP64ScIo4-143">
          <mxGeometry width="50" height="50" relative="1" as="geometry">
            <mxPoint x="188.00000000000023" y="527.0000000000002" as="sourcePoint" />
            <mxPoint x="158.00000000000023" y="399" as="targetPoint" />
            <Array as="points">
              <mxPoint x="188" y="600" />
              <mxPoint x="158" y="600" />
            </Array>
          </mxGeometry>
        </mxCell>
        <mxCell id="6jmo85DI6xjCP64ScIo4-118" value="" style="endArrow=none;html=1;rounded=0;" edge="1" parent="1">
          <mxGeometry width="50" height="50" relative="1" as="geometry">
            <mxPoint x="120" y="380" as="sourcePoint" />
            <mxPoint x="130" y="380" as="targetPoint" />
          </mxGeometry>
        </mxCell>
        <mxCell id="6jmo85DI6xjCP64ScIo4-119" value="aec3po:RASE" style="rounded=0;whiteSpace=wrap;html=1;snapToPoint=1;points=[[0.1,0],[0.2,0],[0.3,0],[0.4,0],[0.5,0],[0.6,0],[0.7,0],[0.8,0],[0.9,0],[0,0.1],[0,0.3],[0,0.5],[0,0.7],[0,0.9],[0.1,1],[0.2,1],[0.3,1],[0.4,1],[0.5,1],[0.6,1],[0.7,1],[0.8,1],[0.9,1],[1,0.1],[1,0.3],[1,0.5],[1,0.7],[1,0.9]];fillColor=#d5e8d4;strokeColor=#82b366;" vertex="1" parent="1">
          <mxGeometry x="-78" y="129.7" width="100" height="30" as="geometry" />
        </mxCell>
        <mxCell id="6jmo85DI6xjCP64ScIo4-120" value="aec3po:Requirement" style="rounded=0;whiteSpace=wrap;html=1;snapToPoint=1;points=[[0.1,0],[0.2,0],[0.3,0],[0.4,0],[0.5,0],[0.6,0],[0.7,0],[0.8,0],[0.9,0],[0,0.1],[0,0.3],[0,0.5],[0,0.7],[0,0.9],[0.1,1],[0.2,1],[0.3,1],[0.4,1],[0.5,1],[0.6,1],[0.7,1],[0.8,1],[0.9,1],[1,0.1],[1,0.3],[1,0.5],[1,0.7],[1,0.9]];fillColor=#1ba1e2;strokeColor=#006EAF;fontColor=#ffffff;" vertex="1" parent="1">
          <mxGeometry x="-10" y="-60" width="100" height="30" as="geometry" />
        </mxCell>
        <mxCell id="6jmo85DI6xjCP64ScIo4-121" value="aec3po:Selection" style="rounded=0;whiteSpace=wrap;html=1;snapToPoint=1;points=[[0.1,0],[0.2,0],[0.3,0],[0.4,0],[0.5,0],[0.6,0],[0.7,0],[0.8,0],[0.9,0],[0,0.1],[0,0.3],[0,0.5],[0,0.7],[0,0.9],[0.1,1],[0.2,1],[0.3,1],[0.4,1],[0.5,1],[0.6,1],[0.7,1],[0.8,1],[0.9,1],[1,0.1],[1,0.3],[1,0.5],[1,0.7],[1,0.9]];fillColor=#d0cee2;strokeColor=#56517e;" vertex="1" parent="1">
          <mxGeometry x="-10" y="-20" width="100" height="30" as="geometry" />
        </mxCell>
        <mxCell id="6jmo85DI6xjCP64ScIo4-122" value="aec3po:Applicability" style="rounded=0;whiteSpace=wrap;html=1;snapToPoint=1;points=[[0.1,0],[0.2,0],[0.3,0],[0.4,0],[0.5,0],[0.6,0],[0.7,0],[0.8,0],[0.9,0],[0,0.1],[0,0.3],[0,0.5],[0,0.7],[0,0.9],[0.1,1],[0.2,1],[0.3,1],[0.4,1],[0.5,1],[0.6,1],[0.7,1],[0.8,1],[0.9,1],[1,0.1],[1,0.3],[1,0.5],[1,0.7],[1,0.9]];fillColor=#d5e8d4;strokeColor=#82b366;gradientColor=#97d077;" vertex="1" parent="1">
          <mxGeometry x="-10" y="20" width="100" height="30" as="geometry" />
        </mxCell>
        <mxCell id="6jmo85DI6xjCP64ScIo4-123" value="aec3po:Exception" style="rounded=0;whiteSpace=wrap;html=1;snapToPoint=1;points=[[0.1,0],[0.2,0],[0.3,0],[0.4,0],[0.5,0],[0.6,0],[0.7,0],[0.8,0],[0.9,0],[0,0.1],[0,0.3],[0,0.5],[0,0.7],[0,0.9],[0.1,1],[0.2,1],[0.3,1],[0.4,1],[0.5,1],[0.6,1],[0.7,1],[0.8,1],[0.9,1],[1,0.1],[1,0.3],[1,0.5],[1,0.7],[1,0.9]];fillColor=#ffff88;strokeColor=#36393d;" vertex="1" parent="1">
          <mxGeometry x="-10" y="58" width="100" height="30" as="geometry" />
        </mxCell>
        <mxCell id="6jmo85DI6xjCP64ScIo4-124" value="" style="endArrow=classic;html=1;rounded=0;entryX=0.4;entryY=0;entryDx=0;entryDy=0;" edge="1" parent="1" target="6jmo85DI6xjCP64ScIo4-119">
          <mxGeometry width="50" height="50" relative="1" as="geometry">
            <mxPoint x="-40" y="-50" as="sourcePoint" />
            <mxPoint x="-200" y="-30" as="targetPoint" />
          </mxGeometry>
        </mxCell>
        <mxCell id="6jmo85DI6xjCP64ScIo4-125" value="" style="endArrow=none;html=1;rounded=0;" edge="1" parent="1">
          <mxGeometry width="50" height="50" relative="1" as="geometry">
            <mxPoint x="-40" y="-10" as="sourcePoint" />
            <mxPoint x="-10" y="-10" as="targetPoint" />
            <Array as="points">
              <mxPoint x="-30" y="-10" />
            </Array>
          </mxGeometry>
        </mxCell>
        <mxCell id="6jmo85DI6xjCP64ScIo4-126" value="" style="endArrow=classic;html=1;rounded=0;" edge="1" parent="1">
          <mxGeometry width="50" height="50" relative="1" as="geometry">
            <mxPoint x="-34" y="245" as="sourcePoint" />
            <mxPoint x="-34" y="160" as="targetPoint" />
          </mxGeometry>
        </mxCell>
        <mxCell id="6jmo85DI6xjCP64ScIo4-127" value="" style="endArrow=none;html=1;rounded=0;" edge="1" parent="1">
          <mxGeometry width="50" height="50" relative="1" as="geometry">
            <mxPoint x="-40" y="-50" as="sourcePoint" />
            <mxPoint x="-10" y="-50" as="targetPoint" />
            <Array as="points">
              <mxPoint x="-30" y="-50" />
            </Array>
          </mxGeometry>
        </mxCell>
        <mxCell id="6jmo85DI6xjCP64ScIo4-128" value="" style="endArrow=none;html=1;rounded=0;" edge="1" parent="1">
          <mxGeometry width="50" height="50" relative="1" as="geometry">
            <mxPoint x="-39" y="35" as="sourcePoint" />
            <mxPoint x="-9" y="35" as="targetPoint" />
            <Array as="points">
              <mxPoint x="-29" y="35" />
            </Array>
          </mxGeometry>
        </mxCell>
        <mxCell id="6jmo85DI6xjCP64ScIo4-129" value="" style="endArrow=none;html=1;rounded=0;" edge="1" parent="1">
          <mxGeometry width="50" height="50" relative="1" as="geometry">
            <mxPoint x="-39" y="72" as="sourcePoint" />
            <mxPoint x="-9" y="72" as="targetPoint" />
            <Array as="points">
              <mxPoint x="-29" y="72" />
            </Array>
          </mxGeometry>
        </mxCell>
        <mxCell id="6jmo85DI6xjCP64ScIo4-130" value="aec3po:PermittingStage" style="rounded=0;whiteSpace=wrap;html=1;snapToPoint=1;points=[[0.1,0],[0.2,0],[0.3,0],[0.4,0],[0.5,0],[0.6,0],[0.7,0],[0.8,0],[0.9,0],[0,0.1],[0,0.3],[0,0.5],[0,0.7],[0,0.9],[0.1,1],[0.2,1],[0.3,1],[0.4,1],[0.5,1],[0.6,1],[0.7,1],[0.8,1],[0.9,1],[1,0.1],[1,0.3],[1,0.5],[1,0.7],[1,0.9]];fillColor=#e1d5e7;strokeColor=#9673a6;" vertex="1" parent="1">
          <mxGeometry x="-142" y="543" width="138" height="30" as="geometry" />
        </mxCell>
        <mxCell id="6jmo85DI6xjCP64ScIo4-132" style="edgeStyle=orthogonalEdgeStyle;rounded=0;orthogonalLoop=1;jettySize=auto;html=1;exitX=0.75;exitY=0.5;exitDx=0;exitDy=0;startArrow=none;startFill=0;endArrow=block;endFill=0;exitPerimeter=0;" edge="1" parent="1" source="6jmo85DI6xjCP64ScIo4-134">
          <mxGeometry relative="1" as="geometry">
            <mxPoint x="15" y="440" as="targetPoint" />
            <mxPoint x="-5" y="610" as="sourcePoint" />
            <Array as="points">
              <mxPoint x="15" y="560" />
            </Array>
          </mxGeometry>
        </mxCell>
        <mxCell id="6jmo85DI6xjCP64ScIo4-133" value="" style="line;strokeWidth=2;html=1;" vertex="1" parent="1">
          <mxGeometry x="-4" y="473" width="20" height="10" as="geometry" />
        </mxCell>
        <mxCell id="6jmo85DI6xjCP64ScIo4-134" value="" style="line;strokeWidth=2;html=1;" vertex="1" parent="1">
          <mxGeometry x="-3" y="555" width="20" height="10" as="geometry" />
        </mxCell>
        <mxCell id="6jmo85DI6xjCP64ScIo4-135" value="" style="line;strokeWidth=2;html=1;" vertex="1" parent="1">
          <mxGeometry x="-5" y="513" width="20" height="10" as="geometry" />
        </mxCell>
        <mxCell id="6jmo85DI6xjCP64ScIo4-136" value="..." style="text;html=1;strokeColor=none;fillColor=none;align=center;verticalAlign=middle;whiteSpace=wrap;rounded=0;" vertex="1" parent="1">
          <mxGeometry x="204" y="863" width="60" height="30" as="geometry" />
        </mxCell>
        <mxCell id="6jmo85DI6xjCP64ScIo4-137" value="(all) dct:identifier: dct:issued: &lt;u&gt;dct:references: dct:requires: dct:relation:&lt;/u&gt;" style="rounded=0;whiteSpace=wrap;html=1;snapToPoint=1;points=[[0.1,0],[0.2,0],[0.3,0],[0.4,0],[0.5,0],[0.6,0],[0.7,0],[0.8,0],[0.9,0],[0,0.1],[0,0.3],[0,0.5],[0,0.7],[0,0.9],[0.1,1],[0.2,1],[0.3,1],[0.4,1],[0.5,1],[0.6,1],[0.7,1],[0.8,1],[0.9,1],[1,0.1],[1,0.3],[1,0.5],[1,0.7],[1,0.9]];dashed=1;shadow=0;strokeColor=#999999;fillColor=#FFE6CC;" vertex="1" parent="1">
          <mxGeometry x="92" y="120" width="170" height="48" as="geometry" />
        </mxCell>
        <mxCell id="6jmo85DI6xjCP64ScIo4-138" value="aec3po:Document" style="rounded=0;whiteSpace=wrap;html=1;snapToPoint=1;points=[[0.1,0],[0.2,0],[0.3,0],[0.4,0],[0.5,0],[0.6,0],[0.7,0],[0.8,0],[0.9,0],[0,0.1],[0,0.3],[0,0.5],[0,0.7],[0,0.9],[0.1,1],[0.2,1],[0.3,1],[0.4,1],[0.5,1],[0.6,1],[0.7,1],[0.8,1],[0.9,1],[1,0.1],[1,0.3],[1,0.5],[1,0.7],[1,0.9]];shadow=0;strokeColor=#999999;fillColor=#FFE6CC;" vertex="1" parent="1">
          <mxGeometry x="92" y="90" width="170" height="30" as="geometry" />
        </mxCell>
        <mxCell id="6jmo85DI6xjCP64ScIo4-139" value="" style="endArrow=classic;html=1;rounded=0;" edge="1" parent="1">
          <mxGeometry width="50" height="50" relative="1" as="geometry">
            <mxPoint x="157" y="781" as="sourcePoint" />
            <mxPoint x="157" y="671" as="targetPoint" />
          </mxGeometry>
        </mxCell>
        <mxCell id="6jmo85DI6xjCP64ScIo4-140" value="" style="endArrow=none;html=1;rounded=0;" edge="1" parent="1">
          <mxGeometry width="50" height="50" relative="1" as="geometry">
            <mxPoint x="158" y="701" as="sourcePoint" />
            <mxPoint x="178" y="701" as="targetPoint" />
          </mxGeometry>
        </mxCell>
        <mxCell id="6jmo85DI6xjCP64ScIo4-141" value="" style="endArrow=none;html=1;rounded=0;" edge="1" parent="1">
          <mxGeometry width="50" height="50" relative="1" as="geometry">
            <mxPoint x="158" y="779" as="sourcePoint" />
            <mxPoint x="178" y="779" as="targetPoint" />
          </mxGeometry>
        </mxCell>
        <mxCell id="6jmo85DI6xjCP64ScIo4-142" value="aec3po:NumericalCheckStatement" style="rounded=0;whiteSpace=wrap;html=1;snapToPoint=1;points=[[0.1,0],[0.2,0],[0.3,0],[0.4,0],[0.5,0],[0.6,0],[0.7,0],[0.8,0],[0.9,0],[0,0.1],[0,0.3],[0,0.5],[0,0.7],[0,0.9],[0.1,1],[0.2,1],[0.3,1],[0.4,1],[0.5,1],[0.6,1],[0.7,1],[0.8,1],[0.9,1],[1,0.1],[1,0.3],[1,0.5],[1,0.7],[1,0.9]];fillColor=#ffe6cc;strokeColor=#d79b00;" vertex="1" parent="1">
          <mxGeometry x="188" y="551" width="182" height="30" as="geometry" />
        </mxCell>
        <mxCell id="6jmo85DI6xjCP64ScIo4-143" value="aec3po:HumanEvaluatedStatement" style="rounded=0;whiteSpace=wrap;html=1;snapToPoint=1;points=[[0.1,0],[0.2,0],[0.3,0],[0.4,0],[0.5,0],[0.6,0],[0.7,0],[0.8,0],[0.9,0],[0,0.1],[0,0.3],[0,0.5],[0,0.7],[0,0.9],[0.1,1],[0.2,1],[0.3,1],[0.4,1],[0.5,1],[0.6,1],[0.7,1],[0.8,1],[0.9,1],[1,0.1],[1,0.3],[1,0.5],[1,0.7],[1,0.9]];fillColor=#ffe6cc;strokeColor=#d79b00;" vertex="1" parent="1">
          <mxGeometry x="188" y="590" width="182" height="30" as="geometry" />
        </mxCell>
        <mxCell id="6jmo85DI6xjCP64ScIo4-144" value="" style="endArrow=none;html=1;rounded=0;" edge="1" parent="1">
          <mxGeometry width="50" height="50" relative="1" as="geometry">
            <mxPoint x="158" y="480" as="sourcePoint" />
            <mxPoint x="188" y="480" as="targetPoint" />
          </mxGeometry>
        </mxCell>
        <mxCell id="6jmo85DI6xjCP64ScIo4-145" value="" style="endArrow=none;html=1;rounded=0;" edge="1" parent="1">
          <mxGeometry width="50" height="50" relative="1" as="geometry">
            <mxPoint x="159" y="519" as="sourcePoint" />
            <mxPoint x="189" y="519" as="targetPoint" />
          </mxGeometry>
        </mxCell>
        <mxCell id="6jmo85DI6xjCP64ScIo4-146" value="" style="endArrow=none;html=1;rounded=0;" edge="1" parent="1">
          <mxGeometry width="50" height="50" relative="1" as="geometry">
            <mxPoint x="159" y="558" as="sourcePoint" />
            <mxPoint x="189" y="558" as="targetPoint" />
          </mxGeometry>
        </mxCell>
        <mxCell id="6jmo85DI6xjCP64ScIo4-147" value="" style="endArrow=none;html=1;rounded=0;" edge="1" parent="1">
          <mxGeometry width="50" height="50" relative="1" as="geometry">
            <mxPoint x="120" y="655" as="sourcePoint" />
            <mxPoint x="134" y="655" as="targetPoint" />
          </mxGeometry>
        </mxCell>
        <mxCell id="6jmo85DI6xjCP64ScIo4-148" value="aec3po:EquationStatement" style="rounded=0;whiteSpace=wrap;html=1;snapToPoint=1;points=[[0.1,0],[0.2,0],[0.3,0],[0.4,0],[0.5,0],[0.6,0],[0.7,0],[0.8,0],[0.9,0],[0,0.1],[0,0.3],[0,0.5],[0,0.7],[0,0.9],[0.1,1],[0.2,1],[0.3,1],[0.4,1],[0.5,1],[0.6,1],[0.7,1],[0.8,1],[0.9,1],[1,0.1],[1,0.3],[1,0.5],[1,0.7],[1,0.9]];fillColor=#ffe6cc;strokeColor=#d79b00;" vertex="1" parent="1">
          <mxGeometry x="134" y="830" width="150" height="30" as="geometry" />
        </mxCell>
        <mxCell id="6jmo85DI6xjCP64ScIo4-149" value="" style="endArrow=none;html=1;rounded=0;" edge="1" parent="1">
          <mxGeometry width="50" height="50" relative="1" as="geometry">
            <mxPoint x="121" y="838" as="sourcePoint" />
            <mxPoint x="135" y="838" as="targetPoint" />
          </mxGeometry>
        </mxCell>
      </root>
    </mxGraphModel>
  </diagram>
</mxfile>
